<?xml version="1.0"?>
<svg xmlns="http://www.w3.org/2000/svg"
	 version="1.1" width="512" height="512" x="0" y="0" viewBox="0 0 36 36" style="enable-background:new 0 0 512 512"
	 xml:space="preserve" class=""><g><g xmlns="http://www.w3.org/2000/svg"><path d="m27.623 4.167c-6.917 0-11.667-3.583-15-3.583s-10.333 1.916-10.333 17.249 9.417 17.583 13.083 17.583c17.167.001 24.5-31.249 12.25-31.249z" fill="#f3f3f1" data-original="#efefef" style="" class=""/></g><g
		xmlns="http://www.w3.org/2000/svg"><path d="m6.033 2.467h2v1h-2z" fill="#a4afc1" transform="matrix(.707 -.707 .707 .707 -.038 5.842)" data-original="#a4afc1" style="" class=""/></g><g
		xmlns="http://www.w3.org/2000/svg"><path d="m1.967 6.533h2v1h-2z" fill="#a4afc1" transform="matrix(.707 -.707 .707 .707 -4.104 4.158)" data-original="#a4afc1" style="" class=""/></g><g
		xmlns="http://www.w3.org/2000/svg"><path d="m2.644 1.967h1v2h-1z" fill="#a4afc1" transform="matrix(.707 -.707 .707 .707 -1.177 3.092)" data-original="#a4afc1" style="" class=""/></g><g
		xmlns="http://www.w3.org/2000/svg"><circle cx="10" cy="23" fill="#f3f3f1" r="1.25" data-original="#f3f3f1" style="" class=""/></g><g
		xmlns="http://www.w3.org/2000/svg"><path d="m13.25 30v-1.25c0-1.105-.895-2-2-2h-2.5c-1.105 0-2 .895-2 2v1.25z" fill="#f3f3f1" data-original="#f3f3f1" style="" class=""/></g><g
		xmlns="http://www.w3.org/2000/svg"><circle cx="26" cy="23" fill="#f3f3f1" r="1.25" data-original="#f3f3f1" style="" class=""/></g><g
		xmlns="http://www.w3.org/2000/svg"><path d="m29.25 30v-1.25c0-1.105-.895-2-2-2h-2.5c-1.105 0-2 .895-2 2v1.25z" fill="#f3f3f1" data-original="#f3f3f1" style="" class=""/></g><g
		xmlns="http://www.w3.org/2000/svg"><path d="m15 6.75h-6.25c-1.1 0-2 .9-2 2v5.5c0 1.1.9 2 2 2h2v3l3.25-3h1z" fill="#37b5e8" data-original="#2fdf84" style="" class=""/></g><g
		xmlns="http://www.w3.org/2000/svg"><path d="m16.75 8.75v5.5c0 1.1.9 2 2 2h3.25l3.25 3v-3h2c1.1 0 2-.9 2-2v-5.5c0-1.1-.9-2-2-2h-8.5c-1.1 0-2 .9-2 2z" fill="#37b5e8" data-original="#2fdf84" style="" class=""/></g><g
		xmlns="http://www.w3.org/2000/svg"><path d="m11 23c0-.19.049-.365.125-.526-.2-.425-.625-.724-1.125-.724-.69 0-1.25.56-1.25 1.25s.56 1.25 1.25 1.25c.5 0 .925-.299 1.125-.724-.076-.161-.125-.336-.125-.526z" fill="#d5dbe1" data-original="#d5dbe1" style="" class=""/></g><g
		xmlns="http://www.w3.org/2000/svg"><path d="m11 26.75h-2.25c-1.105 0-2 .895-2 2v1.25h2.25v-1.25c0-1.105.895-2 2-2z" fill="#d5dbe1" data-original="#d5dbe1" style="" class=""/></g><g
		xmlns="http://www.w3.org/2000/svg"><path d="m27 23c0-.19.049-.365.125-.526-.2-.425-.625-.724-1.125-.724-.69 0-1.25.56-1.25 1.25s.56 1.25 1.25 1.25c.5 0 .925-.299 1.125-.724-.076-.161-.125-.336-.125-.526z" fill="#d5dbe1" data-original="#d5dbe1" style="" class=""/></g><g
		xmlns="http://www.w3.org/2000/svg"><path d="m27 26.75h-2.25c-1.105 0-2 .895-2 2v1.25h2.25v-1.25c0-1.105.895-2 2-2z" fill="#d5dbe1" data-original="#d5dbe1" style="" class=""/></g><g
		xmlns="http://www.w3.org/2000/svg"><path d="m13 17.173v-.923h-2c-1.1 0-2-.9-2-2v-5.5c0-1.1.9-2 2-2h-2.25c-1.1 0-2 .9-2 2v5.5c0 1.1.9 2 2 2h2v3z" fill="#2d94bd" data-original="#00b871" style="" class=""/></g><g
		xmlns="http://www.w3.org/2000/svg"><path d="m19 14.25v-5.5c0-1.1.9-2 2-2h-2.25c-1.1 0-2 .9-2 2v5.5c0 1.1.9 2 2 2h2.25c-1.1 0-2-.9-2-2z" fill="#2d94bd" data-original="#00b871" style="" class=""/></g><g
		xmlns="http://www.w3.org/2000/svg"><path d="m24.25 16.25h-2.25l3.25 3v-2.077z" fill="#2d94bd" data-original="#00b871" style="" class=""/></g><g
		xmlns="http://www.w3.org/2000/svg"><path d="m10.75 20c-.102 0-.204-.021-.301-.063-.273-.12-.449-.389-.449-.687v-2.25h-1.25c-1.517 0-2.75-1.233-2.75-2.75v-5.5c0-1.517 1.233-2.75 2.75-2.75h6.25v1.5h-6.25c-.689 0-1.25.561-1.25 1.25v5.5c0 .689.561 1.25 1.25 1.25h2c.414 0 .75.336.75.75v1.287l1.991-1.838c.139-.128.321-.199.509-.199h1v1.5h-.707l-3.035 2.801c-.141.131-.323.199-.508.199z" fill="#000000" data-original="#000000" style="" class=""/></g><g
		xmlns="http://www.w3.org/2000/svg"><path d="m25.25 20c-.185 0-.367-.068-.509-.199l-3.034-2.801h-2.957c-1.517 0-2.75-1.233-2.75-2.75v-5.5c0-1.517 1.233-2.75 2.75-2.75h8.5c1.517 0 2.75 1.233 2.75 2.75v5.5c0 1.517-1.233 2.75-2.75 2.75h-1.25v2.25c0 .298-.176.567-.449.687-.097.042-.199.063-.301.063zm-6.5-12.5c-.689 0-1.25.561-1.25 1.25v5.5c0 .689.561 1.25 1.25 1.25h3.25c.188 0 .37.071.509.199l1.991 1.838v-1.287c0-.414.336-.75.75-.75h2c.689 0 1.25-.561 1.25-1.25v-5.5c0-.689-.561-1.25-1.25-1.25z" fill="#000000" data-original="#000000" style="" class=""/></g><g
		xmlns="http://www.w3.org/2000/svg"><path d="m10 25c-1.103 0-2-.897-2-2s.897-2 2-2 2 .897 2 2-.897 2-2 2zm0-2.5c-.276 0-.5.224-.5.5s.224.5.5.5.5-.224.5-.5-.224-.5-.5-.5z" fill="#000000" data-original="#000000" style="" class=""/></g><g
		xmlns="http://www.w3.org/2000/svg"><path d="m14 30h-1.5v-1.25c0-.689-.561-1.25-1.25-1.25h-2.5c-.689 0-1.25.561-1.25 1.25v1.25h-1.5v-1.25c0-1.517 1.233-2.75 2.75-2.75h2.5c1.517 0 2.75 1.233 2.75 2.75z" fill="#000000" data-original="#000000" style="" class=""/></g><g
		xmlns="http://www.w3.org/2000/svg"><path d="m26 25c-1.103 0-2-.897-2-2s.897-2 2-2 2 .897 2 2-.897 2-2 2zm0-2.5c-.276 0-.5.224-.5.5s.224.5.5.5.5-.224.5-.5-.224-.5-.5-.5z" fill="#000000" data-original="#000000" style="" class=""/></g><g
		xmlns="http://www.w3.org/2000/svg"><path d="m30 30h-1.5v-1.25c0-.689-.561-1.25-1.25-1.25h-2.5c-.689 0-1.25.561-1.25 1.25v1.25h-1.5v-1.25c0-1.517 1.233-2.75 2.75-2.75h2.5c1.517 0 2.75 1.233 2.75 2.75z" fill="#000000" data-original="#000000" style="" class=""/></g><g
		xmlns="http://www.w3.org/2000/svg"><path d="m2 28.5h32v1.5h-32z" fill="#000000" data-original="#000000" style="" class=""/></g></g></svg>
