<svg id="Line" height="512" viewBox="0 0 36 36" width="512" xmlns="http://www.w3.org/2000/svg">
	<path d="m34.928 20.591c-3.693-5.848-3.199-11.778-4.979-14.596s-7.138-7.714-20.103.473-9.84 17.35-7.882 20.45c9.166 14.515 39.504 4.031 32.964-6.327z"
		  fill="#efefef"/>
	<path d="m32.375 4.842h2v1h-2z" fill="#a4afc1"/>
	<path d="m30.125 1.342h1v2h-1z" fill="#a4afc1"/>
	<circle cx="15.5" cy="15.5" fill="#37b5e8" r="8.75"/>
	<path d="m16.5 24.19c-.33.04-.66.06-1 .06-4.83 0-8.75-3.92-8.75-8.75s3.92-8.75 8.75-8.75c.34 0 .67.02 1 .06-4.36.49-7.75 4.2-7.75 8.69s3.39 8.2 7.75 8.69z"
		  fill="#2d94bd"/>
	<path d="m15.5 25c-5.238 0-9.5-4.262-9.5-9.5s4.262-9.5 9.5-9.5 9.5 4.262 9.5 9.5-4.262 9.5-9.5 9.5zm0-17.5c-4.411 0-8 3.589-8 8s3.589 8 8 8 8-3.589 8-8-3.589-8-8-8z"/>
	<path d="m24.807 20.334h1.5v10.446h-1.5z" transform="matrix(.707 -.707 .707 .707 -10.586 25.557)"/>
</svg>
