<?xml version="1.0" encoding="utf-8"?>
<!-- Generator: Adobe Illustrator 25.2.0, SVG Export Plug-In . SVG Version: 6.00 Build 0)  -->
<svg version="1.1" id="Слой_1" xmlns="http://www.w3.org/2000/svg" x="0px" y="0px"
	 viewBox="0 0 3200 2000" style="enable-background:new 0 0 3200 2000;" xml:space="preserve">
<style type="text/css">
	.st0{fill:#EBF3FA;}
	.st1{fill:#233862;}
	.st2{fill:#2A4E96;}
	.st3{fill:#AEC3FF;}
	.st4{fill:#FFB27D;}
	.st5{fill:#ED7D2B;}
	.st6{fill:#F99746;}
	.st7{fill:#FFFFFF;}
	.st8{fill:#E2915A;}
	.st9{fill:#DB6516;}
	.st10{fill:#9DB0F4;}
	.st11{fill:#163560;}
	.st12{fill:#ED975D;}
	.st13{fill:#2B478B;}
	.st14{fill:#6BB7BF;}
	.st15{fill:#86D1CD;}
	.st16{fill:#F1A34F;}
	.st17{fill:#DB7714;}
	.st18{fill:#5685D8;}
	.st19{fill:#739AF0;}
	.st20{fill:#A9453D;}
	.st21{fill:#2E3552;}
</style>
<g>
	<g>
		<path class="st0" d="M386.28,1808.06l852.19-4.47l227.16-0.07l75.25-0.03l227.59-0.07l1039.76-0.29c0,0,237.83-307.78-16.21-600.1
			c-263.39-303.08-391.46-56.25-472.42-482.87C2115.79-353.7,100.92,271.32,629.4,1185.14
			C819.69,1514.18,254.83,1339.29,386.28,1808.06z"/>
		<g>
			<path class="st1" d="M1372.04,1756.32c0,0,3.24,37.45-4.68,41.35l-101.31-0.21c0,0,0-11.69,16.27-14.29
				c16.27-2.6,44.86-12.13,49.7-33.35C1336.86,1728.6,1372.04,1756.32,1372.04,1756.32z"/>
			<path class="st1" d="M1662.75,1741.82c0,0,3.05,51.95-4.87,55.84l-101.32-0.21c0,0,0-11.69,16.27-14.29
				c16.27-2.6,44.86-12.13,49.7-33.35C1627.38,1728.6,1662.75,1741.82,1662.75,1741.82z"/>
			<path class="st2" d="M1666.2,1748.21c0,0-20.11,10.36-28.72,12.25c-9.57,2.11-27.53,0.77-27.53,0.77
				c-34.46-92.38-141.33-467.91-141.33-467.91c-4.64,103.84-23.39,207.4-42.86,290.65c-0.52,2.23-1.05,4.45-1.56,6.64v0.03
				c-0.47,2-0.95,3.99-1.42,5.95c-0.02,0.09-0.05,0.17-0.06,0.26c-23.64,98.24-47.34,165.14-47.34,165.14s-6.12,7.74-23.16,4.2
				c-19.53-4.05-26.04-12.64-26.04-12.64c12.64-400.13,19.69-625.77,19.69-625.77s169.15-91.38,215.1-13.27
				C1606.92,1192.64,1666.2,1748.21,1666.2,1748.21z"/>
			<path class="st3" d="M1598.04,1168.49c-21.93-78.4-25.54-152.84-25.36-214.47c0.23-87.72,8.11-149.49-18.29-159.91
				c0,0-81.56-23.71-137.7-34.16c-8.94-4.92-18.87-10.08-26.4-13.14c-17.72-7.19-86.83-107.65-98.55-131.7
				c-11.72-24.05-31.11-128.84-31.11-128.84l-26.93,8.58c0,0-8.09,117.62-4.21,148.28c3.88,30.66,89.45,162.49,96.55,174.02l0,0
				c30.46,111.35,0,292.55,13.92,332.95c7.16,20.78,139.97,58.86,212.66,54.07c3.62-0.24,7.1-0.59,10.4-1.05
				c0.01,0,0.02-0.01,0.03-0.01c17.2-2.39,29.71-7.88,34.29-17.52C1599.58,1180.92,1599.94,1175.25,1598.04,1168.49z"/>
			<path class="st4" d="M1260.63,486.27c0,0,15.22-44.21,4.09-45.5c-11.13-1.28-39.06-1.15-42.5,6.32
				c-3.45,7.47,11.49,47.76,11.49,47.76L1260.63,486.27z"/>
			<g>
				<g>
					<g>
						<path class="st5" d="M970.93,596.42L881.1,542.1c3.99-6.59,10.27-10.95,17.2-12.65c6.94-1.7,14.52-0.77,21.12,3.22
							c5.81,3.51,13.37,1.64,16.88-4.16l24.31-40.2l21.03,12.72l-24.31,40.2c-1.76,2.9-2.17,6.25-1.42,9.31
							c0.75,3.06,2.67,5.83,5.58,7.58c6.59,3.98,10.94,10.27,12.65,17.2C975.85,582.25,974.91,589.83,970.93,596.42z"/>
						<path class="st6" d="M970.93,596.42l-59.72-36.11c-13.83-11.55-7.07-21.43-0.13-23.14c6.94-1.7,14.52-0.77,21.12,3.22
							c5.81,3.51,13.37,1.64,16.88-4.16l24.31-40.2l8.25,4.99l-24.31,40.2c-1.76,2.9-2.17,6.25-1.42,9.31
							c0.75,3.06,2.67,5.83,5.58,7.58c6.59,3.98,10.94,10.27,12.65,17.2C975.85,582.25,974.91,589.83,970.93,596.42z"/>
						<path class="st6" d="M1233.7,334.55l-72.7,91.64c-25.27,41.79-68.97,61.83-110.84,63.51c-0.01,0-0.01,0-0.02,0
							c-14.27,0.57-28.31-0.98-41.35-4.54c-10.77-2.94-23.17,2.86-29.98,14.11l-1.42,2.35c-4.22,6.96-7.76,12.81-7.76,12.81
							l-15.31-9.26c0,0,3.57-5.91,7.81-12.93c7.47-12.38,7.06-27.49-1.13-36.65c-34.99-39.14-48.11-103.89-14.65-159.22
							l49.23-105.83L1233.7,334.55z"/>
						<g>
							<path class="st5" d="M929.6,370.75c5.94-34.34-10.67-53.04-28.24-72.85c-14.06-15.84-28.59-32.21-31.72-56.58
								c-3.47-27.03,9.12-54.63,31.32-68.66c16.88-10.67,35.53-11.01,51.2-0.97c22.24,14.29,30.51,41.94,23.91,79.96
								c-4.73,27.23-15.31,50.23-15.76,51.2l-13.96-6.47c0.39-0.85,38.81-85.19-2.51-111.74c-14.25-9.17-27.84-3.29-34.66,1.03
								c-16.97,10.73-26.96,32.81-24.28,53.7c2.52,19.67,14.88,33.59,27.96,48.33c18.33,20.65,39.1,44.05,31.9,85.68L929.6,370.75z"
								/>
						</g>
						<g>
							<path class="st6" d="M1102.91,475.56c27.65-21.21,51.93-15.19,77.63-8.82c20.55,5.09,41.81,10.36,64.84,1.81
								c25.55-9.49,44.14-33.45,46.26-59.62c1.61-19.91-6.75-36.58-22.92-45.79c-22.98-13.06-51.31-7.54-81.92,15.96
								c-21.92,16.83-37.37,36.89-38.02,37.73l12.21,9.35c0.57-0.74,57.42-73.94,100.12-49.68c14.74,8.36,15.84,23.13,15.19,31.18
								c-1.62,20.01-16.54,39.11-36.28,46.44c-18.59,6.9-36.66,2.42-55.79-2.32c-26.8-6.64-57.17-14.17-90.7,11.54L1102.91,475.56z"
								/>
						</g>
						<path class="st5" d="M1050.14,489.7c-14.27,0.57-28.31-0.98-41.35-4.54c-10.77-2.94-23.17,2.86-29.98,14.11l-1.42,2.35
							c-5.35,2.76-9.39,6.25-11.3,10.67l-11.76-7.11c0,0,3.57-5.91,7.81-12.93c7.47-12.38,7.06-27.49-1.13-36.65
							c-34.99-39.14-48.11-103.89-14.65-159.22l49.23-105.83l39.37,23.81C1034.94,214.35,875.11,430.93,1050.14,489.7z"/>
						<path class="st6" d="M979.29,523.75l-39.22-23.72c-5.32-3.22-7.05-10.21-3.83-15.53l0,0c3.22-5.32,10.21-7.05,15.53-3.83
							L991,504.39c5.32,3.22,7.05,10.21,3.83,15.53l0,0C991.6,525.25,984.62,526.97,979.29,523.75z"/>
					</g>
					<g>
						<path class="st7" d="M991.29,391.95l4.21-6.96c19.94,10.78,22.51,9.5,30.7-4.04l41.18-68.1c5.8-9.59,2.87-12.39-4.27-18
							l-5.07-4.35l3.75-6.21c15.51,7.07,33.96,13.09,47.45,15.85l-58.02,95.94c-8.42,13.92-8.31,16.3,10.31,28.84l-4.21,6.96
							L991.29,391.95z"/>
					</g>
				</g>
			</g>
			<path class="st4" d="M1222.22,447.09c0,0-1.44,15.22,3.45,18.09c4.88,2.87,6.6-18.09,6.6-18.09s0.29,17.2,4.02,18.36
				c3.73,1.17,6.03-19.8,6.03-19.8s0.4,16.66,2.93,16.08c2.53-0.57,4.25-16.08,4.25-16.08s1.15,12.09,4.59,9.92
				c3.45-2.17,6.72-15.15,6.72-15.15L1222.22,447.09z"/>
			<path class="st4" d="M1260.63,486.27c0,0,10.4-8.16,12.7-15.63c2.3-7.47,9.05-20.02,5.46-21.54
				c-3.59-1.52-14.07,14.65-14.07,14.65L1260.63,486.27z"/>
			<path class="st4" d="M1441.01,747.92l-1.31,6.8c0,0-6.05,20.89,19.5,29.17c25.55,8.29,47.1,12.12,49.63-4.42
				c0.15-13.16-0.17-33.71,1.73-44.25c0.71-3.92,1.79-8.01,3.45-12.54l-50.51-11.04l-15.42-0.51L1441.01,747.92z"/>
			<path class="st8" d="M1448.09,711.12l-4.7,24.8c47.99,12.71,68.98-8.71,70.63-13.24l-50.51-11.04L1448.09,711.12z"/>
			<path class="st4" d="M1521.42,712.39c-14.88,30.25-55.77,17.65-73,10.65c-4.85-1.96-7.82-3.49-7.82-3.49
				c-5.22-3.09-5.88-12.87-4.07-24.93c3.56-23.87,16.73-56.68,23.05-64.25c9.52-11.38,24.51-22.37,63.12-0.57
				C1561.33,651.61,1540.5,673.64,1521.42,712.39z"/>
			<path class="st1" d="M1455.38,596.42c0,0,18.65,3.72,42.8,0.4c19.6-2.69,39.3,11.86,45.4,17.64c0.13-1.21,0.11-2.91-0.54-4.79
				c0,0,2.57,3.18,2.15,6.5c0.26,0.34,0.36,0.55,0.26,0.58c0,0,3.83,0.36,5.87,2.07c0,0-1.57-0.69-2.45,0.19
				c-0.09,0.09-0.21,0.16-0.34,0.22c23.56,20.82,13.99,64.6,2.42,72.11c-13.92,9.03-37.82,33.89-37.82,33.89s0.85-9.07,5.73-19.09
				c4.88-10.01-4.23-12.57-14.4-20.6c-10.17-8.03,3.2-18.77-4.59-29.75c-7.79-10.98-46.07-16.55-43.84-22.65
				C1443.73,624.28,1454.99,597.83,1455.38,596.42z"/>
			<path class="st7" d="M1461.52,701.24c0,0-2.49,3.74-12.45-0.68c0,0-8.37-3.71-6.43-8.12
				C1442.63,692.45,1452.12,692.32,1461.52,701.24z"/>
			<path class="st5" d="M1450.3,803.49c0,0-23.04,152.87-195.35,259.03l-16.08,46.71h62.19c0,0,154.33-129.42,164.68-301.35
				L1450.3,803.49z"/>
			<polygon class="st9" points="1450.3,803.49 1450.3,780.32 1478.7,788.36 1465.75,807.89 			"/>
			<path class="st10" d="M1441.01,747.92l-16.62,14.21c0,0-4.6,19.84,6.6,41.37l33.5-19.15
				C1464.5,784.34,1444.71,774.78,1441.01,747.92z"/>
			<path class="st10" d="M1464.5,784.34c0,0,3.32,17.99,12.05,26.9c0,0,37.74-6.61,48.22-24.7l-15.81-24.69
				C1508.96,761.84,1505.18,778.69,1464.5,784.34z"/>
			<path class="st4" d="M1690.64,1180.56c0,0,0.07,34.22-3.08,41.03s-17.27,28.98-23.78,33.72c-6.51,4.74,1.4-27.41-0.64-33.29
				c-2.04-5.88-4.55,11.6-7.56,12.32c-3.01,0.72-3.83-14.69-4.53-20.26s12.83-20.91,16.87-33.34
				C1671.94,1168.32,1690.64,1180.56,1690.64,1180.56z"/>
			<path class="st3" d="M1553.86,794.1c0,0,33.19,9.04,55.68,58.53c23.58,51.89,86.7,167.16,89.05,183.07
				c2.34,15.91-4.18,164.49-4.18,164.49s-27.62,1.07-36.15-12.03c0,0-9.62-130.43-13.87-137.52
				c-4.25-7.09-112.95-136.72-103.8-169.61C1549.74,848.13,1553.86,794.1,1553.86,794.1z"/>
			<path class="st10" d="M1597.34,1185.6c-8.22,7.05-19.33,13.2-34.29,17.52c-0.01,0-0.02,0.01-0.03,0.01
				c-3.68,1.06-7.13,1.38-10.4,1.05c-60.74-6.26-51.41-242.25-21.98-259.69c31.02-18.38,42.03,9.53,42.03,9.53
				c-0.17,61.63,3.44,136.07,25.36,214.47C1599.94,1175.25,1599.58,1180.92,1597.34,1185.6z"/>
			<path class="st1" d="M1422.78,1596.59c0.4-1.84,0.87-3.83,1.42-5.95C1423.73,1592.64,1423.25,1594.63,1422.78,1596.59z"/>
			<path class="st1" d="M1425.76,1583.97c18.59-87.97-1.45-323.7,7.5-328.18c9.19-4.59,35.36,37.53,35.36,37.53
				C1463.98,1397.16,1445.23,1500.72,1425.76,1583.97z"/>
		</g>
		<g>
			<polygon class="st4" points="971.29,1763.64 965.93,1725.05 988.44,1706.25 995.52,1757.33 			"/>
			<path class="st1" d="M1046.02,1798.11h-91.75c0,0-2.2-13.98,2.59-24.59c4.59-10.18,11.74-16.46,12.39-24.26
				c5.83,6,13,9.86,26.27,8.08c1.62,2.63,10.49,16.74,15.92,20.63C1017.44,1782.28,1044.17,1780.74,1046.02,1798.11z"/>
			<path class="st6" d="M1027.59,1242.6c-6,48.27-10.91,93.77-14.9,136.18c-21.35,225.96-17.16,364.08-17.16,364.08
				s-1.54,4.09-14.78,4.15c-7.48,0.04-14.81-1.59-14.81-1.59s-47.81-147.56-44.12-231.53c0.44-10.1,1.62-19.28,3.73-27.18
				c11.47-42.96-42.44-207.26,16.16-268.44C1000.3,1157.09,1030.35,1220.45,1027.59,1242.6z"/>
			<path class="st5" d="M1027.59,1242.6c-6,48.27-10.91,93.77-14.9,136.18l-90.87,135.11c0.44-10.1,1.62-19.28,3.73-27.18
				c11.47-42.96-42.44-207.26,16.16-268.44C1000.3,1157.09,1030.35,1220.45,1027.59,1242.6z"/>
			<path class="st4" d="M1099.79,782.22c0,0-2.21-11.03-4.7-19.44c-1.1-3.72,6.58-28.18,11.89-31.19
				c5.31-3.01,19.16,13.46,15.24,26.11c-2.01,6.5-5.32,27.64-5.32,27.64L1099.79,782.22z"/>
			<path class="st4" d="M1099.79,782.22c0,0-2.89-6.39-5.5-7.43c-2.61-1.04-5.41-11.49-7.32-15.64c0,0,1.85-2.71,5.09,0.78
				c1.98,2.13,6.38,8.37,6.38,8.37L1099.79,782.22z"/>
			<path class="st4" d="M721.05,819.32c-0.56,1.16-1.34,3.24-2.04,5.19c-0.01-0.53-0.02-1.06-0.03-1.58
				c-0.04-3.88-14.54-25.02-20.5-26.35c-5.96-1.32-14.38,18.48-6.93,29.43c3.83,5.62,13.17,24.87,13.17,24.87l15.45-7.98
				c0,0,0.89-6.96,3.08-8.71c2.19-1.75,1.81-12.57,2.42-17.09C725.69,817.09,723.13,815.03,721.05,819.32z"/>
			<path class="st4" d="M817.42,1752.07c-1.3-12.37-1.62-44.91-1.62-44.91s33.16-10.6,31.94-3.32c-6,35.77-4.37,53.49-4.37,53.49
				l-13.41,8.01L817.42,1752.07z"/>
			<path class="st6" d="M999.9,1240.3c0,0-128.09,351.1-153.3,503.4c0,0-5.84,4.01-16.74,2.68c-12.36-1.51-15.74-10.09-15.74-10.09
				s-23.14-182.54,22.85-245.91c31.6-43.54-13.63-234.75,59.97-250.08C970.53,1224.97,999.9,1240.3,999.9,1240.3z"/>
			<path class="st11" d="M977.15,902.56c0-0.01,0-0.01,0-0.01c-0.02-0.15-0.06-0.31-0.11-0.45c-0.75-3.09-1.57-6.13-2.45-9.15
				c0-0.01,0-0.01,0-0.01c-2.68-9.23-5.87-18.02-9.31-25.78c-1.98-4.45-4.03-8.57-6.13-12.25c-0.32-0.57-0.63-1.09-0.94-1.64
				l-0.01-0.01c-4.95-8.32-10.04-14.07-14.63-15.85c-8.38-3.24-17.69-2.34-24.1-1c1.41-1.96,4.6-3.08,4.6-3.08
				c-4.1,0-12.46,5.3-12.46,5.3c-58.99-13.19-55.55,70.26-51.53,89.17c4,18.92-14.99,28.11-41.78,47.46
				c-51.12,36.93-50.26,76.07-50.26,76.07c0.46,0.19,0.96,0.42,1.49,0.68c2.06-5.06,6.42-14.65,10.99-16.68
				c-0.13,0.45-3.85,12.87-4.91,19.82c7.79,4.29,18.56,10.94,30.26,18.43c0,0,0,0,0.01,0.01c15.66,10.02,32.94,21.55,46.78,30.91
				c-0.66-3.81-1.31-9.24-0.34-12.31l4.41,13.67l0.58,1.78c8.84,5.99,15.81,10.78,19.35,13.24c0.36,0.25,0.68,0.47,0.97,0.67
				c1.03,0.71,1.59,1.1,1.59,1.1c-1.18-4.83,3.98-17.42,12.64-33.3c0.59-1.11,1.22-2.23,1.86-3.37c2.8-5.02,5.92-10.3,9.27-15.76
				c1.21-1.97,2.43-3.94,3.7-5.95c0-0.01,0.01-0.01,0.01-0.01c1.01-1.62,2.04-3.22,3.11-4.85l0.01-0.01
				c2.51-3.88,5.1-7.78,7.75-11.69c6.86-10.13,14.12-20.19,21.29-29.41c10.42-13.43,20.64-25.1,29.2-32.74
				c0.28-0.58,0.55-1.17,0.78-1.76c1.34-3.11,2.37-6.57,3.16-10.09c0.25-1.06,0.47-2.12,0.66-3.18c2.13-11.23,2.17-22.37,2.15-25.02
				c0.69,10.85,0.41,19.03-0.31,25.22c-0.16,1.36-0.34,2.61-0.55,3.78l0,0.01c-0.46,2.64-0.98,4.82-1.55,6.63
				c1.4-1.74,2.63-3.65,3.72-5.73c0.71-1.36,1.36-2.79,1.94-4.29C984.99,953.51,983.13,927.22,977.15,902.56z"/>
			<path class="st4" d="M966.06,987.1c0.2,0.06-16.52,12.15-30.69,10.46c-13.33-1.59-24.18-16.96-24.01-17.02
				c5.27-1.89,5.72-9.58,0.84-41.61l2.53,0.12l42.47,2.03c0,0,0.99,13.12,2.78,25.36C961.48,976.71,963.55,986.35,966.06,987.1z"/>
			<path class="st12" d="M957.19,941.08c0,0,0.99,13.12,2.78,25.36c-23.18,2.78-38.52-16.46-45.25-27.39L957.19,941.08z"/>
			<path class="st11" d="M909.8,935.19c0,0-14.94-17.32-20.28-33.23c-3.81-11.36-4.3-55.5,40.09-55.73c0,0,12.81-0.63,25.87,5.62
				c10.39,4.97,26.05,16.7,16.44,56.71l-2.06,13.34L909.8,935.19z"/>
			<path class="st7" d="M1032.94,1233.56c0,0-55.26,32.84-124.65,15.96c-0.82-0.2-57.13-9.19-57.13-9.19
				c0.97-2.65,8.25-46.15,9.2-48.58c12.31-31.77,34.81-204.17,53.6-212.67c4.8,5.23,18.52,8.8,30.26,7.76
				c13.52-1.19,18.04-7.03,16.92-13.32c14.96,7.07,26.45,13.65,26.45,13.65C1001.26,1007.66,1032.94,1233.56,1032.94,1233.56z"/>
			<path class="st4" d="M966.62,951.51c0,0-54.48,9.02-59.58-24.99c-5.1-34.02-15.56-55.76,19.01-62.96
				c34.57-7.2,43.29,4.76,47.75,15.7C978.27,890.21,980.67,948.29,966.62,951.51z"/>
			<path class="st11" d="M950.8,859.03c0,0-9.02,42.14-31.09,51.45c-22.07,9.32-32.94,4.65-32.94,4.65s15.52-16.6,15.55-41.56
				C902.32,873.57,936.7,841.71,950.8,859.03z"/>
			<path class="st11" d="M947.58,862.82c0,0,12.49,7.25,16.5,15.51c4.01,8.26,7.89,25.91,13,24.53c0,0,7.23-28.8-7.71-42.27
				C953.52,846.31,947.58,862.82,947.58,862.82z"/>
			<path class="st13" d="M1117.28,783.01c-2.22-0.78-5.48-2.63-9.74-3.01c-3.79-0.34-8.56,0.89-8.56,0.89s-15.37,95.55-16.51,100.62
				c-1.14,5.06-65.93,78.05-83.4,77.76c-15.77-0.26-34.46,11.91-37.93,14.25c0,0,36.73,77.68,38.57,92.27
				c1.99,15.88,21.01,260.37,21.01,260.37s-1.13,11.37,20.12,5.26c21.25-6.12,26.57-11.18,26.57-11.18s-19.52-192.48-23.62-252.34
				c-0.55-8.04-1.86-15.47-3.73-22.33c-1.8-6.62-0.38-13.69,3.66-19.23c26.87-36.88,69.3-96.64,71.66-109.34
				C1118.85,898.33,1117.28,783.01,1117.28,783.01z"/>
			<path class="st1" d="M893.87,1798.11h-91.75c0,0-2.2-13.98,2.59-24.59c4.59-10.18,11.74-16.46,12.39-24.26
				c5.83,6,13,9.86,26.27,8.08c1.62,2.63,10.49,16.74,15.92,20.63C865.28,1782.28,892.02,1780.74,893.87,1798.11z"/>
			<path class="st13" d="M956.89,1073.33c-3.09-19.03-42.57-95.43-42.57-95.43s-24.96-7.46-41.38-1.51
				c-16.43,5.95-101.41-42.03-104.14-46.45c-2.72-4.42-48.24-89.24-48.24-89.24s-3.77-2.19-9.82,0.97
				c-5.98,3.12-6.01,9.21-6.01,9.21s35.13,106.79,44.48,123.31c5.64,9.96,53.02,44.65,89.76,70.62c7.01,4.96,10.7,13.4,9.55,21.92
				c-4.94,36.52-6.2,57.08-11.88,119.75c-4.71,51.98-6.52,152.62-6.52,152.62s41.11,14.23,69.48,16.11
				c28.37,1.89,34.56-28.02,34.56-28.02S960.07,1092.9,956.89,1073.33z"/>
			<path class="st7" d="M948.77,934.7c0,0,6.62,3.89,14.43,2.71c5.35-0.8,6.57-7.15,6.57-7.15s-3.72-1.17-9.66,0.02
				C954.18,931.47,948.77,934.7,948.77,934.7z"/>
		</g>
		<g>
			<path class="st11" d="M2010.06,927.57c0,0,16.92,27.89-14.9,45.45c0,0,24.46,8.82,32.98,5.49c0,0-2.11,2.2-3.72,3
				c0,0,22.99,7.3,34.45,3.31c11.46-3.98,36.13-115.29-31.72-121.16c0,0-53.52-19.16-64.83,40.56s-31.93,53.93-31.93,53.93
				s5,4.22,7.77,5c0,0,4.45-0.29,5.82-2.12c0,0-1.71,3.02-3.04,3.76c0,0,21.7,8.2,34.99,3.58S2009.85,940.48,2010.06,927.57z"/>
			<path class="st1" d="M1941.95,1806.24h86.56c0,0,2.08-13.19-2.45-23.2c-4.33-9.6-11.07-15.53-11.69-22.89
				c-5.5,5.66-12.27,9.31-24.78,7.62c-1.53,2.49-9.9,15.79-15.02,19.47C1968.92,1791.3,1943.69,1789.86,1941.95,1806.24z"/>
			<path class="st13" d="M2013.48,1773.18c0,0-7.39,2.39-15.09,3.08c-13.64,1.21-15.62-2.84-15.62-2.84s-13.55-120.61-57.41-351.17
				c-6.33-33.3-8.82-51.73-11.11-81.33c-0.68-8.86-1.35-18.72-2.08-30.28c-1.99-31.07,2.73-83.37,26.05-97.11
				c10.6-6.26,25.04-4.54,44.47,10.75c1.52,1.21,3.1,2.5,4.69,3.88c56.83,49.16,33.53,190.35,35.83,256.73
				c0.39,11,1.47,19.95,3.74,26.09c2.93,7.93,9.23,18.92,10.66,29.28C2049.52,1626.33,2013.48,1773.18,2013.48,1773.18z"/>
			<path class="st1" d="M2023.19,1484.88l-108.95-143.96c-0.68-8.86-1.35-18.72-2.08-30.28c-1.99-31.07,2.73-83.37,26.05-97.11
				l44.47,10.75c1.52,1.21,3.1,2.5,4.69,3.88C2044.19,1277.32,2020.89,1418.5,2023.19,1484.88z"/>
			<path class="st1" d="M2331.14,1624.07l-36.03-78.71c0,0-12.86,3.6-20.08,11.88c-6.93,7.94-11.95,6.53-27.73-4.43
				c5.94,9.18,6.75,14.59,10.42,26.67c2.9,0.36,19.4,16.33,36.31,20.73C2300.77,1601.96,2315.51,1629.3,2331.14,1624.07z"/>
			<path class="st13" d="M1953.41,1248.07c0,0,77.57,269.65,105.99,287.01c28.42,17.36,177.85,41.23,208.22,54.25
				c0,0,3.7-5.3,1.53-16.64c-0.48-2.52-4.77-11.57-4.77-11.57s-92.79-69.76-153.87-76.8c-15.16-1.75,30.86-233.21-71.56-242.45
				C1945.39,1233.42,1953.41,1248.07,1953.41,1248.07z"/>
			<path class="st4" d="M1842.75,805.67c0,0,2.09-10.4,4.44-18.34c1.04-3.51-6.21-26.59-11.22-29.43
				c-5.01-2.84-18.08,12.7-14.38,24.63c1.9,6.13,5.02,26.07,5.02,26.07L1842.75,805.67z"/>
			<path class="st4" d="M1842.75,805.67c0,0,2.73-6.03,5.19-7.01c2.46-0.98,5.1-10.84,6.91-14.75c0,0-1.75-2.56-4.8,0.73
				c-1.86,2.01-6.02,7.89-6.02,7.89L1842.75,805.67z"/>
			<path class="st4" d="M2200.09,840.66c0.53,1.1,1.27,3.05,1.92,4.89c0.01-0.5,0.02-1,0.02-1.49c0.03-3.66,13.72-23.61,19.34-24.86
				c5.62-1.25,13.57,17.43,6.54,27.76c-3.61,5.31-12.43,23.46-12.43,23.46l-14.58-7.53c0,0-0.84-6.57-2.91-8.22
				c-2.07-1.66-1.7-11.86-2.29-16.13C2195.71,838.56,2198.13,836.62,2200.09,840.66z"/>
			<path class="st4" d="M1968.92,998.96c-0.19,0.05,15.58,11.47,28.96,9.86c12.58-1.5,22.81-16,22.65-16.06
				c-4.97-1.78-5.4-9.03-0.79-39.25l-2.38,0.11l-40.07,1.92c0,0-0.94,12.38-2.63,23.92C1973.25,989.16,1971.3,998.26,1968.92,998.96
				z"/>
			<path class="st12" d="M1977.29,955.54c0,0-0.94,12.38-2.63,23.92c21.87,2.63,36.34-15.53,42.69-25.84L1977.29,955.54z"/>
			<path class="st11" d="M2022.01,949.99c0,0,14.1-16.34,19.13-31.35c3.59-10.72,4.06-52.36-37.83-52.58c0,0-12.09-0.6-24.41,5.3
				c-9.8,4.69-24.58,15.76-15.51,53.51l1.94,12.58L2022.01,949.99z"/>
			<path class="st4" d="M1918.67,1237.68c0,0,39.3,24.8,104.76,8.87c0.77-0.19,37.22-6,37.22-6c-0.91-2.5-39.21-65.78-40.11-68.08
				c-11.61-29.97,15.28-173.05-2.45-181.08c-4.53,4.93-17.47,8.31-28.54,7.32c-12.75-1.13-17.03-6.64-15.97-12.56
				c-14.11,6.67-24.96,12.88-24.96,12.88C1935.71,1018.36,1918.67,1237.68,1918.67,1237.68z"/>
			<path class="st4" d="M1968.39,965.39c0,0,51.4,8.52,56.21-23.58c4.81-32.09,14.68-52.61-17.93-59.4
				c-32.62-6.79-40.84,4.49-45.05,14.82C1957.41,907.54,1955.15,962.34,1968.39,965.39z"/>
			<path class="st11" d="M1983.32,878.13c0,0,8.51,39.76,29.33,48.55c20.82,8.79,31.08,4.38,31.08,4.38s-14.65-15.66-14.67-39.21
				C2029.07,891.85,1996.63,861.79,1983.32,878.13z"/>
			<path class="st11" d="M1986.36,881.71c0,0-11.79,6.84-15.57,14.63c-3.79,7.79-7.44,24.45-12.26,23.15c0,0-6.82-27.18,7.28-39.88
				C1980.76,866.13,1986.36,881.71,1986.36,881.71z"/>
			<path class="st6" d="M2212.15,870.44c0,0-33.15,100.76-41.97,116.34c-5.31,9.4-65.03,46.58-99.69,71.08
				c-0.38,0.26-0.82,0.8-1.33,1.59c-0.01,0.02-0.02,0.03-0.04,0.05c-8.65,13.38-35.54,96.18-29.11,111.04
				c27.03,62.46,45.56,86.62,52.3,104.14c3.37,8.74-1.13,18.53-9.95,21.67c-11.11,3.95-27.47,8.93-46.77,12.24
				c-3.68,0.64-7.47,1.21-11.35,1.7c-53.27,6.76-89.34-5.74-107.65-14.98c-8.66-4.37-13.89-13.46-13.35-23.14
				c1.1-19.76,10.98-39.32,15.44-86.84c3.38-36.06-27.74-90.93-26.42-110.12c0.52-7.59,6.49-16.67,9.72-22.56c0,0,0-0.01,0.01-0.02
				c5.72-10.42,8.86-19.83,5.05-25.05c-25.35-34.79-80.09-82.77-82.33-94.75c-3.27-17.61-1.79-126.42-1.79-126.42
				c2.09-0.73,5.17-2.48,9.19-2.84c3.58-0.32,8.07,0.84,8.07,0.84s14.5,90.16,15.58,94.93c1.08,4.77,62.2,73.64,78.68,73.36
				c14.88-0.25,35.87,11.24,39.13,13.45c0,0-13.36,23.67-16.69,55.64c-2.32,22.36,12.61,12.42,22-2.89
				c12.7-20.73,38.27-50.25,38.27-50.25s20.8-5.41,36.3,0.21c15.5,5.61,95.68-39.67,98.25-43.83c2.58-4.17,45.52-84.19,45.52-84.19
				s3.56-2.06,9.27,0.91C2212.12,864.69,2212.15,870.44,2212.15,870.44z"/>
			<path class="st7" d="M1983.32,947.96c0,0-2.2,4.43-5.16,4.52c-2.96,0.08-10.47-0.63-10.98-1.4c-0.51-0.77-1.76-5.4-1.76-5.4
				S1977.85,945.18,1983.32,947.96z"/>
			<path class="st5" d="M2082.35,1296.35c-11.11,3.95-27.47,8.93-46.77,12.24c-18.38-25.34-49.49-57.23-41.48-115.87
				c8.27-60.62,67.87-124.42,75.02-133.22c-8.65,13.38-35.54,96.18-29.11,111.04c27.03,62.46,45.56,86.62,52.3,104.14
				C2095.67,1283.42,2091.18,1293.21,2082.35,1296.35z"/>
			<path class="st5" d="M1901.98,1052.63c5.72-10.42,8.86-19.83,5.05-25.05c-25.35-34.79-80.09-82.77-82.33-94.75
				c5.43,13.02,71.72,51.91,90.36,68.63C1933.49,1017.97,1902.73,1051.82,1901.98,1052.63z"/>
		</g>
		<g>
			<path class="st14" d="M789.24,572.8c0,0,12.42,17.02,11.09,36.43c-0.99,14.41-13.83,28.98-14.7,29.56l20.27,10.81
				c0,0,15.03-26.69,9.97-48.99c-1.55-6.83-8.74-17.76-14.02-22.63C796.03,572.62,789.24,572.8,789.24,572.8z"/>
			<path class="st15" d="M747.8,574.61l-12.84-28.38c0,0,59.91,2.03,79.76,50.84C814.72,597.07,772.8,567.17,747.8,574.61z"/>
		</g>
		<g>
			<path class="st14" d="M521.5,1296.56c0,0-14.28-10.78-17.96-26.89c-2.74-11.96,4.13-26.96,4.69-27.64l-19.13-3.81
				c0,0-5.67,25.39,3.93,42.27c2.94,5.17,11.47,12.3,16.96,14.96C516.02,1298.38,521.5,1296.56,521.5,1296.56z"/>
			<path class="st15" d="M554.75,1284.92l17.41,19.92c0,0-49.2,13.07-77.33-21.74C494.83,1283.09,536.25,1297.1,554.75,1284.92z"/>
		</g>
		<g>
			<path class="st16" d="M2711.25,1389.3c0,0-1.25-18.71,33.88-27.77c15.74-4.06,50.8,3.16,28.58,37.65
				c-23.12,35.88-43.72,22.92-43.72,22.92s48.21-37.74,28.92-54.99c-21.29-19.04-29.47,18.69-29.47,18.69
				S2720.85,1385.35,2711.25,1389.3z"/>
			<path class="st17" d="M2723.72,1424.26c0,0-13.14-7.12-7.93-22.9l18.88,3.28c0,0-7.26,17.09,10.5,19.16
				C2745.17,1423.8,2728.08,1427.86,2723.72,1424.26z"/>
		</g>
		<g>
			<path class="st18" d="M1491.8,420.63c0,0,19.63-28.27,49.73-8.25l18.33-17.53c0,0-17.13-13-56.63,10.32
				C1477.38,420.42,1491.8,420.63,1491.8,420.63z"/>
			<path class="st19" d="M1472.43,448.34c0,0-3.88-32.45,50.43-52.69c0,0-19.63,9.51-25.69,41.86L1472.43,448.34z"/>
		</g>
		<path class="st6" d="M1690.64,276.25c0,0,16.05-10.14,17.74-22.39c0,0,15.63,0.84,19.01,5.91c0,0-7.18,20.27-15.63,24.08
			C1711.76,283.85,1692.75,285.12,1690.64,276.25z"/>
		<path class="st6" d="M1174.11,1432.89c0,0-17.12-10.81-18.93-23.88c0,0-16.67,0.9-20.28,6.31c0,0,7.66,21.63,16.67,25.68
			C1151.58,1441,1171.86,1442.35,1174.11,1432.89z"/>
		<path class="st15" d="M1876.96,595.64c0,0,17.2-10.86,19.01-23.99c0,0,16.75,0.91,20.37,6.34c0,0-7.69,21.72-16.75,25.8
			C1899.59,603.78,1879.22,605.14,1876.96,595.64z"/>
		<g>
			<path class="st4" d="M2211.67,1093.62c0,0-9.94-12.07-15.29-13.76c-5.35-1.69-15.69-9.7-17.04-6.4
				c-1.35,3.3,6.95,8.39,6.52,12.16c-0.44,3.77-26.4,9.83-26.24,13.82c0.16,3.99,6.11,13.64,16.01,12.53
				c9.9-1.11,35.02-7.07,40.18-4.49C2220.96,1110.06,2211.67,1093.62,2211.67,1093.62z"/>
			<path class="st3" d="M2479.45,1034.93c-14.66,19.69-31.83,35.25-49.46,47.51c-56.05,39-116.86,44.81-116.86,44.81
				c-14.57-4.66-59.34-9.54-85.79-13.8h-0.01c-11.53-1.85-19.58-3.6-20.12-5.14l0.67-23.04c0,0,97.09-5.13,113.17-12.59
				c25.35-21.84,47.75-50.2,62.34-72.36c12.33-18.71,26.12-32.53,48.87-40.64C2465.15,947.94,2524.96,973.78,2479.45,1034.93z"/>
			<path class="st10" d="M2434.93,1067.94l-4.95,14.5c-56.05,39-116.86,44.81-116.86,44.81c-11.71,0-59.34-9.54-85.79-13.8
				c1.05,0.09,72.02,5.63,87.71,4.01c15.8-1.63,89.37-65.4,89.37-65.4L2434.93,1067.94z"/>
			<path class="st1" d="M2371.55,1798.11h107.29c7.69-5.21-2.07-56.18-2.07-56.18s-29.28-11.11-34.34,11.48
				c-5.07,22.58-37.3,29.76-54.35,32.51C2376.41,1787.82,2372.72,1794.23,2371.55,1798.11z"/>
			<path class="st1" d="M2530.68,1798.11h107.3c7.69-5.21-2.07-56.18-2.07-56.18s-29.28-11.11-34.34,11.48
				c-5.07,22.58-37.3,29.76-54.35,32.51C2535.53,1787.82,2531.85,1794.23,2530.68,1798.11z"/>
			<path class="st13" d="M2400.42,1278.14c0,0,4.82,60.17,10.49,132.5c7.7,98.25,28.48,341.85,28.48,341.85s13.62,11.62,43.8,5.26
				c0,0,25.68-84.04,33.36-179.95c0.12-1.57,0.24-3.16,0.36-4.74c7.14-97.64,18.25-303.25,18.25-303.25L2400.42,1278.14z"/>
			<path class="st1" d="M2398.77,1257.34c0,0,6.47,80.96,12.14,153.29l105.64,167.16c0.12-1.57,0.24-3.16,0.36-4.74
				c7.14-97.64,18.25-303.25,18.25-303.25L2398.77,1257.34z"/>
			<path class="st13" d="M2429.56,1257.34c0,0,76.62,190.72,101.11,263.02c17.45,51.5,66.65,232.15,66.65,232.15
				s21.4,6.51,39.38-6.08c0,0,18.31-184.57-18.67-236.61c-19.62-27.61-4.88-287.02-84.42-289.25
				C2454.08,1218.36,2429.56,1257.34,2429.56,1257.34z"/>
			<path class="st4" d="M2463.79,976.19c11.7,6.16,23.11,6.55,33.01,4.44c9.05-1.9,16.83-5.9,22.36-9.44
				c5.68-3.63,9.02-6.8,9.02-6.8s-0.4-0.57-1.06-1.7c-3.46-5.91-13.93-27.16-9.27-61.3c0.06-0.45-3.32,0.19-8.43,1.39
				c-15.2,3.6-45.77,12.27-47.12,12.65c-0.03,0-0.05,0-0.05,0s-0.37,7.18-1.63,20.05c-0.1,1.13-0.22,2.32-0.34,3.55
				c-0.16,1.51-0.31,3.11-0.5,4.76C2458.36,957.18,2463.79,976.19,2463.79,976.19z"/>
			<path class="st12" d="M2460.62,935.5c22.7,5.2,56.57-28.31,56.57-28.31c-2.48-1.84-5.08-3.3-7.76-4.4
				c-15.2,3.6-45.77,12.27-47.12,12.65c-0.03,0-0.05,0-0.05,0S2461.87,922.62,2460.62,935.5z"/>
			<path class="st4" d="M2452.9,913.63c0,0,9.33,3.35,21.23,4.95c17.4,2.35,40.28,0.96,47.47-20.09
				c12.11-35.43,27.57-56.68-8.06-71.15c-19.07-7.75-31.27-8.16-39.56-5.2c-7.2,2.55-11.44,7.65-14.66,12.69
				C2452.41,845.67,2438.49,907.43,2452.9,913.63z"/>
			<path class="st20" d="M2431.29,837.63c20.63,14.83,49.17,0.25,58.04,4.2c8.86,3.94,10.45,18.8,10.61,23.52
				c0.16,4.73,0.78,8.71,12.81,5.88c1.97-0.46,3.39-0.33,4.37,0.26c4.99,2.96-1.39,17.32-3.31,20.42c0,0-2.77,10.28,3.38,15.29
				c0.74,0.6,12.81,5.87,41.9-38.64c4.57-6.99,8.94-22.73,1.88-37.88c-7.05-15.16-36.53-29.8-61.53-37.57
				c-9.37-2.91-16.31-2.8-21.75-0.81c-9.06,3.31-13.9,11.88-18.69,20.48C2450.95,827.23,2431.29,837.63,2431.29,837.63z"/>
			<path class="st3" d="M2564.01,1270.68c0,0-9.98,2.16-22.61,4.29c-12.35,2.07-27.24,4.11-37.75,4.03
				c-53.8-0.42-98.82-16.26-98.82-16.26c-10.11,0-14.74-15.66-16.39-37.52c-1.12-14.8-0.88-32.45-0.08-49.99
				c0.26-5.69,0.59-11.38,0.94-16.95c0.71-11.05,1.54-21.66,2.29-31.04c0.71-8.81,1.35-16.52,1.73-22.51
				c0-0.01-1.44-41.88-0.87-78.71c0.4-26.44,15.24-50.51,18.95-54.43c10.77-11.39,41.97-18.59,48.22-19.59
				c0.48-0.07,0.73-0.11,0.73-0.11c25.66,14.41,60.21-5.06,60.21-5.06c0.78,0.13,1.55,0.32,2.31,0.48
				c2.54-0.54,28.47,3.3,34.51,6.59c14.92,8.13,23.59,98.35,23.59,98.35c2.49,61.29-0.64,159.43,4.21,196.89
				C2586.77,1261.5,2574.83,1268.18,2564.01,1270.68z"/>
			<path class="st10" d="M2522.69,947.36c0,0-38.23,39.43-65.56,31.35c0,0-3.64-5.32,8.67-7.03
				C2478.11,969.97,2491.4,970.67,2522.69,947.36z"/>
			<path class="st7" d="M2452.63,890.75c0,0-0.75,4.59,9.92,8.25c0,0,8.95,3.07,10.59-1.63
				C2473.14,897.37,2466.03,890.6,2452.63,890.75z"/>
			<path class="st10" d="M2543.65,1096.53c0,0-55.52,92.86-87.02,109.21c-21.3,11.05-51.12,16.87-68.2,19.49
				c-1.12-14.8-0.88-32.45-0.08-49.99c22.56-2.74,56.93-7.1,56.93-7.1L2543.65,1096.53z"/>
			<path class="st10" d="M2470.52,1049.87l-29.59,106.82c0,0-34.82,2.2-51.63,1.59c0.71-11.05,0.73-11.42,1.48-20.8
				C2390.78,1137.48,2430.76,1116.64,2470.52,1049.87z"/>
			<path class="st4" d="M2292.33,1164.6c0,0-9.94-12.07-15.29-13.76c-5.35-1.69-15.7-9.7-17.04-6.4c-1.35,3.3,6.95,8.39,6.52,12.16
				c-0.44,3.77-26.4,9.83-26.24,13.82c0.16,3.99,6.11,13.64,16.01,12.53c9.9-1.11,35.02-7.07,40.18-4.49
				C2301.61,1181.04,2292.33,1164.6,2292.33,1164.6z"/>
			<path class="st3" d="M2584.05,1016.4c0,0,1.75,56.58-127.21,170.09l-25.9-46.39c-4.77-2.78,83.31-192.22,108.62-190.7
				C2588.61,952.33,2584.05,1016.4,2584.05,1016.4z"/>
			<path class="st3" d="M2446.37,1134.58c0,0-146.65,16.77-152.08,19.68c-5.43,2.91-17.08,14.26-13.2,28.49
				c0,0,75.92,9.54,117.68,9.37c36.03-0.15,59.34-5.93,59.34-5.93L2446.37,1134.58z"/>
		</g>
		<path class="st21" d="M2973.83,1806.24H218.48c-1.86,0-3.39-1.52-3.39-3.38v-1.8c0-1.86,1.52-3.38,3.39-3.38h2755.35
			c1.86,0,3.38,1.52,3.38,3.38v1.8C2977.21,1804.72,2975.69,1806.24,2973.83,1806.24z"/>
	</g>
</g>
</svg>
