<svg id="Слой_1" data-name="Слой 1" xmlns="http://www.w3.org/2000/svg" viewBox="0 0 3041.76 1612.73"><defs><style>.cls-1{fill:#e7f3fe;}.cls-2{fill:#cce2ff;}.cls-14,.cls-3{fill:#99bbeb;}.cls-4{fill:#fff;}.cls-5{fill:#9bd6e8;}.cls-6{fill:#3a384d;}.cls-7{fill:#f09959;}.cls-8{fill:#e38540;}.cls-9{fill:#f99746;}.cls-10{fill:#2e2d3d;}.cls-11{fill:#d5e1e8;}.cls-12{fill:#bdccd4;}.cls-13{fill:#d54a41;}.cls-14{opacity:0.2;isolation:isolate;}.cls-15{fill:#7a4e34;}.cls-16{fill:#2e5b9a;}.cls-17{fill:#f0a66e;}.cls-18{fill:#6791c9;}.cls-19{fill:#75a1de;}.cls-20{fill:#ed7d2b;}.cls-21{fill:#e39154;}.cls-22{fill:#303c60;}.cls-23{fill:#74b570;}.cls-24{fill:#9cd499;}</style></defs><path class="cls-1" d="M670.22,284.79C1085.69,130.55,1508,266.91,1794.36,563.92s887.43-205,1206.2,91.52c217.54,202.36,117.9,722.64-180.39,948C2414.73,1909.71,1181.75,1754.3,915,1702.17c-307.28-60.05-531.92-242.25-623.19-463.39C71.92,705.94,486.62,353,670.22,284.79Z" transform="translate(-229.12 -220.72)"/><path class="cls-2" d="M3008.89,1725.26c-208-10.17-915.46,7.06-1130.63,13.77s-464.93-8.86-594.67-31.76-879.67,2-845.64,63.53,334.13,27.55,674.45,52.3,1105.7-3.09,1278.34,0,331-6.19,553.45-18.56S3129.45,1731.15,3008.89,1725.26Z" transform="translate(-229.12 -220.72)"/><rect class="cls-3" x="144.04" y="332.41" width="434.74" height="712.57"/><rect class="cls-4" x="166.81" y="346.93" width="397.68" height="670.89"/><path class="cls-5" d="M514.88,836.68c15-32.2,40.3-42.51,81.9-42.51,49.53,0,75.25,17.94,82.54,44.07C590.62,839.45,514.88,836.68,514.88,836.68Z" transform="translate(-229.12 -220.72)"/><path class="cls-6" d="M579.49,637.55c-21,5.89-20,17.67-27,28.61s-22.18,18.23-24,25.52,4.68,22.48-3,31-10.33,12.76-7.29,21.26,9.72,21.87,10.33,23.69,9.11,14.58,19.44,16.4,29.77,4.86,39.49,9.11,41-5.44,58.33-4.84,29.16-12.17,27.95-20.68,12.79-25.52,12.76-40.1c0-15.66-18.23-27.34-23.09-37.67s.61-28.56-17.62-39.35c-11.52-6.82-19.44-6.22-28.56-9.25S592.85,633.8,579.49,637.55Z" transform="translate(-229.12 -220.72)"/><path class="cls-7" d="M605,819.87c-4.74,7-8.22,7.29-13.37,0-4.09-5.8-12.15-19-12.15-25.65v-66.7a12.19,12.19,0,0,1,12.15-12.15H605a12.19,12.19,0,0,1,12.15,12.15v66.7C617.16,800.9,609.26,813.59,605,819.87Z" transform="translate(-229.12 -220.72)"/><path class="cls-8" d="M605,715.37H591.63a12.19,12.19,0,0,0-12.15,12.15V787c15,4.78,28.71-4.72,37.67-15.42V727.52A12.17,12.17,0,0,0,605,715.37Z" transform="translate(-229.12 -220.72)"/><ellipse class="cls-7" cx="369.2" cy="495.32" rx="40.4" ry="55.05"/><path class="cls-6" d="M617.16,672.23C591.64,715.37,554,711.11,554,711.11S554.88,654,584.8,651s47.54,9,53.62,28.79,0,32.88,0,32.88a52.4,52.4,0,0,1-14.58-19.75A141.63,141.63,0,0,1,617.16,672.23Z" transform="translate(-229.12 -220.72)"/><ellipse class="cls-7" cx="552.44" cy="719.76" rx="10.63" ry="15.95" transform="translate(-484.48 85.88) rotate(-25.4)"/><path class="cls-7" d="M632.76,715.19c-3.78,8-2.54,16.45,2.76,19s12.67-1.89,16.45-9.84,2.54-16.45-2.76-19S636.54,707.24,632.76,715.19Z" transform="translate(-229.12 -220.72)"/><path class="cls-4" d="M613.51,745.9s-6.8,8.82-15.19,8.82-15.19-8.82-15.19-8.82Z" transform="translate(-229.12 -220.72)"/><path class="cls-3" d="M646.42,924h-102a11.86,11.86,0,0,1,0-23.72h102a11.86,11.86,0,0,1,0,23.72Z" transform="translate(-229.12 -220.72)"/><path class="cls-3" d="M665.1,960.46H525.7a11.86,11.86,0,1,1,0-23.72H665.1a11.86,11.86,0,0,1,0,23.72Z" transform="translate(-229.12 -220.72)"/><path class="cls-3" d="M764.94,1091.56H425.86a6.88,6.88,0,1,1,0-13.76H764.94a6.88,6.88,0,0,1,0,13.76Z" transform="translate(-229.12 -220.72)"/><path class="cls-3" d="M764.94,1123.55H425.86a6.88,6.88,0,0,1,0-13.76H764.94a6.88,6.88,0,0,1,0,13.76Z" transform="translate(-229.12 -220.72)"/><path class="cls-3" d="M764.94,1155.55H425.86a6.88,6.88,0,0,1,0-13.76H764.94a6.88,6.88,0,0,1,0,13.76Z" transform="translate(-229.12 -220.72)"/><path class="cls-3" d="M717.51,844.59H473.29A12.3,12.3,0,0,1,461,832.3V607.21a12.3,12.3,0,0,1,12.29-12.29H717.52a12.3,12.3,0,0,1,12.29,12.29V832.3A12.31,12.31,0,0,1,717.51,844.59ZM473.29,604.92a2.32,2.32,0,0,0-2.29,2.29V832.3a2.32,2.32,0,0,0,2.29,2.29H717.52a2.32,2.32,0,0,0,2.29-2.29V607.21a2.32,2.32,0,0,0-2.29-2.29Z" transform="translate(-229.12 -220.72)"/><polygon class="cls-9" points="279.41 770.69 286.48 785.02 302.29 787.32 290.85 798.47 293.55 814.21 279.41 806.78 265.27 814.21 267.97 798.47 256.53 787.32 272.34 785.02 279.41 770.69"/><polygon class="cls-9" points="337.32 770.69 344.39 785.02 360.2 787.32 348.76 798.47 351.46 814.21 337.32 806.78 323.18 814.21 325.88 798.47 314.44 787.32 330.25 785.02 337.32 770.69"/><polygon class="cls-3" points="395.24 770.69 402.31 785.02 418.12 787.32 406.68 798.47 409.38 814.21 395.24 806.78 381.1 814.21 383.8 798.47 372.36 787.32 388.17 785.02 395.24 770.69"/><polygon class="cls-3" points="453.15 770.69 460.22 785.02 476.03 787.32 464.59 798.47 467.29 814.21 453.15 806.78 439.01 814.21 441.71 798.47 430.27 787.32 446.08 785.02 453.15 770.69"/><rect class="cls-3" x="1113.26" y="332.41" width="434.74" height="712.57"/><rect class="cls-4" x="1136.02" y="346.93" width="397.68" height="670.89"/><path class="cls-3" d="M1615.63,924h-102a11.86,11.86,0,1,1,0-23.72h102a11.86,11.86,0,0,1,0,23.72Z" transform="translate(-229.12 -220.72)"/><path class="cls-3" d="M1634.31,960.46H1494.92a11.86,11.86,0,0,1,0-23.72h139.39a11.86,11.86,0,1,1,0,23.72Z" transform="translate(-229.12 -220.72)"/><path class="cls-3" d="M1734.15,1091.56H1395.07a6.88,6.88,0,0,1,0-13.76h339.08a6.88,6.88,0,0,1,0,13.76Z" transform="translate(-229.12 -220.72)"/><path class="cls-3" d="M1734.15,1123.55H1395.07a6.88,6.88,0,0,1,0-13.76h339.08a6.88,6.88,0,0,1,0,13.76Z" transform="translate(-229.12 -220.72)"/><path class="cls-3" d="M1734.15,1155.55H1395.07a6.88,6.88,0,1,1,0-13.76h339.08a6.88,6.88,0,0,1,0,13.76Z" transform="translate(-229.12 -220.72)"/><path class="cls-10" d="M1528.79,720.52c-.25-.75-6.52-36.76-7.28-50.77s22.51-16,22.51-16,19-10.25,32.76-5a55.39,55.39,0,0,1,29.37,25.09c6.25,11-5.5,45.3-5.5,45.3Z" transform="translate(-229.12 -220.72)"/><path class="cls-11" d="M1485.67,836.24c-.09-.6,1.6-14.77,1.67-15.34,3.17-29.85,40-38.25,76.66-38.25,43.13,0,72.39,7.9,77.06,38.91.14.91,2.62,15.12,2.5,16.07C1563.62,838.73,1485.67,836.24,1485.67,836.24Z" transform="translate(-229.12 -220.72)"/><path class="cls-7" d="M1571.41,805.82c-4.28,6.31-7.41,6.57-12.05,0-3.69-5.23-16-17.14-16-23.17l5.06-60a11,11,0,0,1,10.95-11h12.05a11,11,0,0,1,10.95,11l2.35,60C1584.71,788.68,1575.24,800.17,1571.41,805.82Z" transform="translate(-229.12 -220.72)"/><path class="cls-8" d="M1571.41,711.65h-12.05a11,11,0,0,0-10.95,11L1544,775.88c13.52,4.31,31.79-4.45,39.86-14.09l-1.53-39.19A11,11,0,0,0,1571.41,711.65Z" transform="translate(-229.12 -220.72)"/><path class="cls-12" d="M1524.05,787l19.31,35.69s10.34-8.5,11.33-6.84-1.83,22.71-1.83,22.71,23,.31,24-.68-4.67-22.86-2.34-22.86,9.36,6.34,9.36,6.34L1605.45,787l-4.74-1.16-35.32,19L1527.6,786.3Z" transform="translate(-229.12 -220.72)"/><polygon class="cls-13" points="1317.02 582.77 1331.36 592.39 1326.91 617.93 1346.25 616.85 1341.42 593.62 1353.31 582.77 1347.72 577.5 1322.6 577.5 1317.02 582.77"/><path class="cls-11" d="M1544.36,769.55l-17.74,16.87s18.07,32.14,19.08,32.14S1561,800.84,1561,800.84l9.18-.16,14.5,15.21,16.85-29.8-17.18-18.21s-14.68,28.34-17.34,29-2.69,1-4.84-.67S1544.36,769.55,1544.36,769.55Z" transform="translate(-229.12 -220.72)"/><ellipse class="cls-7" cx="1336.27" cy="491.54" rx="36.41" ry="49.61"/><path class="cls-7" d="M1532.7,711.49c3.41,7.17,2.29,14.83-2.48,17.1s-11.42-1.71-14.82-8.88-2.29-14.82,2.49-17.09S1529.3,704.33,1532.7,711.49Z" transform="translate(-229.12 -220.72)"/><path class="cls-7" d="M1596.43,711.49c-3.41,7.17-2.29,14.83,2.48,17.1s11.42-1.71,14.82-8.88,2.29-14.82-2.49-17.09S1599.83,704.33,1596.43,711.49Z" transform="translate(-229.12 -220.72)"/><path class="cls-4" d="M1581.53,732.62s-7.23,11.71-16.15,11.71-16.15-11.71-16.15-11.71Z" transform="translate(-229.12 -220.72)"/><path class="cls-10" d="M1544,678.51c15-10.5,21.76-8.76,33,8.5s24.77,17.57,24.77,17.57l1.74-17.9s-16.76-32.42-39.27-28.17S1529,683,1529,683s-1.1,38,2,39.26,3.5-12.25,5.75-15-2.25-15.76.75-21.76S1544,678.51,1544,678.51Z" transform="translate(-229.12 -220.72)"/><path class="cls-10" d="M1592.29,698c5.24,5.73,3.25,28.51,6,28.26s3.76-21.76,3-24S1592.29,698,1592.29,698Z" transform="translate(-229.12 -220.72)"/><path class="cls-3" d="M1686.73,844.59H1442.5a12.3,12.3,0,0,1-12.29-12.29V607.21a12.3,12.3,0,0,1,12.29-12.29h244.23A12.3,12.3,0,0,1,1699,607.21V832.3A12.3,12.3,0,0,1,1686.73,844.59ZM1442.5,604.92a2.32,2.32,0,0,0-2.29,2.29V832.3a2.32,2.32,0,0,0,2.29,2.29h244.23a2.32,2.32,0,0,0,2.29-2.29V607.21a2.32,2.32,0,0,0-2.29-2.29Z" transform="translate(-229.12 -220.72)"/><polygon class="cls-9" points="1248.62 770.69 1255.69 785.02 1271.5 787.32 1260.06 798.47 1262.76 814.21 1248.62 806.78 1234.48 814.21 1237.18 798.47 1225.74 787.32 1241.55 785.02 1248.62 770.69"/><polygon class="cls-9" points="1306.54 770.69 1313.61 785.02 1329.42 787.32 1317.98 798.47 1320.68 814.21 1306.54 806.78 1292.39 814.21 1295.1 798.47 1283.66 787.32 1299.47 785.02 1306.54 770.69"/><polygon class="cls-9" points="1364.45 770.69 1371.52 785.02 1387.33 787.32 1375.89 798.47 1378.59 814.21 1364.45 806.78 1350.31 814.21 1353.01 798.47 1341.57 787.32 1357.38 785.02 1364.45 770.69"/><polygon class="cls-3" points="1422.37 770.69 1429.44 785.02 1445.25 787.32 1433.81 798.47 1436.51 814.21 1422.37 806.78 1408.22 814.21 1410.92 798.47 1399.48 787.32 1415.29 785.02 1422.37 770.69"/><polygon class="cls-14" points="1162.13 1037.85 476.03 1037.85 524.56 335.05 1186.87 335.05 1162.13 1037.85"/><rect class="cls-3" x="548.1" y="202.06" width="593.79" height="973.26"/><rect class="cls-4" x="579.2" y="221.89" width="543.18" height="916.34"/><path class="cls-3" d="M1207.5,929.35H954a16.2,16.2,0,1,1,0-32.4H1207.5a16.2,16.2,0,1,1,0,32.4Z" transform="translate(-229.12 -220.72)"/><path class="cls-3" d="M1176,979.14H985.57a16.2,16.2,0,0,1,0-32.4H1176a16.2,16.2,0,1,1,0,32.4Z" transform="translate(-229.12 -220.72)"/><path class="cls-3" d="M1312.33,1158.19H849.2a9.4,9.4,0,0,1,0-18.8h463.13a9.4,9.4,0,1,1,0,18.8Z" transform="translate(-229.12 -220.72)"/><path class="cls-3" d="M1312.33,1201.89H849.2a9.4,9.4,0,0,1,0-18.8h463.13a9.4,9.4,0,0,1,0,18.8Z" transform="translate(-229.12 -220.72)"/><path class="cls-3" d="M1312.33,1245.6H849.2a9.4,9.4,0,0,1,0-18.8h463.13a9.4,9.4,0,0,1,0,18.8Z" transform="translate(-229.12 -220.72)"/><path class="cls-15" d="M997.46,639.2c0,43.66,26.29,114.1,88.3,111.84s75.72-69.41,78.12-88.35S997.46,639.2,997.46,639.2Z" transform="translate(-229.12 -220.72)"/><path class="cls-13" d="M971.63,809.19c20.47-44.05,55.12-58.15,112-58.15,67.75,0,102.93,24.54,112.9,60.28C1075.23,813,971.63,809.19,971.63,809.19Z" transform="translate(-229.12 -220.72)"/><path class="cls-7" d="M1094.9,786.19c-6.49,9.58-11.25,10-18.29,0-5.6-7.93-16.62-26-16.62-35.08V659.87a16.67,16.67,0,0,1,16.62-16.62h18.29a16.68,16.68,0,0,1,16.62,16.62v91.24C1111.52,760.24,1100.71,777.6,1094.9,786.19Z" transform="translate(-229.12 -220.72)"/><path class="cls-8" d="M1094.9,643.25h-18.29A16.67,16.67,0,0,0,1060,659.87v81.4c20.53,6.54,39.27-6.45,51.53-21.09V659.87A16.67,16.67,0,0,0,1094.9,643.25Z" transform="translate(-229.12 -220.72)"/><ellipse class="cls-7" cx="856.63" cy="423.45" rx="55.26" ry="75.3"/><path class="cls-15" d="M1116.12,586.94c-6.56,23.15-20.95,22.88-41,30.49s-29.65,15.25-36.22,30.06c-8.37,18.89,3.81,74,3.81,74s-50.82-38-44.94-97.82,41.13-83,74.32-83,45.79,20.22,45.79,20.22,17.67.07,34.39,19.87c22.47,26.62,15.55,91.25,0,114.41s-25.92,30.42-25.58,29.38,14.51-54.22,6.91-87.1S1116.12,586.94,1116.12,586.94Z" transform="translate(-229.12 -220.72)"/><path class="cls-4" d="M1106.52,685s-9.3,12.07-20.78,12.07S1065,685,1065,685Z" transform="translate(-229.12 -220.72)"/><path class="cls-3" d="M1247.55,819.05H914a15,15,0,0,1-15-15V496.65a15,15,0,0,1,15-15h333.58a15,15,0,0,1,15,15V804.09A15,15,0,0,1,1247.55,819.05ZM914,491.69a5,5,0,0,0-5,5V804.09a5,5,0,0,0,5,5h333.58a5,5,0,0,0,5-5V496.65a5,5,0,0,0-5-5Z" transform="translate(-229.12 -220.72)"/><polygon class="cls-9" points="692.81 800.69 702.47 820.26 724.06 823.4 708.44 838.63 712.13 860.14 692.81 849.98 673.5 860.14 677.18 838.63 661.56 823.4 683.15 820.26 692.81 800.69"/><polygon class="cls-9" points="771.91 800.69 781.57 820.26 803.17 823.4 787.54 838.63 791.23 860.14 771.91 849.98 752.6 860.14 756.29 838.63 740.66 823.4 762.26 820.26 771.91 800.69"/><polygon class="cls-9" points="851.01 800.69 860.67 820.26 882.27 823.4 866.64 838.63 870.33 860.14 851.01 849.98 831.7 860.14 835.39 838.63 819.76 823.4 841.36 820.26 851.01 800.69"/><polygon class="cls-9" points="930.12 800.69 939.77 820.26 961.37 823.4 945.74 838.63 949.43 860.14 930.12 849.98 910.8 860.14 914.49 838.63 898.86 823.4 920.46 820.26 930.12 800.69"/><polygon class="cls-9" points="1010.48 800.69 1020.13 820.26 1041.73 823.4 1026.1 838.63 1029.79 860.14 1010.48 849.98 991.16 860.14 994.85 838.63 979.22 823.4 1000.82 820.26 1010.48 800.69"/><path class="cls-16" d="M2399.91,1249.23H1638a8.29,8.29,0,0,1-8.29-8.29v-12.43a8.29,8.29,0,0,1,8.29-8.29h762a8.29,8.29,0,0,1,8.29,8.29v12.43A8.29,8.29,0,0,1,2399.91,1249.23Z" transform="translate(-229.12 -220.72)"/><path class="cls-17" d="M2596.11,831.41c10.32,36.4-14.89,73.91-42.67,81.79s-47.6-16.85-57.92-53.25,3.82-72.29,31.6-80.17S2585.78,795,2596.11,831.41Z" transform="translate(-229.12 -220.72)"/><path class="cls-7" d="M2440.37,1536.71s71.19,110.57,80.8,115.38,33.65,6,24.64,24-12.62,88.94-21,92.54-80.52,12-69.71,0,17.47-6,22.93-27.64,13.13-62.5,2.91-70.91S2408.2,1586,2408.2,1586Z" transform="translate(-229.12 -220.72)"/><path class="cls-7" d="M2082.07,1584.19s-86.54,142.62-102.56,155.45-68.91,32-25.64,35.26,64.1-14.42,91.34-22.44,60.9-12.82,48.08-33.65-7.5-66.31,20.14-95.16S2082.07,1584.19,2082.07,1584.19Z" transform="translate(-229.12 -220.72)"/><path class="cls-18" d="M2523.68,1253.46s-214.22-5.6-299.15,64.1c-49.68,75.32-169.86,297.55-179.2,322,6.41,6.41,42.47,18,58.49,16.37,47.27-56.37,109.76-105.1,134.61-149.32,30.62-54.49,40.06-81.73,89.74-86.54s161.86-20.83,195.51-20.83S2523.68,1253.46,2523.68,1253.46Z" transform="translate(-229.12 -220.72)"/><polygon class="cls-16" points="2481.37 1554.56 2470.14 1554.56 2389.62 1218.6 2414.32 1218.6 2481.37 1554.56"/><polygon class="cls-16" points="2144.99 1554.56 2156.22 1554.56 2248.62 1206.73 2223.92 1206.73 2144.99 1554.56"/><path class="cls-19" d="M2645.72,1238.79l-124.55,21.5s-165.51,1.52-241.16,15.61c-68.83,12.82-79,91,0,198.71,44.86,61.17,82.79,110,160.36,165,19.73-14.49,27.28-20,32.73-54.82-5.61-7.7-20.15-55.87-24.66-65.3-42.9-89.68-100.17-122.3-101-131.12,9.62-15.62,254.68,81.44,303.41,24.34C2697.42,1358.19,2645.72,1238.79,2645.72,1238.79Z" transform="translate(-229.12 -220.72)"/><path class="cls-9" d="M2650.89,956.83c-32.8-4.6-66.21,1.63-97.45,24.25-53,56.45-81.05,103.6-56.3,149.43,2.4,96.15-14.88,102.32,3.15,128.76,75.19,31,203.79,164.45,173.5,21.43-21.93-103.56,48.09-180.75-8.39-295.62C2660.8,975.74,2655.05,966.67,2650.89,956.83Z" transform="translate(-229.12 -220.72)"/><path class="cls-20" d="M2497.12,1166.69c-1.46,50.12-8.54,64.89-3.13,80.6,30.65,3.13,86.72,15.4,100.73,35,16,22.43,32.05,25.64,24.57,9.08s-27.24-40.06,3.21-120.72,44.87-135.15,15-191.23Z" transform="translate(-229.12 -220.72)"/><path class="cls-17" d="M2650.89,956.83c-20.2-47.82-25.16-101.54-25.16-101.54l-52.88,15.62s30.05,67.3,1.2,91.34a276.36,276.36,0,0,0-20.62,18.83C2584.69,958.46,2618.09,952.22,2650.89,956.83Z" transform="translate(-229.12 -220.72)"/><path class="cls-21" d="M2627.33,868c-3.13-2.79-7-6.27-11.17-9.9L2573,870.86l-.09.23c1,2.38,12,28,13.47,52.68,12.85-7.8,26.93-20.51,43-42.72C2628.56,876.12,2627.87,871.73,2627.33,868Z" transform="translate(-229.12 -220.72)"/><path class="cls-7" d="M2613.72,971.87c-54.46,19-48.42,76.43-98.55,161.05-25.94,43.79-50,43.14-50,43.14a1160,1160,0,0,1-134.43-8.51c-46.08-5.63-49,8.08-17,19.54,64.64,23.11,131.71,48,185.79,42s146.58-144,151.35-179.92C2657.49,999.46,2641.15,962.27,2613.72,971.87Z" transform="translate(-229.12 -220.72)"/><path class="cls-16" d="M2585.67,1453.32c-3.39,0-6.85,0-10.41-.13-44.39-1.1-74.6-7.24-98.88-12.17-28.35-5.76-44-8.93-62.14-.25a14,14,0,1,1-12.07-25.27c26.63-12.73,48.93-8.2,79.78-1.92,23.2,4.72,52.08,10.58,94,11.62,46.92,1.17,75.53-5.79,90-21.87,12.92-14.33,16.7-38.4,11.9-75.75-1.64-12.78-3.29-23.42-4.74-32.8-4.09-26.47-6.8-44-3.45-71,3.11-25.1,11.42-58.54,30.67-123.37a14,14,0,0,1,26.85,8c-35.87,120.81-34.05,132.58-26.4,182.1,1.48,9.55,3.15,20.37,4.84,33.51,5.92,46.07-.07,77.23-18.87,98.08C2667.41,1443.55,2636,1453.32,2585.67,1453.32Z" transform="translate(-229.12 -220.72)"/><path class="cls-13" d="M2088,1704.4c-57.42,28.08-88.32,44.17-106.73,42.64-4.35-.36-8-.81-11-1.28-20.48,12.1-53.16,26.4-16.39,29.13,43.27,3.2,64.1-14.42,91.34-22.44s60.9-12.82,48.08-33.65A43.61,43.61,0,0,1,2088,1704.4Z" transform="translate(-229.12 -220.72)"/><path class="cls-13" d="M2527.44,1654.43c-1.4,45.46-7.65,90.51-35.46,99a46.68,46.68,0,0,1-20,1.79c-4.37,5.41-9.71,5.47-16.87,13.42-10.82,12,61.29,3.61,69.71,0s12-74.51,21-92.54C2553.22,1661.31,2538.32,1657.86,2527.44,1654.43Z" transform="translate(-229.12 -220.72)"/><path class="cls-19" d="M2306.26,1224.19H2123.85a14,14,0,0,1-12.7-8.1l-73.72-158.65a14,14,0,0,1,25.4-11.8l70,150.55h173.48a14,14,0,0,1,0,28Z" transform="translate(-229.12 -220.72)"/><path class="cls-7" d="M2344.43,1169.13c-36.86-.53-73.41-22.5-91.58-19.3s-77.46,44.34-70,45.94,54.49-22.76,56.09-23.13,11.75,16.87,36.86,23.21.18-18.82,78,4.69C2404.43,1215.82,2344.43,1169.13,2344.43,1169.13Z" transform="translate(-229.12 -220.72)"/><path class="cls-9" d="M2644.47,937.19l6.42,19.64s-47.7,2.84-71.43,16.19S2520.7,1025,2520.7,1025l2.62-5.27,24.12-31.52Z" transform="translate(-229.12 -220.72)"/><path class="cls-9" d="M2625.17,966.61c-35.43-6.64-51.81,25.11-74.78,76.92s-62.18,114.75-70,122.86-131.41,0-131.41,0-3.74,35.79,0,40.06,25.11,3.74,25.11,3.74,8.55,6.82,16.56,12.23,75.85,15.55,107.37,13.95,60.36-4.27,64.63-9.08S2653,1090,2658.29,1042.46,2643.25,970,2625.17,966.61Z" transform="translate(-229.12 -220.72)"/><path class="cls-22" d="M2520.7,748.67c-67,3.21-56.49,104-56.49,104s17.4,5.37,53.86-.64c-2.8-10.82-1.6-38.46-1.6-38.46s4.24,22.44,9.62,36.06c7.71,3.53,16.43.4,31.25-3.18,7.61,32,29.12,45.56,43.85,50.19,16.27,5.12,33.5,11.22,52.73,1.6s8.66-107.9-1.56-127.67c-15.33-29.67-40.8-56.22-84.87-42.2C2545.38,735.4,2520.7,748.67,2520.7,748.67Z" transform="translate(-229.12 -220.72)"/><path class="cls-22" d="M2637.22,868.37l27.39,40s-30.36,75.85,57.94,110.22c69.15,26.91,61,74.34,29.76,122S2771,1230,2771,1230s7.62-52.83,74.8-62.8c91.61-13.6,117.55-136.59,49.12-198.09-56.62-50.89-73.85-8.75-112.18-54.42s-110.68-14.82-110.68-14.82l-26.52-38.67Z" transform="translate(-229.12 -220.72)"/><path class="cls-22" d="M2926.45,1093a2.44,2.44,0,0,1-2.14-3.61c23-42.1,4.24-93.1-5.21-106.92-1-1.46-1.95-3-3-4.52-9.29-14.5-20.85-32.54-82.53-43.65-14.86-2.67-26.88-11.5-39.62-20.85-26.3-19.31-56.12-41.2-120.89-11.38a2.43,2.43,0,1,1-2-4.42c67.38-31,98.43-8.23,125.81,11.88,12.27,9,23.85,17.51,37.6,20,63.78,11.48,76,30.52,85.77,45.81,1,1.54,1.92,3,2.88,4.4,9.9,14.47,29.6,67.91,5.47,112A2.46,2.46,0,0,1,2926.45,1093Z" transform="translate(-229.12 -220.72)"/><path class="cls-22" d="M2622.59,909.37a95.83,95.83,0,0,1-14.23-1.15c-23.44-3.51-54.89-16.83-57.35-91.64a2.43,2.43,0,1,1,4.86-.16c1,30.83,7.13,53.65,18.18,67.81,8.39,10.76,19.52,16.85,35,19.17,21.69,3.25,36.07-.76,42.73-11.91A2.44,2.44,0,0,1,2656,894C2649.89,904.23,2638.68,909.37,2622.59,909.37Z" transform="translate(-229.12 -220.72)"/><polygon class="cls-16" points="1482.21 1554.56 1500.21 1554.56 1570.24 1019.26 1530.64 1019.26 1482.21 1554.56"/><polygon class="cls-16" points="2093.06 1554.56 2075.06 1554.56 2005.03 1019.26 2044.64 1019.26 2093.06 1554.56"/><path class="cls-23" d="M3028.14,1323.43c31.14,28.44,17.6,56.87-5.42,109.68s-27.08,247.81-27.08,247.81l19-2.71s-2.71-200.41,23-254.58,36.56-81.25,59.58-63.64S3028.14,1323.43,3028.14,1323.43Z" transform="translate(-229.12 -220.72)"/><path class="cls-24" d="M3011,1286.61c3.78-16.85,26.25-35.09,56.28-50.56-4.47,24.86-18.79,65.5-4,73.83,20,11.24,1.95-45.5,9.66-76.69a371.22,371.22,0,0,1,93.38-30.63,3.42,3.42,0,0,1-.13.34c-17.6,44.69-40.62,62.29-31.14,69.06,7.13,5.09,30.36-46.53,61-73,23-1.23,42.5,1.89,54,11,17.81,14.1,29.76,26.61,11.85,69.54-10.23,7.31-23.49,12.55-38.89,14.09-40.62,4.06-59.58,5.42-31.15,19,13.93,6.63,37.27-.38,56.19-4.64-6.14,11.31-13.69,24.12-22.86,38.7a143.67,143.67,0,0,1-19,24.22c-13.09,2.51-24.51,2.54-30.55,0-19-8.12-67.71-33.85-79.89-23-11.93,10.6,90.28,17.32,83.2,44.26-49.54,28.54-106.23,15-116.25-11.25C3049.33,1345.62,2999.64,1337.34,3011,1286.61Z" transform="translate(-229.12 -220.72)"/><path class="cls-23" d="M3113.45,1479.16c-54.17-40.62-109.69-2.71-138.12,40.62s-8.12,140.83-8.12,140.83,10.83,0,10.83-4.06-29.79-115.1,40.62-165.21c44.05-31.34,75.83-16.25,79.89-1.35s-17.6,42-17.6,42Z" transform="translate(-229.12 -220.72)"/><path class="cls-24" d="M2988.87,1395.65c54.17,0,71.77,84,56.87,132.71s-35.21,139.48-35.21,139.48L2997,1654.3s51.46-127.29,39.27-184.16-42-66.35-47.4-66.35S2988.87,1395.65,2988.87,1395.65Z" transform="translate(-229.12 -220.72)"/><path class="cls-23" d="M3034.3,1528.73a39.17,39.17,0,0,1,14.26-12,107.49,107.49,0,0,1-2.81,11.6c-6.79,22.21-14.7,53.13-21.3,80.22-.6-3.47-1.52-8.81-2.95-17.06-.34-2-.6-4.06-.79-6.3A526.19,526.19,0,0,0,3034.3,1528.73Z" transform="translate(-229.12 -220.72)"/><path class="cls-24" d="M3049.11,1529.14c102.91-43.33,48.69-102.79,139.42-63.53,6.39,2.77,14.18,9.74,22,19.36a67.62,67.62,0,0,1-28.75,2.31c-27.08-4.06-17.6,17.6,27.08,23a100.3,100.3,0,0,1,20.94,4.42c21.29,40.89,30.88,94.69-14.17,113.39-8.88,3.69-19.85,5.79-32.06,6.58-13.9-11,3.39-75-18-66.16-20.58,8.47,6.45,54.81,2.75,66.49-20.31-.37-42.8-3.69-64.29-9-8.5-4.77-15-11.16-17-19.56-6.77-28.44,37.92-46,39.27-70.42,1.25-22.41-16.38,49.3-63.07,59.85C3021,1576.16,3001,1549.4,3049.11,1529.14Z" transform="translate(-229.12 -220.72)"/><path class="cls-24" d="M2975.78,1452.52c10.83-23-17.6-28.44-16.25-10.83,1.2,15.6,1.33,53.52-14.67,63.84-27.59-3-65.13-14.11-93.51-31a11.52,11.52,0,0,1,1.19-7.06c12.19-24.38,90.73-44.69,66.35-52.81-19.41-6.47-53.43,31.72-80.84,51-16.46-12.49-27.49-27.38-27.49-44,0-22.5,27.33-48,62.68-60.13,15.91,1.6,30.69,10.3,53.77,23.38,34.1,19.32,26.21-11.92-6-30.46,27.83,1.44,55.58,13.33,76.05,41.74,0,0-1.94,12.14,10.92,30.93,35.06,51.25-5.4,81.16-53.77,79.22C2956.93,1492.74,2968.29,1468.43,2975.78,1452.52Z" transform="translate(-229.12 -220.72)"/><path class="cls-23" d="M3110.19,1476.86c26.48,20.46,55.9,44.39,92,60.64s28.89,69.21,28.89,69.21,5.42-45.74-24.68-61.39-50-34.31-72.83-37.92-35.51-7.22-35.51-7.22,7.22-14.45,3-19.86S3110.19,1476.86,3110.19,1476.86Z" transform="translate(-229.12 -220.72)"/><path class="cls-23" d="M3240.72,1236.56c-96.9,25.88-167.92,87.87-181.16,102.92s-13.24,19.26-13.24,19.26l10.23,19.26,4.81-2.41s-7.82-16.25,12.64-37.32c35.29-36.33,78.24-65,107.73-77.64S3240.72,1236.56,3240.72,1236.56Z" transform="translate(-229.12 -220.72)"/><path class="cls-19" d="M2973.24,1772.93h37a47.67,47.67,0,0,0,47.67-47.67V1640.2H2925.58v85.06A47.66,47.66,0,0,0,2973.24,1772.93Z" transform="translate(-229.12 -220.72)"/><rect class="cls-4" x="2696.45" y="1434.69" width="132.35" height="9.32"/><rect class="cls-4" x="2696.45" y="1451.68" width="132.35" height="5.48"/></svg>