<svg id="_лой_1" data-name="‘лой_1" xmlns="http://www.w3.org/2000/svg" viewBox="0 0 2610.68 1633.12"><defs><style>.cls-1{fill:#ebf3fa;}.cls-2{opacity:0.8;}.cls-3{fill:#d7e5ff;}.cls-4{fill:#aec3ff;}.cls-5{fill:#7599ea;}.cls-13,.cls-6{fill:#90aff4;}.cls-7,.cls-8{fill:#5888dd;}.cls-8{opacity:0.4;}.cls-13,.cls-8{isolation:isolate;}.cls-9{fill:#c2d5ff;}.cls-10{fill:#739af0;}.cls-11{fill:#607cf4;}.cls-12{fill:#e9f3fe;}.cls-13{opacity:0.5;}.cls-14{fill:#f99746;}.cls-15{fill:#f78248;}.cls-16{fill:#ffdaa4;}.cls-17{fill:#d5e5fb;}.cls-18{fill:#c6dcf7;}.cls-19{fill:#2c3a64;}.cls-20{fill:#ffb27d;}.cls-21{fill:#2f539b;}.cls-22{fill:#233862;}.cls-23{fill:#5a7de0;}.cls-24{fill:#ed985f;}.cls-25{fill:#ed7d2b;}.cls-26{fill:#163560;}.cls-27{fill:#2a4e96;}.cls-28{fill:#f4a269;}.cls-29{fill:#193b72;}.cls-30{fill:#ef8035;}.cls-31{fill:#fff;}.cls-32{fill:#0e2644;}.cls-33{fill:#1c468a;}.cls-34{fill:#fca56b;}</style></defs><path class="cls-1" d="M2676.34,1785c-149.31,0-2324.3.53-2325.56-3.36l-.21-.49a2.66,2.66,0,0,1-.21-.72c-.83-2-335.12-548.75,184.57-929.41C738.27,702.09,522.2,603.76,683.9,438c185.83-190.54,388.63,20.24,595.26-66.16,36.51-15.25,73.15-39.8,109.82-77.47a407.51,407.51,0,0,1,67.49-55.7q5.57-3.69,11.25-7.2a450.27,450.27,0,0,1,45-24.3q15.6-7.32,31.8-13.53h0a523.63,523.63,0,0,1,52.71-17.06,599.51,599.51,0,0,1,78.61-15.33q17.53-2.27,35.35-3.58C1942.12,140.38,2202,237.44,2336,379.3c27,28.57,149.75,176.38,53,379.55-61.1,128.27,194.86,250.79,285.81,397.27C2906.07,1528.52,2678.44,1780.15,2676.34,1785Z" transform="translate(-188.39 -155.65)"/><g class="cls-2"><path class="cls-3" d="M1337.74,795.72a329.46,329.46,0,0,1-5.29,59,325.64,325.64,0,0,1-51.67,125.61c-59,86.23-158.09,142.82-270.44,142.82-133.64,0-248.59-80.06-299.46-194.85a322,322,0,0,1-16.67-47.08,329.66,329.66,0,0,1-3.86-155.13c0-.26.11-.51.16-.77a328.33,328.33,0,0,1,127.8-194.77q10.1-7.32,20.77-13.88a325.69,325.69,0,0,1,171.25-48.33q12.49,0,24.74.93a325.22,325.22,0,0,1,162.16,57.64h0a328.62,328.62,0,0,1,89.8,93.78q7.52,11.88,14,24.42a326.2,326.2,0,0,1,36.64,150.64Z" transform="translate(-188.39 -155.65)"/><path class="cls-4" d="M899.1,649.16C886,669.85,904.56,705.78,865.36,696s-63.15-14.16-65.33,7.61,29.4,21.79,29.4,44.65-14.16,30.43-35.93,19.57-28-26.65-53.36-16.85-40,3.27-45.73-16.33a28.45,28.45,0,0,0-4.07-8.57c0-.26.11-.51.16-.77A328.33,328.33,0,0,1,818.3,530.52q10.1-7.32,20.77-13.88c10.21.38,22.41,4.25,32.81,17.12,22.86,28.32,38.1,14.16,32.66,46.82s3.27,37,21.77,35.93,40.29-1.09,42.46,13.07S912.16,628.47,899.1,649.16Z" transform="translate(-188.39 -155.65)"/><path class="cls-4" d="M901.38,800.36s-19.76,23-36.79,9.78S852.71,788.69,827.77,797s-35.91-5.44-48.69,4.95-2.41,11.69-11.25,33.72-27.11,25.56-13,47.56,40.39,10.68,54.23,22.31,9.32,23,26.6,27.75,33.78-12.09,34.12,8.77-6.33,41.24,15.15,60.64,17.45,23.78,39.53,33.23,48.47.93,45.12-12.34-31.8-15.94-32.37-30.92,14.57-13.73,8.51-33,10.87-29.66,5.15-42.11-38.35-16.72-34.55-29.27,33.31-1.91,34.93-28.44S935,823.84,937.59,798,904.41,784.46,901.38,800.36Z" transform="translate(-188.39 -155.65)"/><path class="cls-4" d="M1337.74,795.72a329.46,329.46,0,0,1-5.29,59,325.64,325.64,0,0,1-51.67,125.61,37.38,37.38,0,0,1-26.18-.7c-40.83-16.33-10.62-60.43,5.72-82.48s-25.31-12.25-55.53-32.66,3.27-75.13-27.76-66.14-68.59,20.41-86.56-9.8,16.33-35.11.82-60.43,9-40,40-42.46,27-24.5,65.33-27.76,37.56,45.73,80,42.46,40.55,6.53,40.55,6.53a19.9,19.9,0,0,1,8.87,1.86A328.84,328.84,0,0,1,1337.74,795.72Z" transform="translate(-188.39 -155.65)"/><path class="cls-4" d="M1301.1,645.06c-35.31,17.18-49.48-29.54-79.67-15.5-30.43,14.16-25.1-13.07-49-30.49s-71.86,14.16-69.69-13.07,38.1-19.6,45.73-41.37,42.46-16.33,42.46-16.33a23.83,23.83,0,0,1,6.34-1.44s0,0,0,0a328.62,328.62,0,0,1,89.8,93.78Q1294.58,632.52,1301.1,645.06Z" transform="translate(-188.39 -155.65)"/><path class="cls-4" d="M1003.62,551.17s18.51-26.71-10.89-34.58-28.85,2.43-51.72,0-31.85,15.26-14.7,34.58,31,56.41,46.55,36.64S985.39,553.07,1003.62,551.17Z" transform="translate(-188.39 -155.65)"/></g><path class="cls-5" d="M1404.32,1148.54l-50.15,596.27s-5.25,36.14,21.63,36.21c44.21.11,220,0,220,0s-33.27-7.52-32.87-24.45c.47-20,58.61-613.67,58.61-613.67Z" transform="translate(-188.39 -155.65)"/><path class="cls-6" d="M1612.38,1770.44c-8.69,0-178.91.31-222-.24-18.76-.23-22.05-16.68-22.21-27.33a53.11,53.11,0,0,1,.57-8.88l1.3-15.5,3.32-39.5,2.94-34.9,3.77-44.84,3.18-37.85,35.63-423.69,217.26-5.64s-24.49,248.47-41.81,429.33c-1.93,20.15-3.77,39.47-5.47,57.51q-.83,8.64-1.6,16.87c-1.61,17.11-3.07,32.83-4.35,46.7-.67,7.31-1.29,14.11-1.86,20.33-2.21,24.39-3.5,40-3.52,42.93a25.4,25.4,0,0,0,.42,4.83C1581.57,1769.58,1609.11,1770.44,1612.38,1770.44Z" transform="translate(-188.39 -155.65)"/><polygon class="cls-4" points="688.31 668.42 810.46 1159.08 827.19 1226.27 884.08 1454.81 1941.05 1454.81 1731.36 668.42 688.31 668.42"/><polygon class="cls-6" points="688.31 668.42 671.38 674.06 861.58 1471.88 884.08 1454.81 688.31 668.42"/><polygon class="cls-5" points="861.58 1471.88 1912.04 1471.88 1941.05 1454.81 884.08 1454.81 861.58 1471.88"/><rect class="cls-4" x="1230.47" y="1614.79" width="227.44" height="10.81"/><polygon class="cls-7" points="1400.09 1471.88 1398.92 1480.14 1185.02 1523.35 1187.96 1488.45 1189.35 1471.88 1400.09 1471.88"/><path class="cls-8" d="M1612.38,1770.44c-8.69,0-178.91.31-222-.24-18.76-.23-22.05-16.68-22.21-27.33l212.89-40c-2.21,24.39-3.5,40-3.52,42.93a25.4,25.4,0,0,0,.42,4.83C1581.57,1769.58,1609.11,1770.44,1612.38,1770.44Z" transform="translate(-188.39 -155.65)"/><polygon class="cls-9" points="688.31 668.42 1731.35 668.42 1900.59 1300.43 845.65 1300.43 688.31 668.42"/><polygon class="cls-10" points="1851.39 1273.04 874.79 1273.04 839.89 1134.02 826.39 1080.22 820.88 1058.29 785.01 915.42 783.15 907.98 764.2 832.46 755.71 798.67 748.48 769.84 731.51 702.27 1694.04 702.27 1712.67 769.84 1720.61 798.67 1729.93 832.46 1791.3 1055.07 1791.3 1055.08 1796.5 1073.94 1798.92 1082.7 1841.29 1236.38 1851.39 1273.04"/><polygon class="cls-11" points="1712.67 769.85 748.48 769.85 731.52 702.27 1694.05 702.27 1712.67 769.85"/><path class="cls-12" d="M959.73,888.46c-1.16-4.67,1.68-8.45,6.34-8.45a11.52,11.52,0,0,1,10.55,8.45c1.16,4.67-1.68,8.45-6.34,8.45A11.53,11.53,0,0,1,959.73,888.46Z" transform="translate(-188.39 -155.65)"/><path class="cls-12" d="M987.79,888.46c-1.16-4.67,1.68-8.45,6.34-8.45a11.52,11.52,0,0,1,10.55,8.45c1.16,4.67-1.68,8.45-6.34,8.45A11.54,11.54,0,0,1,987.79,888.46Z" transform="translate(-188.39 -155.65)"/><path class="cls-12" d="M1018,888.46c-1.16-4.67,1.68-8.45,6.34-8.45a11.52,11.52,0,0,1,10.55,8.45c1.16,4.67-1.68,8.45-6.34,8.45A11.53,11.53,0,0,1,1018,888.46Z" transform="translate(-188.39 -155.65)"/><polygon class="cls-13" points="1241.93 1300.43 884.44 1456.65 845.65 1300.43 1241.93 1300.43"/><path class="cls-14" d="M1119.47,660.36c-17.23,6.45-28.35,21.35-28.35,37.77v364.49c0,74.57,35.4,144.41,94.74,186.92L1400,1386.76a45.26,45.26,0,0,0,47.87,0L1662,1249.54c59.34-42.51,94.74-112.35,94.74-186.92V699.1c0-16.91-11.82-32.13-29.76-38.28-260.11-89-364.37-91.42-607.47-.46Z" transform="translate(-188.39 -155.65)"/><path class="cls-15" d="M1726.94,660.82c-126.61-43.35-216.29-66.09-303-67.59V1393.6a44.51,44.51,0,0,0,23.93-6.85L1662,1249.53c59.34-42.51,94.74-112.35,94.74-186.92V699.09c0-16.9-11.82-32.12-29.75-38.27Z" transform="translate(-188.39 -155.65)"/><path class="cls-16" d="M1445.71,935.33H1397a79.3,79.3,0,0,1-79.21-79.21v-9.47A79.3,79.3,0,0,1,1397,767.43h48.7a79.31,79.31,0,0,1,79.22,79.22v9.47A79.31,79.31,0,0,1,1445.71,935.33ZM1397,799.11a47.58,47.58,0,0,0-47.53,47.54v9.47A47.58,47.58,0,0,0,1397,903.65h48.7a47.58,47.58,0,0,0,47.54-47.53v-9.47a47.59,47.59,0,0,0-47.54-47.54Z" transform="translate(-188.39 -155.65)"/><path class="cls-16" d="M1466.31,1156.57h-76.92a130.3,130.3,0,0,1-130.3-130.3V899.14A29.14,29.14,0,0,1,1288.23,870h263.15a37.33,37.33,0,0,1,37.33,37.33v126.83A122.39,122.39,0,0,1,1466.31,1156.57Z" transform="translate(-188.39 -155.65)"/><circle class="cls-15" cx="1235.47" cy="800.32" r="42.98"/><path class="cls-15" d="M1423.91,976.05h0a9.34,9.34,0,0,1,9.31,9.31V1057a9.34,9.34,0,0,1-9.31,9.31h0a9.34,9.34,0,0,1-9.31-9.31V985.37A9.33,9.33,0,0,1,1423.91,976.05Z" transform="translate(-188.39 -155.65)"/><path class="cls-4" d="M1912.59,441.59c-4.72,1.76-7.76,5.84-7.76,10.34v99.76a62.89,62.89,0,0,0,25.93,51.16l58.6,37.56a12.38,12.38,0,0,0,13.1,0l58.6-37.56A62.89,62.89,0,0,0,2087,551.69V452.2c0-4.63-3.24-8.79-8.14-10.48-71.18-24.38-99.72-25-166.26-.13Z" transform="translate(-188.39 -155.65)"/><path class="cls-8" d="M2078.85,441.72c-34.65-11.86-59.2-18.09-82.94-18.5V642.28a12.18,12.18,0,0,0,6.55-1.87l58.6-37.56A62.89,62.89,0,0,0,2087,551.69v-99.5c0-4.63-3.23-8.79-8.14-10.47Z" transform="translate(-188.39 -155.65)"/><polygon class="cls-14" points="1817.75 161.89 1840.76 164.92 1824.36 181.34 1828.6 204.16 1807.91 193.64 1787.52 204.72 1791.13 181.79 1774.29 165.82 1797.21 162.17 1807.2 141.22 1817.75 161.89"/><polygon class="cls-14" points="1817.75 558.37 1840.76 561.4 1824.36 577.82 1828.6 600.64 1807.91 590.12 1787.52 601.2 1791.13 578.27 1774.29 562.3 1797.21 558.65 1807.2 537.7 1817.75 558.37"/><polygon class="cls-14" points="1648.31 259.25 1671.32 262.28 1654.93 278.7 1659.16 301.52 1638.47 291 1618.08 302.08 1621.69 279.15 1604.86 263.18 1627.78 259.53 1637.76 238.58 1648.31 259.25"/><polygon class="cls-14" points="1989.53 259.25 2012.54 262.28 1996.15 278.7 2000.38 301.52 1979.69 291 1959.3 302.08 1962.91 279.15 1946.08 263.18 1968.99 259.53 1978.98 238.58 1989.53 259.25"/><polygon class="cls-14" points="1648.31 462.19 1671.32 465.21 1654.93 481.63 1659.16 504.45 1638.47 493.93 1618.08 505.01 1621.69 482.08 1604.86 466.11 1627.78 462.46 1637.76 441.52 1648.31 462.19"/><polygon class="cls-14" points="1989.53 462.19 2012.54 465.21 1996.15 481.63 2000.38 504.45 1979.69 493.93 1959.3 505.01 1962.91 482.08 1946.08 466.11 1968.99 462.46 1978.98 441.52 1989.53 462.19"/><polygon class="cls-14" points="1721.77 188.09 1744.78 191.12 1728.38 207.54 1732.61 230.35 1711.93 219.84 1691.54 230.91 1695.15 207.99 1678.31 192.02 1701.23 188.37 1711.22 167.42 1721.77 188.09"/><polygon class="cls-14" points="1918.74 188.09 1941.74 191.12 1925.35 207.54 1929.58 230.35 1908.9 219.84 1888.5 230.91 1892.12 207.99 1875.28 192.02 1898.2 188.37 1908.18 167.42 1918.74 188.09"/><polygon class="cls-14" points="1721.77 532.89 1744.78 535.92 1728.38 552.34 1732.61 575.16 1711.93 564.64 1691.54 575.72 1695.15 552.79 1678.31 536.82 1701.23 533.17 1711.22 512.22 1721.77 532.89"/><polygon class="cls-14" points="1918.74 532.89 1941.74 535.92 1925.35 552.34 1929.58 575.16 1908.9 564.64 1888.5 575.72 1892.12 552.79 1875.28 536.82 1898.2 533.17 1908.18 512.22 1918.74 532.89"/><polygon class="cls-14" points="1621.2 366 1644.21 369.02 1627.82 385.45 1632.05 408.26 1611.36 397.74 1590.97 408.82 1594.58 385.9 1577.75 369.93 1600.66 366.28 1610.65 345.33 1621.2 366"/><polygon class="cls-14" points="2022.77 366 2045.78 369.02 2029.38 385.45 2033.61 408.26 2012.93 397.74 1992.53 408.82 1996.15 385.9 1979.31 369.93 2002.23 366.28 2012.21 345.33 2022.77 366"/><path class="cls-17" d="M573.52,1075.89a2.18,2.18,0,1,1-3.08,0A2.18,2.18,0,0,1,573.52,1075.89Z" transform="translate(-188.39 -155.65)"/><path class="cls-17" d="M566.44,1083a2.17,2.17,0,1,1-3.07,0A2.18,2.18,0,0,1,566.44,1083Z" transform="translate(-188.39 -155.65)"/><path class="cls-17" d="M556.19,1090.29a2.17,2.17,0,1,1,0,3.08A2.17,2.17,0,0,1,556.19,1090.29Z" transform="translate(-188.39 -155.65)"/><path class="cls-17" d="M552.09,1097.52a2.18,2.18,0,1,1-3.08,0A2.18,2.18,0,0,1,552.09,1097.52Z" transform="translate(-188.39 -155.65)"/><path class="cls-17" d="M545,1104.67a2.17,2.17,0,1,1-3.07,0A2.18,2.18,0,0,1,545,1104.67Z" transform="translate(-188.39 -155.65)"/><path class="cls-17" d="M534.76,1111.92a2.17,2.17,0,1,1,0,3.08A2.17,2.17,0,0,1,534.76,1111.92Z" transform="translate(-188.39 -155.65)"/><path class="cls-17" d="M530.94,1118.86a2.18,2.18,0,1,1-3.08,0A2.18,2.18,0,0,1,530.94,1118.86Z" transform="translate(-188.39 -155.65)"/><path class="cls-17" d="M523.86,1126a2.17,2.17,0,1,1-3.07,0A2.18,2.18,0,0,1,523.86,1126Z" transform="translate(-188.39 -155.65)"/><path class="cls-17" d="M513.61,1133.26a2.17,2.17,0,1,1,0,3.08A2.2,2.2,0,0,1,513.61,1133.26Z" transform="translate(-188.39 -155.65)"/><path class="cls-17" d="M509.51,1140.49a2.18,2.18,0,1,1-3.08,0A2.18,2.18,0,0,1,509.51,1140.49Z" transform="translate(-188.39 -155.65)"/><path class="cls-17" d="M502.43,1147.64a2.17,2.17,0,1,1-3.07,0A2.17,2.17,0,0,1,502.43,1147.64Z" transform="translate(-188.39 -155.65)"/><path class="cls-17" d="M492.18,1154.9a2.17,2.17,0,1,1,0,3.08A2.2,2.2,0,0,1,492.18,1154.9Z" transform="translate(-188.39 -155.65)"/><circle class="cls-18" cx="624.63" cy="1027.86" r="47.42" transform="matrix(0.16, -0.99, 0.99, 0.16, -679.5, 1321.4)"/><path class="cls-1" d="M609.39,1008.82A15.22,15.22,0,1,1,624.61,1024,15.21,15.21,0,0,1,609.39,1008.82Z" transform="translate(-188.39 -155.65)"/><path class="cls-1" d="M624.61,1024A26.63,26.63,0,0,0,598,1050.67h53.27A26.64,26.64,0,0,0,624.61,1024Z" transform="translate(-188.39 -155.65)"/><path class="cls-18" d="M452.93,1174.17l-1.76-4.35a12.33,12.33,0,0,0-11.44-7.72H407.31v108.38H541.4v-87.81H465.52A13.59,13.59,0,0,1,452.93,1174.17Z" transform="translate(-188.39 -155.65)"/><path class="cls-1" d="M494.42,1211.58h-4.48a12.78,12.78,0,0,0,.2-2.24v-1.53A12.83,12.83,0,0,0,477.33,1195h-7.88a12.83,12.83,0,0,0-12.81,12.81v1.53a12.78,12.78,0,0,0,.2,2.24h-5a4.71,4.71,0,0,0-4.71,4.72v20.56a21.07,21.07,0,0,0,21.07,21.07h12.44a19.79,19.79,0,0,0,19.8-19.8v-20.51A6,6,0,0,0,494.42,1211.58Zm-19.11,20.7v9.55a1.51,1.51,0,0,1-3,0v-9.55a7,7,0,1,1,3,0Zm9.71-22.94a7.88,7.88,0,0,1-.33,2.24H462.1a7.55,7.55,0,0,1-.34-2.24v-1.53a7.7,7.7,0,0,1,7.69-7.69h7.88a7.7,7.7,0,0,1,7.69,7.69v1.53Z" transform="translate(-188.39 -155.65)"/><path class="cls-19" d="M845.85,1165.75s2.53-27.59-28.3-27.59c0,0,9.34,2.53,14.18,7.6,0,0-19.66-11.54-41.06,6.2s-8.1,62.23-14.61,70.67-31.85,10.14-28.75,37.45,80.43,61.52,75.46,84.12c0,0,30.3-44.55,8.63-64.88,0,0,10.56,10,11.64,21.78,0,0,2.87-23.09-11.83-30.47-13-6.54-23.65-30.44-22.53-34.71S845.85,1165.75,845.85,1165.75Z" transform="translate(-188.39 -155.65)"/><path class="cls-20" d="M815.49,1298.23s23,95.29,45.64,114.34c13.59,11.45,54,37.73,54,37.73l-16.81,6.1s-56.05-18.93-68.6-33.68-46.9-88.68-46.9-88.68Z" transform="translate(-188.39 -155.65)"/><path class="cls-14" d="M948.48,1485.12l-5.41-13.4a38,38,0,0,0-35.25-23.78H808V1781.8H1221V1511.3H987.28A41.85,41.85,0,0,1,948.48,1485.12Z" transform="translate(-188.39 -155.65)"/><path class="cls-21" d="M599,1465.64l.63,1.12c5,8.76,16.6,30.23,29.34,53.72,6,11.15,12.33,22.75,18.31,33.66,10.31,18.84,19.69,35.62,25.16,44.49s9.66,15.35,11.32,17.88h0a4.16,4.16,0,0,1,.54,2.61,136.77,136.77,0,0,0,.36,23.62c7.68,76.43,59.22,117.38,59.22,117.38l15.32,2.26s-21.68-80.33-28.07-125.75c-1.08-7.7-1.55-13.94-1.17-18,1.13-11.83-1-29.2-5-49.15-7.08-35.44-20-79-31.33-113.77-.71-2.22-22.26-80.17-22.26-80.17-18.09,15.81-84.05,22.33-84.05,22.33S576.21,1425.09,599,1465.64Z" transform="translate(-188.39 -155.65)"/><path class="cls-22" d="M791.4,1781.8H727.45s-1.53-9.75,1.81-17.14c3.2-7.1,7.76-7.32.58-18.44,4.06,4.18,17.13,5.92,26.37,4.67,1.13,1.84,7.3,14.16,11.09,16.88C771.48,1770.76,790.11,1769.69,791.4,1781.8Z" transform="translate(-188.39 -155.65)"/><path class="cls-22" d="M599,1465.64l.63,1.12c5,8.76,32.3,59.11,45,82.6-14.76-60.71-4.49-121.42-4.49-121.42Z" transform="translate(-188.39 -155.65)"/><path class="cls-19" d="M837.12,1161.87c.42-1.68-36.53,16.7-38.4,18.77-17.33,19.22-12.39,44.3-2.47,44.54,6.36.16,5.13,10.73,5.13,10.73l70.83-30S863.69,1156.21,837.12,1161.87Z" transform="translate(-188.39 -155.65)"/><path class="cls-10" d="M813.32,1283.92s10.78,21.53,9.43,39c0,0-13,20.52-46.71,25.71C776.05,1348.64,805,1283.91,813.32,1283.92Z" transform="translate(-188.39 -155.65)"/><path class="cls-21" d="M648.87,1402.66l.22-12c-23.83,3-82.17-28.48-82.17-28.48s-24.93,16.58-28.34,63.94c-1.67,23.11-12.2,120.86-13.37,150-.43,10.58-.57,18.13-.61,21.15,0,0,0,0,0,0a4.17,4.17,0,0,1-1,2.46,136.75,136.75,0,0,0-12.91,19.79c-36.36,67.66-17.35,159.59-17.35,159.59l8.44-2.15s30.75-95.3,50.84-136.53c3.41-7,6.51-12.43,9.1-15.58,7.56-9.18,15.52-24.76,23.38-43.52C599.93,1546,648.87,1402.66,648.87,1402.66Z" transform="translate(-188.39 -155.65)"/><path class="cls-22" d="M544.18,1781.8H480.23s-1.53-9.75,1.81-17.14c3.2-7.1,8.21-10.32,7-18.91,4.06,4.18,10.69,8.87,19.93,7.63,1.13,1.84,7.31,11.67,11.1,14.38C524.25,1770.76,542.89,1769.69,544.18,1781.8Z" transform="translate(-188.39 -155.65)"/><path class="cls-10" d="M771.73,1362.38c-8.59,1.46,1.4,8.29-10.41,9.58-16.82,1.84-34.18,3.09-43.27,6.72-3.32,1.32-5.54,3-6.23,5-3.94,11.85-28.91,32.22-28.91,32.22-111.36-5.07-118.53-54.7-118.53-54.7,72.27-70.19,133.76-108.45,184.57-113.19,12.37-1.15,29,.4,36.86,3.88,17.77,7.91,27.51,32,27.51,32S804.37,1356.81,771.73,1362.38Z" transform="translate(-188.39 -155.65)"/><path class="cls-23" d="M761.32,1372c-16.82,1.84-34.18,3.09-43.27,6.72-3.72-55.54,22.49-97.31,22.49-97.31S757.63,1350.94,761.32,1372Z" transform="translate(-188.39 -155.65)"/><path class="cls-20" d="M775.83,1272s-42.29-2.31-49.8,24.24,14.1,132.52,18.75,143.46c8.48,19.91,51.23,79.22,51.23,79.22l13.7-7.1S782.19,1425,776,1416.37C766.4,1402.88,788.48,1283.51,775.83,1272Z" transform="translate(-188.39 -155.65)"/><path class="cls-20" d="M809.71,1511.78a62.47,62.47,0,0,1,6.38,6.55c2.84,3.48.34,4.73,8.51,20.47,0,0-.42,2.19-2.19,1.79s-7.94-6.5-11.1-6.06c0,0-2.26,1.86-2.51,8-.23,5.77-.25,18.53-1.25,20.93s-8.34-10-12-19c-3.17-7.89-.08-34.5-.08-34.5Z" transform="translate(-188.39 -155.65)"/><path class="cls-10" d="M717.68,1331.7c.11.62,40,7.34,65-5.33,0,0,20.85-65.33-8.95-62.2s-47.44,12.51-48.2,26.78S717.68,1331.7,717.68,1331.7Z" transform="translate(-188.39 -155.65)"/><path class="cls-20" d="M784.86,1256.51c.43,5.29,1.11,11.48,8,18.6,5.3,5.46,13,9.72,18.34,4.34,2.74-2.74,6.45-6.83,8.32-10,4.65-8,10.19-16.16,10.19-16.16l-23.93-21-1.43-1.25a60.87,60.87,0,0,1-17.83,20.23C784.91,1252.46,784.69,1254.48,784.86,1256.51Z" transform="translate(-188.39 -155.65)"/><path class="cls-24" d="M829.73,1253.25s-5.53,8.15-10.18,16.15c-14.88-9.17-14.89-27.59-13.75-37.13Z" transform="translate(-188.39 -155.65)"/><path class="cls-20" d="M830.4,1263.75s-36.12-20.1-23.26-42.4,16.86-39.92,40.47-28,23.14,23,20.66,31.45S840.12,1268.41,830.4,1263.75Z" transform="translate(-188.39 -155.65)"/><path class="cls-19" d="M874.37,1211.77c-1.65-9.9-6.68-10.85-10.19-10.19-13.34-22.06-35.13-13.45-35.13-13.45a49.16,49.16,0,0,1-28.47,17.1s4.19,7.8,21.46,12.63c5.28,1.47,11.26.58,17-1.36a96.43,96.43,0,0,1-24.51,9.24c22.76,2.08,44.41-18.72,46.66-21,1,3.22,2.89,10,1.79,14.91-1.5,6.71-7.45,18.85-3.82,20.43C859.19,1240.12,876.85,1226.62,874.37,1211.77Z" transform="translate(-188.39 -155.65)"/><path class="cls-20" d="M921.75,1450.34s-10.08,7.56-2.48,12.5,21.16,6.28,21.21,3C940.67,1455,935.24,1447.25,921.75,1450.34Z" transform="translate(-188.39 -155.65)"/><path class="cls-16" d="M1074,1599.93h-13a36.83,36.83,0,0,0,.59-6.51V1589a37.25,37.25,0,0,0-37.21-37.21h-22.87a37.24,37.24,0,0,0-37.2,37.21v4.45a36.83,36.83,0,0,0,.58,6.51H950.37a13.69,13.69,0,0,0-13.69,13.7v59.72a61.2,61.2,0,0,0,61.2,61.2H1034a57.5,57.5,0,0,0,57.5-57.5v-59.57A17.54,17.54,0,0,0,1074,1599.93Zm-55.51,60.1v27.74a4.38,4.38,0,0,1-8.76,0V1660a20.19,20.19,0,1,1,8.76,0Zm28.19-66.61a22.25,22.25,0,0,1-1,6.51H980.09a22.25,22.25,0,0,1-1-6.51V1589a22.35,22.35,0,0,1,22.33-22.33h22.87a22.35,22.35,0,0,1,22.33,22.33v4.45Z" transform="translate(-188.39 -155.65)"/><path class="cls-14" d="M2602.45,1782.39H2101.07c-69.9-80.33-67-178.13,28.37-266.94,17.12-15.94,47-33.1,71.14-38.86,44.48-10.61,94.92-13,95.31-13.26.15-.06,56.07-7.84,72-27.25,49.55-60.26,62.29-68.89,62.29-68.89,50.51-9.87,93.59-12.77,125.53,5.09v0c29.59,16.57,49.62,51,57.12,114.2q2.13,17.92,2.9,39c1.83,51.31,11.9,97,17.88,135.6a0,0,0,0,1,0,0C2642.31,1717.12,2648.43,1759.69,2602.45,1782.39Z" transform="translate(-188.39 -155.65)"/><path class="cls-25" d="M2530.71,1436.38c-30.65,16.69-34,71.69-82,85.89s-129.39,12.91-175.58,63c-44.56,48.34-93.7-74.64-72.54-109.23,44.48-10.56,94.92-13,95.31-13.21.15-.06,68.41-.33,84.36-19.65,49.55-60,49.95-76,49.95-76,50.51-9.83,93.59-12.71,125.53,5.06v0C2590.93,1408.59,2561.35,1419.69,2530.71,1436.38Z" transform="translate(-188.39 -155.65)"/><path class="cls-25" d="M2633.63,1659.74c-70.34-87.8-214.84,31.89-252.23,28.52-34.38-3.11,67-123.11,192.81-141,50.84-7.22,38.66-59.76,38.64-61.38,1.42,11.9,2.4,24.83,2.9,38.86C2617.59,1575.84,2627.65,1621.27,2633.63,1659.74Z" transform="translate(-188.39 -155.65)"/><path class="cls-20" d="M2241.34,1707.54c-4.92,9.48-6,26.92-7.49,32.84s-27.24,26-29.45,25c-5.64-2.54-.25-12.37,3.19-19.55.14-.29.27-.58.41-.86,3.4-7.24.48-23.39,2.23-31.73s-6.7-30.8-6.7-30.8l14.24-18s10,19,17.17,22.51a18.15,18.15,0,0,1,3.49,2.22C2243.28,1693.2,2245.38,1699.74,2241.34,1707.54Z" transform="translate(-188.39 -155.65)"/><path class="cls-26" d="M2432.18,1229.16a60.3,60.3,0,0,0-36.49,16.85c-6.29,6-13.27,14.27-17.58,24.11-9.39,21.44-6.16,46.38-11.53,60.07s-8.59,16.07,0,22.27,10,12.1-.24,18.67-17.85,27,10.8,28.82,84.18-8.62,91.32-13.92,26.64-13.17,36-27.35c18.69-28.33,3.8-47.37-10.63-52.17C2471.83,1299.21,2479.91,1225.16,2432.18,1229.16Z" transform="translate(-188.39 -155.65)"/><path class="cls-10" d="M2394.57,1347.85s-28.4,64.12-34.32,69.7-33.63,16.47-31.14,25.81,23.35,18.37,32.07,16.19S2392,1419.7,2392,1419.7Z" transform="translate(-188.39 -155.65)"/><path class="cls-23" d="M2331.42,1449s1.54-11,28.45-14.59c14.94-2,39.93-43.64,39.93-43.64l-25,65.69-24.22,10.47Z" transform="translate(-188.39 -155.65)"/><path class="cls-22" d="M2342.36,1469.7s-140.19-9.81-159.4,12.44c-15.24,17.65,12.51,210.51,12.51,210.51s38.15,1.11,41.15-9c0,0-7.12-93.63-1.16-109.82s2.19-38.6,2.19-38.6,74.64,11.18,98.32,5.51S2342.36,1469.7,2342.36,1469.7Z" transform="translate(-188.39 -155.65)"/><path class="cls-20" d="M2191.28,1763.09c-9.87,4.07-22,16.68-26.9,20.26s-37.6,2.3-38.64.11c-2.77-5.8,8.65-9.93,15.91-13.27l.32-.15,0,0c7.18-3.61,15.21-17.48,21.84-22.64s14.75-27.85,14.75-27.85l22.48-4.56s-4.63,21-1.4,28.27a18.68,18.68,0,0,1,.77,2.08C2202.5,1752.07,2200.23,1759.4,2191.28,1763.09Z" transform="translate(-188.39 -155.65)"/><path class="cls-27" d="M2404,1476.54s-153,15.54-166.4,31.15-66.29,218.62-66.29,218.62,15.61,8.7,29.8.57c0,0,40.47-68.87,58.38-90.49s24.27-78.09,33.82-84.16c2.56-1.63,92.55,8.49,125.56-16.84S2404,1476.54,2404,1476.54Z" transform="translate(-188.39 -155.65)"/><path class="cls-10" d="M2470.67,1476.82a175.53,175.53,0,0,1-12.77,21c-11.45,16-24.71,27.44-39.07,30.42-20.87,4.33-90.82-36.27-87.28-58.67,1.92-12.19,40.8-34.1,47.07-43s10-53.18,13.38-71.28c2.49-13.47,10.84-14.87,21.28-18.45,44.33-15.19,75.89.88,75.89.88C2509.46,1349.17,2498.18,1424.2,2470.67,1476.82Z" transform="translate(-188.39 -155.65)"/><path class="cls-26" d="M2468.54,1291.61a193,193,0,0,0,3.33-22.48c.68-8.29-11.91-35.31-31.46-34.19a41.42,41.42,0,0,0-16.5,8.08c-6.17,5.07-14.79,15.58-1.66,41l3.6,8.65Z" transform="translate(-188.39 -155.65)"/><path class="cls-20" d="M2428.91,1335.28c.64,4.63,4.76,7.27,13.94,6.68s22.49-6.23,21.4-10.53c-1-3.76-5.11-12.58-6.79-35l-1.69.47-28.41,8s1.37,9,2.06,17.59C2430,1329.65,2428.59,1332.93,2428.91,1335.28Z" transform="translate(-188.39 -155.65)"/><path class="cls-28" d="M2427.36,1304.88s1.37,9,2.06,17.59c16.12-1.72,23.49-17.13,26.35-25.57Z" transform="translate(-188.39 -155.65)"/><path class="cls-20" d="M2426.75,1318s37.18-9.35,31-32.41-5.54-39.8-29.54-34.81-26.23,15-26,23.22S2416.92,1319.85,2426.75,1318Z" transform="translate(-188.39 -155.65)"/><path class="cls-26" d="M2411.2,1254.77s12.48,23.79,36,26.35c13.78,1.5,17.56,10.58,17.56,10.58s-4.13-26-11.06-41.84C2453.73,1249.86,2415.38,1239.84,2411.2,1254.77Z" transform="translate(-188.39 -155.65)"/><path class="cls-26" d="M2415.46,1257.92s-8.14,8.31-10.65,14.16c-3.72,8.67,3.53,27,6.53,30.89,0,0-17.3-29.35-11.52-42.06C2406,1247.43,2415.46,1257.92,2415.46,1257.92Z" transform="translate(-188.39 -155.65)"/><path class="cls-20" d="M2302.07,1472s-7.4,7.84-8.3,8.26c-4.9,2.29-11.08,1-14.07,1.71s-2.47-1.11-.27-2.62,7.63-.92,5.41-1.47-14.18-2.78-18.69-1.58c-7.13,1.91-12.76-.33-13.21-1.06s16.29-8.91,21.07-8.63,18.53-.38,18.53-.38Z" transform="translate(-188.39 -155.65)"/><path class="cls-20" d="M2501.75,1352.22s4.45,109-8.37,124.33c-12.43,14.82-65.52,4.76-88.46-.22a6.44,6.44,0,0,0-5.12,1.48c-1.79,1.61-2.57-10.91-2.57-10.91s69.25-10.13,73.9-11.45c6.69-1.89,2-77,2-77Z" transform="translate(-188.39 -155.65)"/><path class="cls-20" d="M2402.63,1474.86s-6.21,6.29-8.57,9.5-18.86,9-19.23,7.31,7.38-7,8.09-8.91,9.16-11.76,14.31-12.88S2402.63,1474.86,2402.63,1474.86Z" transform="translate(-188.39 -155.65)"/><path class="cls-20" d="M2397.22,1466.89s-25.44,5.88-29.76,7.65-13.48,14.73-9.84,16.67c2.29,1.23,12.33-4.07,17.43-5.18s19.54,1.4,26.15-11.65C2401.94,1472.91,2397.22,1466.89,2397.22,1466.89Z" transform="translate(-188.39 -155.65)"/><path class="cls-27" d="M2191.28,1763.09c-9.87,4.07-22,16.68-26.9,20.26s-37.6,2.3-38.64.11c-2.77-5.8,8.65-9.93,15.91-13.27l.32-.15,0,0,1-.33s14.09,5,25.8,0c9.14-3.92,22.69-18.46,31.62-24.37C2202.5,1752.07,2200.23,1759.4,2191.28,1763.09Z" transform="translate(-188.39 -155.65)"/><path class="cls-29" d="M2241.34,1707.54c-4.92,9.48-6,26.92-7.49,32.84s-27.24,26-29.45,25c-5.64-2.54-.25-12.37,3.19-19.55a16,16,0,0,0,7.87-2.93c6.44-4.29,17.37-20.49,18.35-30.06.8-7.79.3-19,4.62-23.66C2243.28,1693.2,2245.38,1699.74,2241.34,1707.54Z" transform="translate(-188.39 -155.65)"/><polygon class="cls-30" points="2176.03 1338.85 2065.2 1338.85 2031.86 1255.94 2142.52 1255.94 2176.03 1338.85"/><polygon class="cls-25" points="2063.9 1335.61 2210.25 1335.61 2210.25 1338.85 2065.2 1338.85 2063.9 1335.61"/><path class="cls-31" d="M2281.56,1453c-.83-2.92.85-5.28,3.76-5.28a7.57,7.57,0,0,1,6.79,5.28c.84,2.91-.85,5.28-3.76,5.28A7.57,7.57,0,0,1,2281.56,1453Z" transform="translate(-188.39 -155.65)"/><path class="cls-23" d="M2470.67,1476.82a175.53,175.53,0,0,1-12.77,21c-35.52-1.33-44.09-15.68-44.09-15.68Z" transform="translate(-188.39 -155.65)"/><path class="cls-23" d="M2415.48,1463.25s40.55-9.31,45.59-18,12.09-66.77,12.09-66.77l16.92,21.69-3.42,51s-19.3,19.1-20.55,18.4S2415.48,1463.25,2415.48,1463.25Z" transform="translate(-188.39 -155.65)"/><path class="cls-10" d="M2489.18,1337.76s9.61,4.83,13.32,11.61c7.05,12.88,14.58,112.69-5.46,129.18s-78.18,13.2-85,1.53c0,0-.48-10.95,3.45-16.83,0,0,52.34-6.92,54.68-10.21s-1.69-74,.78-80.43S2489.18,1337.76,2489.18,1337.76Z" transform="translate(-188.39 -155.65)"/><path class="cls-14" d="M2497.88,1477.46s-15.11,14.16-78.33,16.19c-49.44,1.59-101.51,21.52-125.84,55.75-6.78,9.55-11.47,25.27-13.27,35.86-3.3,19.46,120,49.71,122,46.89s81.21-70.89,81.21-70.89Z" transform="translate(-188.39 -155.65)"/><path class="cls-25" d="M1926.18,1087.08s61.49,63.75,64.39,87.74-29.45,61.45-29.45,61.45Z" transform="translate(-188.39 -155.65)"/><path class="cls-32" d="M1898.4,1747.76s-2.17,33.81-8.71,34.29c-.87.06-33.19,0-33.19,0l-41.25-.33s.29-9.94,12.35-12,32.26-10.51,39.6-26.43C1874.93,1726.52,1898.4,1747.76,1898.4,1747.76Z" transform="translate(-188.39 -155.65)"/><path class="cls-32" d="M1990.28,1748s-2.17,33.82-8.71,34.29c-.87.06-33.19,0-33.19,0l-41.25-.33s.29-9.94,12.35-12,32.26-10.5,39.6-26.43C1966.81,1726.72,1990.28,1748,1990.28,1748Z" transform="translate(-188.39 -155.65)"/><path class="cls-26" d="M1853.5,1384.2s10.64,69,50.62,191.61,45.35,175.63,45.35,175.63l43.18-1.12s.66-133.87-17.75-195.5-3.52-222.07-3.52-222.07Z" transform="translate(-188.39 -155.65)"/><path class="cls-33" d="M1832.6,1336.22s-1.75,104,16,231.69,11.5,181.89,11.5,181.89l43.09,1.53s26-127.67,18.78-191.58,35.74-219.21,35.74-219.21Z" transform="translate(-188.39 -155.65)"/><path class="cls-20" d="M1916.54,1093.07l-23,15-33.17-6.26c.46-2.68,2.68-13.77,4.7-23.82.12-.59.24-1.19.36-1.77l3.22-15.9,31-13.61,11.57-5.07c0,.18-.92,9.49-1,10.85C1908,1076.65,1916.54,1093.07,1916.54,1093.07Z" transform="translate(-188.39 -155.65)"/><path class="cls-25" d="M1868.92,1085.37c.64-.27,40-11.79,44.25-10.37s6.78,9.69,6.78,9.69l-64.33,14.4S1860.69,1088.81,1868.92,1085.37Z" transform="translate(-188.39 -155.65)"/><path class="cls-14" d="M1974.2,1349.37c-6.73,30.38-117.64,33.75-146.16,6.09-3.25-3.15-3.37-17.79-2.1-37.51,2.48-38.54,10.31-96.51,10.68-126.13a234.46,234.46,0,0,1,4.82-42.21,342.15,342.15,0,0,1,14.18-50.51s54.2-17.39,64.33-14.39C1968.74,1099.15,1980.93,1319,1974.2,1349.37Z" transform="translate(-188.39 -155.65)"/><path class="cls-25" d="M1825.94,1318c2.48-38.54,10.31-96.51,10.68-126.13a234.46,234.46,0,0,1,4.82-42.21l32.6-5.68S1905.61,1274.11,1825.94,1318Z" transform="translate(-188.39 -155.65)"/><path class="cls-20" d="M1843.7,1264.26s2.21,5.31-2.46,8.87-7.71,9.32-6.65,13.54,11.28,11.13,14.83,10,10.78-6.65,10-8.87,4.9-19.52-3.73-26.21S1843.7,1264.26,1843.7,1264.26Z" transform="translate(-188.39 -155.65)"/><path class="cls-14" d="M1880.51,1091.34s-31.79,5.88-57.19,43.14-42.12,65-37.49,78.42,47.05,60.19,54.38,60.21,19.17-5.29,19.86-17.28c0,0-29.84-44.93-23.92-51.64,2.53-2.87,38.93-32.29,44.09-19C1888.78,1207.31,1880.51,1091.34,1880.51,1091.34Z" transform="translate(-188.39 -155.65)"/><path class="cls-34" d="M1907.87,1052.92c-6.83,11.51-32.21,21.43-42.79,25.07.12-.59.24-1.19.36-1.77l3.22-15.9,31-13.61C1906.52,1046.64,1910.69,1048.19,1907.87,1052.92Z" transform="translate(-188.39 -155.65)"/><path class="cls-20" d="M1857,1058.42s49.88,15.68,59.17-15.54,22-50.21-9.48-61.55-41.22-1.27-46.85,8.4S1844.24,1053.54,1857,1058.42Z" transform="translate(-188.39 -155.65)"/><path class="cls-26" d="M1861.79,986.73s3.1,36.36,10.62,34.79,14.34-2.72,13.22,8.24-11.58,23.58,11.59,25.57,56.6-57.68,50.26-69C1929.18,953.64,1835.33,946.85,1861.79,986.73Z" transform="translate(-188.39 -155.65)"/><path class="cls-17" d="M2264.28,892.32a2.37,2.37,0,1,0,3.35,0A2.37,2.37,0,0,0,2264.28,892.32Z" transform="translate(-188.39 -155.65)"/><path class="cls-17" d="M2272,900.11a2.37,2.37,0,1,0,3.35,0A2.37,2.37,0,0,0,2272,900.11Z" transform="translate(-188.39 -155.65)"/><path class="cls-17" d="M2283.15,908a2.37,2.37,0,1,0,0,3.35A2.37,2.37,0,0,0,2283.15,908Z" transform="translate(-188.39 -155.65)"/><path class="cls-17" d="M2287.61,915.87a2.37,2.37,0,1,0,3.35,0A2.37,2.37,0,0,0,2287.61,915.87Z" transform="translate(-188.39 -155.65)"/><path class="cls-17" d="M2295.32,923.66a2.37,2.37,0,1,0,3.35,0A2.37,2.37,0,0,0,2295.32,923.66Z" transform="translate(-188.39 -155.65)"/><path class="cls-17" d="M2306.48,931.56a2.37,2.37,0,1,0,0,3.35A2.37,2.37,0,0,0,2306.48,931.56Z" transform="translate(-188.39 -155.65)"/><path class="cls-17" d="M2310.63,939.11a2.37,2.37,0,1,0,3.35,0A2.37,2.37,0,0,0,2310.63,939.11Z" transform="translate(-188.39 -155.65)"/><path class="cls-17" d="M2318.34,946.89a2.37,2.37,0,1,0,3.35,0A2.37,2.37,0,0,0,2318.34,946.89Z" transform="translate(-188.39 -155.65)"/><path class="cls-17" d="M2329.5,954.79a2.37,2.37,0,1,0,0,3.35A2.37,2.37,0,0,0,2329.5,954.79Z" transform="translate(-188.39 -155.65)"/><path class="cls-17" d="M2334,962.66a2.37,2.37,0,1,0,3.35,0A2.37,2.37,0,0,0,2334,962.66Z" transform="translate(-188.39 -155.65)"/><path class="cls-17" d="M2341.67,970.44a2.37,2.37,0,1,0,3.35,0A2.37,2.37,0,0,0,2341.67,970.44Z" transform="translate(-188.39 -155.65)"/><path class="cls-17" d="M2352.83,978.34a2.37,2.37,0,1,0,0,3.35A2.37,2.37,0,0,0,2352.83,978.34Z" transform="translate(-188.39 -155.65)"/><path class="cls-17" d="M2170.48,916.35a2.37,2.37,0,1,0,1.78,2.84A2.38,2.38,0,0,0,2170.48,916.35Z" transform="translate(-188.39 -155.65)"/><path class="cls-17" d="M2168,927a2.37,2.37,0,1,0,1.78,2.84A2.38,2.38,0,0,0,2168,927Z" transform="translate(-188.39 -155.65)"/><path class="cls-17" d="M2167.31,940.67a2.37,2.37,0,1,0-2.84,1.78A2.38,2.38,0,0,0,2167.31,940.67Z" transform="translate(-188.39 -155.65)"/><path class="cls-17" d="M2163.05,948.65a2.37,2.37,0,1,0,1.78,2.84A2.38,2.38,0,0,0,2163.05,948.65Z" transform="translate(-188.39 -155.65)"/><path class="cls-17" d="M2160.59,959.33a2.37,2.37,0,1,0,1.78,2.84A2.38,2.38,0,0,0,2160.59,959.33Z" transform="translate(-188.39 -155.65)"/><path class="cls-17" d="M2159.88,973a2.37,2.37,0,1,0-2.84,1.78A2.38,2.38,0,0,0,2159.88,973Z" transform="translate(-188.39 -155.65)"/><path class="cls-17" d="M2155.71,980.52a2.37,2.37,0,1,0,1.78,2.84A2.38,2.38,0,0,0,2155.71,980.52Z" transform="translate(-188.39 -155.65)"/><path class="cls-17" d="M2153.25,991.2A2.37,2.37,0,1,0,2155,994,2.38,2.38,0,0,0,2153.25,991.2Z" transform="translate(-188.39 -155.65)"/><path class="cls-17" d="M2152.54,1004.85a2.37,2.37,0,1,0-2.84,1.78A2.38,2.38,0,0,0,2152.54,1004.85Z" transform="translate(-188.39 -155.65)"/><path class="cls-17" d="M2148.27,1012.83a2.37,2.37,0,1,0,1.78,2.84A2.38,2.38,0,0,0,2148.27,1012.83Z" transform="translate(-188.39 -155.65)"/><path class="cls-17" d="M2145.82,1023.5a2.37,2.37,0,1,0,1.78,2.84A2.38,2.38,0,0,0,2145.82,1023.5Z" transform="translate(-188.39 -155.65)"/><path class="cls-17" d="M2145.1,1037.16a2.37,2.37,0,1,0-2.84,1.78A2.38,2.38,0,0,0,2145.1,1037.16Z" transform="translate(-188.39 -155.65)"/><path class="cls-18" d="M2260.28,840a51.62,51.62,0,1,0-51.62,51.62A51.62,51.62,0,0,0,2260.28,840Z" transform="translate(-188.39 -155.65)"/><path class="cls-1" d="M2225.22,819.3a16.57,16.57,0,1,0-16.57,16.57A16.57,16.57,0,0,0,2225.22,819.3Z" transform="translate(-188.39 -155.65)"/><path class="cls-1" d="M2208.65,835.87a29,29,0,0,1,29,29h-58A29,29,0,0,1,2208.65,835.87Z" transform="translate(-188.39 -155.65)"/><path class="cls-18" d="M2334.47,999.33l-1.91-4.74a13.44,13.44,0,0,0-12.46-8.41h-35.29v118h146v-95.6h-82.61A14.76,14.76,0,0,1,2334.47,999.33Z" transform="translate(-188.39 -155.65)"/><path class="cls-1" d="M2379.63,1040.06h-4.88a14,14,0,0,0,.22-2.44V1036a14,14,0,0,0-13.95-14h-8.57a14,14,0,0,0-13.95,14v1.67a14,14,0,0,0,.22,2.44h-5.42a5.13,5.13,0,0,0-5.13,5.13v22.38a22.94,22.94,0,0,0,22.94,22.94h13.54A21.55,21.55,0,0,0,2386.2,1069v-22.33A6.56,6.56,0,0,0,2379.63,1040.06Zm-20.8,22.52V1073a1.64,1.64,0,0,1-3.28,0v-10.4a7.57,7.57,0,1,1,3.28,0Zm10.56-25a8.52,8.52,0,0,1-.36,2.44h-24.58a8.19,8.19,0,0,1-.37-2.44V1036a8.37,8.37,0,0,1,8.37-8.37H2361a8.37,8.37,0,0,1,8.37,8.37Z" transform="translate(-188.39 -155.65)"/><path class="cls-18" d="M2087.57,1110.44c0,26.37,44.65,74.49,44.65,74.49s44.64-48.12,44.64-74.49-20-47.72-44.64-47.72S2087.57,1084.08,2087.57,1110.44Zm18.74-4.84a25.91,25.91,0,1,1,25.91,25.91A25.91,25.91,0,0,1,2106.31,1105.6Z" transform="translate(-188.39 -155.65)"/><path class="cls-22" d="M2796,1788.77H191.47a3.09,3.09,0,0,1-3.08-3.08v-1.36a3.09,3.09,0,0,1,3.08-3.08H2796a3.09,3.09,0,0,1,3.08,3.08v1.36A3.09,3.09,0,0,1,2796,1788.77Z" transform="translate(-188.39 -155.65)"/><path class="cls-14" d="M1056.21,1091.67c-1.1-4.55.89-8.13,5.11-8.13s7.88,3.51,9,8.11-.87,8.13-5.11,8.13S1057.33,1096.27,1056.21,1091.67Zm10.53,0c-.69-2.85-2.62-5-4.7-5s-2.94,2.09-2.24,5,2.59,5,4.7,5S1067.44,1094.55,1066.74,1091.65Z" transform="translate(-188.39 -155.65)"/><path class="cls-21" d="M995.24,973.66l-2.6.68-1.41-2.83,4.23-1.35h2.38l3.83,15.82h-3.45Z" transform="translate(-188.39 -155.65)"/><path class="cls-21" d="M1007.61,978.1c-1.1-4.55.89-8.13,5.11-8.13s7.88,3.51,9,8.11-.87,8.12-5.11,8.13S1008.73,982.7,1007.61,978.1Zm10.53,0c-.69-2.85-2.62-5-4.7-5s-2.94,2.09-2.24,5,2.59,5,4.7,5S1018.84,981,1018.14,978.09Z" transform="translate(-188.39 -155.65)"/><path class="cls-21" d="M1082,1196.61c-1.1-4.55.89-8.13,5.11-8.13s7.88,3.51,9,8.11-.87,8.13-5.11,8.13S1083.07,1201.21,1082,1196.61Zm10.52,0c-.69-2.85-2.62-5-4.7-5s-2.94,2.09-2.24,5,2.6,5,4.7,5S1093.19,1199.48,1092.48,1196.59Z" transform="translate(-188.39 -155.65)"/><path class="cls-21" d="M1013.13,1047.55l-2.6.68-1.41-2.83,4.23-1.35h2.38l3.83,15.82h-3.45Z" transform="translate(-188.39 -155.65)"/><path class="cls-21" d="M1025.5,1052c-1.1-4.55.89-8.13,5.11-8.13s7.88,3.51,9,8.11-.87,8.12-5.11,8.13S1026.62,1056.59,1025.5,1052Zm10.53,0c-.69-2.85-2.62-5-4.7-5s-2.94,2.09-2.24,5,2.59,5,4.7,5S1036.73,1054.87,1036,1052Z" transform="translate(-188.39 -155.65)"/><path class="cls-14" d="M1023.44,1010.38l-2.6.68-1.41-2.83,4.23-1.35H1026l3.83,15.82h-3.45Z" transform="translate(-188.39 -155.65)"/><path class="cls-14" d="M1035.81,1014.82c-1.1-4.55.89-8.13,5.11-8.13s7.88,3.51,9,8.11-.87,8.12-5.11,8.13S1036.92,1019.42,1035.81,1014.82Zm10.52,0c-.69-2.85-2.62-5-4.7-5s-2.94,2.09-2.24,5,2.6,5,4.7,5S1047,1017.7,1046.33,1014.81Z" transform="translate(-188.39 -155.65)"/><path class="cls-21" d="M1022.74,1087.26l-2.6.68-1.41-2.83,4.23-1.35h2.38l3.83,15.82h-3.45Z" transform="translate(-188.39 -155.65)"/><path class="cls-21" d="M1035.12,1091.71c-1.1-4.55.89-8.13,5.11-8.13s7.88,3.51,9,8.11-.87,8.12-5.11,8.13S1036.23,1096.3,1035.12,1091.71Zm10.52,0c-.69-2.85-2.62-5-4.7-5s-2.94,2.09-2.24,5,2.59,5,4.7,5S1046.34,1094.58,1045.64,1091.69Z" transform="translate(-188.39 -155.65)"/><path class="cls-14" d="M1067.45,978.09c-1.1-4.55.89-8.13,5.11-8.13s7.88,3.51,9,8.11-.87,8.13-5.11,8.13S1068.56,982.68,1067.45,978.09Zm10.52,0c-.69-2.85-2.62-5-4.7-5s-2.94,2.09-2.24,5,2.6,5,4.7,5S1078.67,981,1078,978.07Z" transform="translate(-188.39 -155.65)"/><path class="cls-21" d="M1034,973.68l-2.6.68-1.41-2.83,4.23-1.35h2.38l3.83,15.81H1037Z" transform="translate(-188.39 -155.65)"/><path class="cls-21" d="M1046.36,978.12c-1.1-4.55.89-8.13,5.11-8.13s7.88,3.51,9,8.11-.87,8.12-5.11,8.13S1047.47,982.72,1046.36,978.12Zm10.52,0c-.69-2.85-2.62-5-4.7-5s-2.94,2.09-2.24,5,2.6,5,4.7,5S1057.58,981,1056.88,978.1Z" transform="translate(-188.39 -155.65)"/><path class="cls-14" d="M1074.58,1168.38c-1.1-4.55.89-8.13,5.11-8.13s7.88,3.51,9,8.11-.87,8.13-5.11,8.13S1075.7,1173,1074.58,1168.38Zm10.53,0c-.69-2.85-2.62-5-4.7-5s-2.94,2.09-2.24,5,2.59,5,4.7,5S1085.81,1171.25,1085.11,1168.36Z" transform="translate(-188.39 -155.65)"/><path class="cls-21" d="M1031.5,1124.26l-2.6.68-1.41-2.83,4.23-1.35h2.38l3.83,15.82h-3.45Z" transform="translate(-188.39 -155.65)"/><path class="cls-21" d="M1043.88,1128.7c-1.1-4.55.89-8.13,5.11-8.13s7.88,3.51,9,8.11-.87,8.12-5.11,8.13S1045,1133.3,1043.88,1128.7Zm10.52,0c-.69-2.85-2.62-5-4.7-5s-2.94,2.09-2.24,5,2.6,5,4.7,5S1055.1,1131.58,1054.4,1128.68Z" transform="translate(-188.39 -155.65)"/><path class="cls-21" d="M1065,1128.67c-1.1-4.55.89-8.13,5.11-8.13s7.88,3.51,9,8.11-.87,8.13-5.11,8.13S1066.08,1133.26,1065,1128.67Zm10.52,0c-.69-2.85-2.62-5-4.7-5s-2.94,2.09-2.24,5,2.6,5,4.7,5S1076.19,1131.54,1075.49,1128.65Z" transform="translate(-188.39 -155.65)"/><path class="cls-21" d="M1087.68,1124.16l-2.6.68-1.41-2.83,4.23-1.35h2.38l3.83,15.82h-3.45Z" transform="translate(-188.39 -155.65)"/><path class="cls-21" d="M1041.11,1164l-2.6.68-1.41-2.83,4.23-1.35h2.38l3.83,15.82h-3.45Z" transform="translate(-188.39 -155.65)"/><path class="cls-21" d="M1053.49,1168.41c-1.1-4.55.89-8.13,5.11-8.13s7.88,3.51,9,8.11-.87,8.12-5.11,8.13S1054.6,1173,1053.49,1168.41Zm10.52,0c-.69-2.85-2.62-5-4.7-5s-2.94,2.09-2.24,5,2.59,5,4.7,5S1064.71,1171.29,1064,1168.39Z" transform="translate(-188.39 -155.65)"/><path class="cls-21" d="M1093.23,1256.42c-1.1-4.55.89-8.13,5.11-8.13s7.88,3.51,9,8.11-.87,8.12-5.11,8.13S1094.35,1261,1093.23,1256.42Zm10.53,0c-.69-2.85-2.62-5-4.7-5s-2.94,2.09-2.24,5,2.59,5,4.7,5S1104.46,1259.3,1103.76,1256.4Z" transform="translate(-188.39 -155.65)"/><path class="cls-21" d="M1116,1251.92l-2.6.68-1.41-2.83,4.23-1.35h2.38l3.83,15.82h-3.45Z" transform="translate(-188.39 -155.65)"/><path class="cls-21" d="M1059.77,1252l-2.6.68-1.41-2.83,4.23-1.35h2.38l3.83,15.82h-3.45Z" transform="translate(-188.39 -155.65)"/><path class="cls-21" d="M1072.14,1256.46c-1.1-4.55.89-8.12,5.11-8.13s7.88,3.51,9,8.11-.87,8.12-5.11,8.13S1073.25,1261.05,1072.14,1256.46Zm10.53,0c-.69-2.85-2.62-5-4.7-5s-2.94,2.09-2.24,5,2.6,5,4.7,5S1083.37,1259.33,1082.67,1256.44Z" transform="translate(-188.39 -155.65)"/><path class="cls-14" d="M1128.32,1256.36c-1.1-4.55.89-8.12,5.11-8.13s7.88,3.51,9,8.11-.87,8.12-5.11,8.13S1129.44,1261,1128.32,1256.36Zm10.53,0c-.69-2.85-2.62-5-4.7-5s-2.94,2.09-2.24,5,2.6,5,4.7,5S1139.55,1259.24,1138.85,1256.34Z" transform="translate(-188.39 -155.65)"/><path class="cls-14" d="M1149.41,1256.33c-1.1-4.55.89-8.13,5.11-8.13s7.88,3.51,9,8.11-.87,8.12-5.11,8.13S1150.53,1260.92,1149.41,1256.33Zm10.53,0c-.69-2.85-2.62-5-4.7-5s-2.94,2.09-2.24,5,2.59,5,4.7,5S1160.64,1259.2,1159.94,1256.31Z" transform="translate(-188.39 -155.65)"/><path class="cls-21" d="M1067.17,1284.74c-1.1-4.55.89-8.13,5.11-8.13s7.88,3.51,9,8.11-.87,8.13-5.11,8.13S1068.29,1289.34,1067.17,1284.74Zm10.53,0c-.69-2.85-2.62-5-4.7-5s-2.94,2.09-2.24,5,2.59,5,4.7,5S1078.4,1287.62,1077.7,1284.72Z" transform="translate(-188.39 -155.65)"/><path class="cls-21" d="M1089.88,1280.24l-2.6.68-1.41-2.83,4.23-1.35h2.38l3.83,15.82h-3.45Z" transform="translate(-188.39 -155.65)"/><path class="cls-21" d="M1102.26,1284.68c-1.1-4.55.89-8.12,5.11-8.13s7.88,3.51,9,8.11-.87,8.12-5.11,8.13S1103.37,1289.28,1102.26,1284.68Zm10.52,0c-.69-2.85-2.62-5-4.7-5s-2.94,2.09-2.24,5,2.59,5,4.7,5S1113.48,1287.56,1112.78,1284.67Z" transform="translate(-188.39 -155.65)"/><path class="cls-21" d="M1123.35,1284.65c-1.1-4.55.89-8.13,5.11-8.13s7.88,3.51,9,8.11-.87,8.13-5.11,8.13S1124.46,1289.25,1123.35,1284.65Zm10.53,0c-.69-2.85-2.62-5-4.7-5s-2.94,2.09-2.24,5,2.59,5,4.7,5S1134.58,1287.52,1133.88,1284.63Z" transform="translate(-188.39 -155.65)"/><path class="cls-21" d="M1731.35,1256.42c-1.1-4.55.89-8.13,5.11-8.13s7.88,3.51,9,8.11-.87,8.12-5.11,8.13S1732.46,1261,1731.35,1256.42Zm10.52,0c-.69-2.85-2.62-5-4.7-5s-2.94,2.09-2.24,5,2.59,5,4.7,5S1742.57,1259.3,1741.87,1256.4Z" transform="translate(-188.39 -155.65)"/><path class="cls-21" d="M1754.06,1251.92l-2.6.68-1.41-2.83,4.23-1.35h2.38l3.83,15.82H1757Z" transform="translate(-188.39 -155.65)"/><path class="cls-21" d="M1697.88,1252l-2.6.68-1.41-2.83,4.23-1.35h2.38l3.83,15.82h-3.45Z" transform="translate(-188.39 -155.65)"/><path class="cls-21" d="M1710.26,1256.46c-1.1-4.55.89-8.12,5.11-8.13s7.88,3.51,9,8.11-.87,8.12-5.11,8.13S1711.37,1261.05,1710.26,1256.46Zm10.52,0c-.69-2.85-2.62-5-4.71-5s-2.94,2.09-2.24,5,2.6,5,4.7,5S1721.48,1259.33,1720.78,1256.44Z" transform="translate(-188.39 -155.65)"/><path class="cls-14" d="M1766.44,1256.36c-1.1-4.55.89-8.12,5.11-8.13s7.88,3.51,9,8.11-.87,8.12-5.11,8.13S1767.55,1261,1766.44,1256.36Zm10.52,0c-.69-2.85-2.62-5-4.71-5s-2.94,2.09-2.24,5,2.59,5,4.7,5S1777.66,1259.24,1777,1256.34Z" transform="translate(-188.39 -155.65)"/><path class="cls-14" d="M1787.53,1256.33c-1.1-4.55.89-8.13,5.11-8.13s7.88,3.51,9,8.11-.87,8.12-5.11,8.13S1788.64,1260.92,1787.53,1256.33Zm10.52,0c-.69-2.85-2.62-5-4.7-5s-2.94,2.09-2.24,5,2.59,5,4.7,5S1798.75,1259.2,1798.05,1256.31Z" transform="translate(-188.39 -155.65)"/><path class="cls-21" d="M1647,1284.74c-1.1-4.55.89-8.13,5.11-8.13s7.88,3.51,9,8.11-.87,8.13-5.11,8.13S1648.11,1289.34,1647,1284.74Zm10.52,0c-.69-2.85-2.62-5-4.7-5s-2.94,2.09-2.24,5,2.59,5,4.7,5S1658.22,1287.62,1657.52,1284.72Z" transform="translate(-188.39 -155.65)"/><path class="cls-21" d="M1669.71,1280.24l-2.6.68-1.41-2.83,4.23-1.35h2.38l3.83,15.82h-3.45Z" transform="translate(-188.39 -155.65)"/><path class="cls-21" d="M1682.08,1284.68c-1.1-4.55.89-8.12,5.11-8.13s7.88,3.51,9,8.11-.87,8.12-5.11,8.13S1683.2,1289.28,1682.08,1284.68Zm10.53,0c-.69-2.85-2.62-5-4.7-5s-2.94,2.09-2.24,5,2.59,5,4.7,5S1693.31,1287.56,1692.61,1284.67Z" transform="translate(-188.39 -155.65)"/><path class="cls-21" d="M1703.17,1284.65c-1.1-4.55.89-8.13,5.11-8.13s7.88,3.51,9,8.11-.87,8.13-5.11,8.13S1704.29,1289.25,1703.17,1284.65Zm10.53,0c-.69-2.85-2.62-5-4.71-5s-2.94,2.09-2.24,5,2.59,5,4.7,5S1714.4,1287.52,1713.7,1284.63Z" transform="translate(-188.39 -155.65)"/><path class="cls-14" d="M1120,1358.87c-1.1-4.55.89-8.12,5.11-8.13s7.88,3.51,9,8.11-.87,8.12-5.11,8.13S1121.14,1363.47,1120,1358.87Zm10.53,0c-.69-2.85-2.62-5-4.7-5s-2.94,2.09-2.24,5,2.59,5,4.7,5S1131.25,1361.75,1130.55,1358.85Z" transform="translate(-188.39 -155.65)"/><path class="cls-14" d="M1142.73,1354.37l-2.6.68-1.41-2.83,4.23-1.35h2.38l3.83,15.82h-3.45Z" transform="translate(-188.39 -155.65)"/><path class="cls-21" d="M1076.94,1314.75l-2.6.68-1.41-2.83,4.23-1.35h2.38l3.83,15.82h-3.45Z" transform="translate(-188.39 -155.65)"/><path class="cls-21" d="M1089.32,1319.2c-1.1-4.55.89-8.13,5.11-8.13s7.88,3.51,9,8.11-.87,8.13-5.11,8.13S1090.43,1323.79,1089.32,1319.2Zm10.52,0c-.69-2.85-2.62-5-4.7-5s-2.94,2.09-2.24,5,2.59,5,4.7,5S1100.54,1322.07,1099.84,1319.18Z" transform="translate(-188.39 -155.65)"/><path class="cls-21" d="M1110.41,1319.16c-1.1-4.55.89-8.12,5.11-8.13s7.88,3.51,9,8.11-.87,8.12-5.11,8.13S1111.52,1323.76,1110.41,1319.16Zm10.52,0c-.69-2.85-2.62-5-4.7-5s-2.94,2.09-2.24,5,2.6,5,4.7,5S1121.63,1322,1120.93,1319.14Z" transform="translate(-188.39 -155.65)"/><path class="cls-21" d="M1133.12,1314.66l-2.6.68-1.41-2.83,4.23-1.35h2.38l3.83,15.82h-3.45Z" transform="translate(-188.39 -155.65)"/><path class="cls-21" d="M1694.39,1314.75l-2.6.68-1.41-2.83,4.23-1.35H1697l3.83,15.82h-3.45Z" transform="translate(-188.39 -155.65)"/><path class="cls-21" d="M1706.76,1319.2c-1.1-4.55.89-8.13,5.11-8.13s7.88,3.51,9,8.11-.87,8.13-5.11,8.13S1707.88,1323.79,1706.76,1319.2Zm10.53,0c-.69-2.85-2.62-5-4.7-5s-2.94,2.09-2.24,5,2.59,5,4.7,5S1718,1322.07,1717.29,1319.18Z" transform="translate(-188.39 -155.65)"/><path class="cls-21" d="M1727.86,1319.16c-1.1-4.55.89-8.12,5.11-8.13s7.88,3.51,9,8.11-.87,8.12-5.11,8.13S1729,1323.76,1727.86,1319.16Zm10.52,0c-.69-2.85-2.62-5-4.7-5s-2.94,2.09-2.24,5,2.59,5,4.7,5S1739.08,1322,1738.38,1319.14Z" transform="translate(-188.39 -155.65)"/><path class="cls-21" d="M1750.57,1314.66l-2.6.68-1.41-2.83,4.23-1.35h2.38L1757,1327h-3.45Z" transform="translate(-188.39 -155.65)"/><path class="cls-21" d="M1086.55,1354.46l-2.6.68-1.41-2.83,4.23-1.35h2.38l3.83,15.82h-3.45Z" transform="translate(-188.39 -155.65)"/><path class="cls-21" d="M1098.93,1358.91c-1.1-4.55.89-8.13,5.11-8.13s7.88,3.51,9,8.11-.87,8.13-5.11,8.13S1100,1363.5,1098.93,1358.91Zm10.52,0c-.69-2.85-2.62-5-4.7-5s-2.94,2.09-2.24,5,2.59,5,4.7,5S1110.15,1361.78,1109.45,1358.89Z" transform="translate(-188.39 -155.65)"/><path class="cls-21" d="M1155.11,1358.81c-1.1-4.55.89-8.13,5.11-8.13s7.88,3.51,9,8.11-.87,8.12-5.11,8.13S1156.22,1363.41,1155.11,1358.81Zm10.52,0c-.69-2.85-2.62-5-4.7-5s-2.94,2.09-2.24,5,2.59,5,4.7,5S1166.33,1361.69,1165.63,1358.79Z" transform="translate(-188.39 -155.65)"/><path class="cls-21" d="M1176.2,1358.77c-1.1-4.55.89-8.12,5.11-8.13s7.88,3.51,9,8.11-.87,8.12-5.11,8.13S1177.32,1363.37,1176.2,1358.77Zm10.53,0c-.69-2.85-2.62-5-4.7-5s-2.94,2.09-2.24,5,2.59,5,4.7,5S1187.43,1361.65,1186.73,1358.76Z" transform="translate(-188.39 -155.65)"/><path class="cls-14" d="M1128.16,1386.91c-1.1-4.55.89-8.13,5.11-8.13s7.88,3.51,9,8.11-.87,8.12-5.11,8.13S1129.27,1391.5,1128.16,1386.91Zm10.52,0c-.69-2.85-2.62-5-4.7-5s-2.94,2.09-2.24,5,2.59,5,4.7,5S1139.38,1389.78,1138.68,1386.89Z" transform="translate(-188.39 -155.65)"/><path class="cls-14" d="M1150.87,1382.4l-2.6.68-1.41-2.83,4.23-1.35h2.38l3.83,15.82h-3.45Z" transform="translate(-188.39 -155.65)"/><path class="cls-21" d="M1107.06,1386.94c-1.1-4.55.89-8.13,5.11-8.13s7.88,3.51,9,8.11-.87,8.13-5.11,8.13S1108.18,1391.54,1107.06,1386.94Zm10.53,0c-.69-2.85-2.62-5-4.7-5s-2.94,2.09-2.24,5,2.59,5,4.7,5S1118.29,1389.82,1117.59,1386.92Z" transform="translate(-188.39 -155.65)"/><path class="cls-21" d="M1163.24,1386.85c-1.1-4.55.89-8.13,5.11-8.13s7.88,3.51,9,8.11-.87,8.13-5.11,8.13S1164.36,1391.45,1163.24,1386.85Zm10.53,0c-.69-2.85-2.62-5-4.7-5s-2.94,2.09-2.24,5,2.6,5,4.7,5S1174.47,1389.72,1173.77,1386.83Z" transform="translate(-188.39 -155.65)"/><path class="cls-21" d="M1184.34,1386.81c-1.1-4.55.89-8.12,5.11-8.13s7.88,3.51,9,8.11-.87,8.12-5.11,8.13S1185.45,1391.41,1184.34,1386.81Zm10.52,0c-.69-2.85-2.62-5-4.7-5s-2.94,2.09-2.24,5,2.59,5,4.7,5S1195.56,1389.69,1194.86,1386.79Z" transform="translate(-188.39 -155.65)"/><path class="cls-14" d="M1256.91,1386.91c-1.1-4.55.89-8.13,5.11-8.13s7.88,3.51,9,8.11-.87,8.12-5.11,8.13S1258,1391.5,1256.91,1386.91Zm10.52,0c-.69-2.85-2.62-5-4.7-5s-2.94,2.09-2.24,5,2.59,5,4.7,5S1268.14,1389.78,1267.43,1386.89Z" transform="translate(-188.39 -155.65)"/><path class="cls-14" d="M1279.62,1382.4l-2.6.68-1.41-2.83,4.23-1.35h2.38l3.83,15.82h-3.45Z" transform="translate(-188.39 -155.65)"/><path class="cls-21" d="M1235.82,1386.94c-1.1-4.55.89-8.13,5.11-8.13s7.88,3.51,9,8.11-.87,8.13-5.11,8.13S1236.93,1391.54,1235.82,1386.94Zm10.52,0c-.69-2.85-2.62-5-4.7-5s-2.94,2.09-2.24,5,2.6,5,4.7,5S1247,1389.82,1246.34,1386.92Z" transform="translate(-188.39 -155.65)"/><path class="cls-21" d="M1292,1386.85c-1.1-4.55.89-8.13,5.11-8.13s7.88,3.51,9,8.11-.87,8.13-5.11,8.13S1293.11,1391.45,1292,1386.85Zm10.52,0c-.69-2.85-2.62-5-4.7-5s-2.94,2.09-2.24,5,2.6,5,4.7,5S1303.22,1389.72,1302.52,1386.83Z" transform="translate(-188.39 -155.65)"/><path class="cls-21" d="M1313.09,1386.81c-1.1-4.55.89-8.12,5.11-8.13s7.88,3.51,9,8.11-.87,8.12-5.11,8.13S1314.2,1391.41,1313.09,1386.81Zm10.52,0c-.69-2.85-2.62-5-4.7-5s-2.94,2.09-2.24,5,2.59,5,4.7,5S1324.31,1389.69,1323.61,1386.79Z" transform="translate(-188.39 -155.65)"/><path class="cls-14" d="M1550,1386.91c-1.1-4.55.89-8.13,5.11-8.13s7.88,3.51,9,8.11-.87,8.12-5.11,8.13S1551.16,1391.5,1550,1386.91Zm10.53,0c-.69-2.85-2.62-5-4.7-5s-2.94,2.09-2.24,5,2.59,5,4.7,5S1561.27,1389.78,1560.57,1386.89Z" transform="translate(-188.39 -155.65)"/><path class="cls-14" d="M1572.75,1382.4l-2.6.68-1.41-2.83,4.23-1.35h2.38l3.83,15.82h-3.45Z" transform="translate(-188.39 -155.65)"/><path class="cls-21" d="M1529,1386.94c-1.1-4.55.89-8.13,5.11-8.13s7.88,3.51,9,8.11-.87,8.13-5.11,8.13S1530.06,1391.54,1529,1386.94Zm10.52,0c-.69-2.85-2.62-5-4.7-5s-2.94,2.09-2.24,5,2.59,5,4.7,5S1540.18,1389.82,1539.47,1386.92Z" transform="translate(-188.39 -155.65)"/><path class="cls-21" d="M1585.13,1386.85c-1.1-4.55.89-8.13,5.11-8.13s7.88,3.51,9,8.11-.87,8.13-5.11,8.13S1586.24,1391.45,1585.13,1386.85Zm10.52,0c-.69-2.85-2.62-5-4.7-5s-2.94,2.09-2.24,5,2.59,5,4.7,5S1596.36,1389.72,1595.65,1386.83Z" transform="translate(-188.39 -155.65)"/><path class="cls-21" d="M1606.22,1386.81c-1.1-4.55.89-8.12,5.11-8.13s7.88,3.51,9,8.11-.87,8.12-5.11,8.13S1607.34,1391.41,1606.22,1386.81Zm10.53,0c-.69-2.85-2.62-5-4.7-5s-2.94,2.09-2.24,5,2.59,5,4.7,5S1617.45,1389.69,1616.75,1386.79Z" transform="translate(-188.39 -155.65)"/><path class="cls-14" d="M1678.8,1386.91c-1.1-4.55.89-8.13,5.11-8.13s7.88,3.51,9,8.11-.87,8.12-5.11,8.13S1679.91,1391.5,1678.8,1386.91Zm10.52,0c-.69-2.85-2.62-5-4.7-5s-2.94,2.09-2.24,5,2.59,5,4.7,5S1690,1389.78,1689.32,1386.89Z" transform="translate(-188.39 -155.65)"/><path class="cls-14" d="M1701.51,1382.4l-2.6.68-1.41-2.83,4.23-1.35h2.38l3.83,15.82h-3.45Z" transform="translate(-188.39 -155.65)"/><path class="cls-21" d="M1657.71,1386.94c-1.1-4.55.89-8.13,5.11-8.13s7.88,3.51,9,8.11-.87,8.13-5.11,8.13S1658.82,1391.54,1657.71,1386.94Zm10.52,0c-.69-2.85-2.62-5-4.7-5s-2.94,2.09-2.24,5,2.6,5,4.71,5S1668.93,1389.82,1668.23,1386.92Z" transform="translate(-188.39 -155.65)"/><path class="cls-21" d="M1713.89,1386.85c-1.1-4.55.89-8.13,5.11-8.13s7.88,3.51,9,8.11-.87,8.13-5.11,8.13S1715,1391.45,1713.89,1386.85Zm10.52,0c-.69-2.85-2.62-5-4.71-5s-2.94,2.09-2.24,5,2.59,5,4.7,5S1725.11,1389.72,1724.41,1386.83Z" transform="translate(-188.39 -155.65)"/><path class="cls-21" d="M1735,1386.81c-1.1-4.55.89-8.12,5.11-8.13s7.88,3.51,9,8.11-.87,8.12-5.11,8.13S1736.09,1391.41,1735,1386.81Zm10.52,0c-.69-2.85-2.62-5-4.7-5s-2.94,2.09-2.24,5,2.59,5,4.7,5S1746.2,1389.69,1745.5,1386.79Z" transform="translate(-188.39 -155.65)"/><path class="cls-21" d="M1197.29,1358.74c-1.1-4.55.89-8.13,5.11-8.13s7.88,3.51,9,8.11-.87,8.12-5.11,8.13S1198.41,1363.34,1197.29,1358.74Zm10.53,0c-.69-2.85-2.62-5-4.7-5s-2.94,2.09-2.24,5,2.6,5,4.7,5S1208.52,1361.62,1207.82,1358.72Z" transform="translate(-188.39 -155.65)"/><path class="cls-21" d="M1218.39,1358.7c-1.1-4.55.89-8.13,5.11-8.13s7.88,3.51,9,8.11-.87,8.13-5.11,8.13S1219.5,1363.3,1218.39,1358.7Zm10.52,0c-.69-2.85-2.62-5-4.7-5s-2.94,2.09-2.24,5,2.6,5,4.7,5S1229.61,1361.58,1228.91,1358.69Z" transform="translate(-188.39 -155.65)"/><path class="cls-21" d="M1604,1358.74c-1.1-4.55.89-8.13,5.11-8.13s7.88,3.51,9,8.11-.87,8.12-5.11,8.13S1605.08,1363.34,1604,1358.74Zm10.52,0c-.69-2.85-2.62-5-4.7-5s-2.94,2.09-2.24,5,2.59,5,4.7,5S1615.19,1361.62,1614.49,1358.72Z" transform="translate(-188.39 -155.65)"/><path class="cls-21" d="M1625.06,1358.7c-1.1-4.55.89-8.13,5.11-8.13s7.88,3.51,9,8.11-.87,8.13-5.11,8.13S1626.18,1363.3,1625.06,1358.7Zm10.53,0c-.69-2.85-2.62-5-4.7-5s-2.94,2.09-2.24,5,2.59,5,4.7,5S1636.29,1361.58,1635.59,1358.69Z" transform="translate(-188.39 -155.65)"/></svg>