<svg id="Слой_1" data-name="Слой 1" xmlns="http://www.w3.org/2000/svg" viewBox="0 0 3314.06 2052.26"><defs><style>.cls-1{fill:none;}.cls-2{fill:#e7f3fe;}.cls-3{fill:#cce2ff;}.cls-19,.cls-4{fill:#9ec8ff;}.cls-4{opacity:0.5;isolation:isolate;}.cls-5{fill:#fff;}.cls-6{fill:#303c60;}.cls-7{fill:#4476bd;}.cls-8{fill:#3e6bab;}.cls-9{fill:#ffb27d;}.cls-10{fill:#f99746;}.cls-11{fill:#ed7d2b;}.cls-12{fill:#ed9c66;}.cls-13{fill:#f5dc95;}.cls-14{fill:#a2dff2;}.cls-15{fill:#96cfe0;}.cls-16{fill:#75a1de;}.cls-17{fill:#f09959;}.cls-18{fill:#2e5b9a;}.cls-20{fill:#f39892;}.cls-21{clip-path:url(#clip-path);}.cls-22{fill:#9cd499;}.cls-23{fill:#ffb8b3;}.cls-24{fill:#fae8b6;}.cls-25{fill:#c8dbf4;}.cls-26{fill:#d4e4f8;}.cls-27{fill:#9fc1f4;}</style><clipPath id="clip-path" transform="translate(-278.22 -266.46)"><path class="cls-1" d="M1065,504.25a131.34,131.34,0,1,0,131.33,131.33A131.34,131.34,0,0,0,1065,504.25Zm0,200.91a69.58,69.58,0,1,1,69.57-69.58A69.58,69.58,0,0,1,1065,705.16Z"/></clipPath></defs><path class="cls-2" d="M664.23,346c515.63-191.42,1039.69-22.19,1395.12,346.41S3050.71,438,3446.31,806c270,251.14,146.32,896.83-223.87,1176.5C2719.27,2362.61,954.73,2374,643.71,2243.58c-531.48-222.9-3.39-635.68-251.48-1031.37C99.55,745.39,436.37,430.57,664.23,346Z" transform="translate(-278.22 -266.46)"/><path class="cls-3" d="M3446.66,2133.69c-258.11-12.62-1006.14,8.76-1273.18,17.09s-577-11-738-39.42S343.73,2113.78,386,2190.2s414.67,34.19,837,64.9,1372.24-3.84,1586.5,0,280.74-7.68,556.86-23S3596.27,2141,3446.66,2133.69Z" transform="translate(-278.22 -266.46)"/><rect class="cls-4" x="519.12" y="150.57" width="1141.41" height="685.59"/><rect class="cls-5" x="574.73" y="167.3" width="1073.85" height="629.38"/><path class="cls-6" d="M2740.87,645.34c69.33-66,187.83-64.5,185.33,36S2932,791.29,2960.53,844c99,182.93-118,172.17-208.5,178.17s-83-164.5-67-259S2720.58,664.66,2740.87,645.34Z" transform="translate(-278.22 -266.46)"/><path class="cls-7" d="M2773.19,1221.58c-22.23,186.67-62.62,324.67-67.12,413.16s-22.5,436.94-22.5,436.94,49.5-3.46,54-11,93-204,88.5-325.48S2914.46,1429,2914.46,1429l-22.39-181.25Z" transform="translate(-278.22 -266.46)"/><path class="cls-8" d="M2794.54,1302.84l-34.76,14.55c-9.45,59.19-19.93,112.41-29.14,159.62,55.32,35.77,83.9,154.92,96.14,227.77,6.24-81.51,44.7-180,68.56-234.48Z" transform="translate(-278.22 -266.46)"/><path class="cls-7" d="M2955.06,1202.76s74.92,95.57,72.57,204c-3.58,165-21.58,212.17,9.74,385.23,12.23,67.59-27,288.7-27,288.7s-33.51,2.63-51.51-6.33c1.5-16.25-21.66-280.52-66.76-402-21.84-58.83-52.54-223.59-69-318.08s-19.5-114-13.5-114S2955.06,1202.76,2955.06,1202.76Z" transform="translate(-278.22 -266.46)"/><path class="cls-9" d="M2528.21,937.34s3.33-49.45-2-64.73S2474.88,844,2474.88,844s-2,70.67,2.67,79.33,32,33.33,32,33.33Z" transform="translate(-278.22 -266.46)"/><path class="cls-10" d="M2786.86,901.31c-105.33,113.37-139.7,161.07-147.7,161.07-25-44.13-108-137.46-108-137.46l-35.41,22.76s81.82,213.77,133.82,216,157.69-73.72,159-82.44S2786.86,901.31,2786.86,901.31Z" transform="translate(-278.22 -266.46)"/><path class="cls-11" d="M2677,1152.58c51.52-21,110.56-64.85,111.56-71.35,1.34-8.72-1.71-179.91-1.71-179.91-23,24.71-43,46.63-60.4,65.8C2707.59,1037.38,2708.83,1113.89,2677,1152.58Z" transform="translate(-278.22 -266.46)"/><path class="cls-10" d="M2893.87,826.68s100.79,50.52,122.79,140-43.1,199.91-51.1,258.87-192,69.33-192,6.22c0-60.5-46.1-188.94-43.5-221.65,6.1-76.76,118.31-170.79,118.31-170.79Z" transform="translate(-278.22 -266.46)"/><path class="cls-9" d="M2864.58,710.83l43.27,133.43s-46.2,35.65-125.27,121.42c3.07-57.07,50.89-119.29,50.89-119.29l-32.73-126Z" transform="translate(-278.22 -266.46)"/><path class="cls-12" d="M2884.76,773.06l-20.18-62.24-63.85,9.56,32.73,126s-3.19,5.09-7.91,13.1C2856.39,836.6,2875.31,808.12,2884.76,773.06Z" transform="translate(-278.22 -266.46)"/><path class="cls-9" d="M2840.74,740.94c-11.67,42.46-56.86,65.84-89,57s-39-46.51-27.31-89,47.16-69.73,79.28-60.9S2852.41,698.48,2840.74,740.94Z" transform="translate(-278.22 -266.46)"/><path class="cls-10" d="M2765.53,1171.89c14,88.79-38,278.74-38,278.74s31,7,124-2,134-101.82,148-104.41,21.19,86.38,28.1,93.41,8-112.35-10.1-159.28c-32-83.19-25.73-118.48-13.77-168.89C3025,1019.88,2765.53,1171.89,2765.53,1171.89Z" transform="translate(-278.22 -266.46)"/><path class="cls-7" d="M2685.83,2028c8.37,34-8.16,61-30.29,80.7-18,16-73.33,22.8-70.67,30.8s68,10.54,90,7.2,28-14,55.38-14c17.95,0,21.28-14.59,13.28-32.64s-10.8-28-3.57-44.2S2685.83,2028,2685.83,2028Z" transform="translate(-278.22 -266.46)"/><path class="cls-7" d="M3012.31,2028c-1.33,35.33-5.44,61.66,3.23,78,33.47,28,61.29,59.8,50.67,62-50.67,10.46-70-19.9-98.67-28.54-35.18-10.59,3.33-54.8-10.45-111.5-7.66-31.52,53.12-24,53.12-24Z" transform="translate(-278.22 -266.46)"/><path class="cls-11" d="M3025.1,1307.36c-2-11.08-4.52-21-7.56-29-32-83.19-25.73-118.48-13.77-168.89A39.77,39.77,0,0,0,3005,1099c2.7-9,5.21-18.1,7.42-27.26l-10.86-98-78.31-93c-58.69,86-19.08,193-27.89,252s-107.14,134.23-107.14,134.23l3.2,20.93a53.15,53.15,0,0,0,59.78,44.67c40.53-5.62,93.7-16.93,117.36-38.88C2991.43,1272.38,3011.71,1288.82,3025.1,1307.36Z" transform="translate(-278.22 -266.46)"/><path class="cls-9" d="M2811.19,1263.53s-43.41,12.15-48.6,14.86-8.06,17.07-8.06,17.07-24.85,21.58-15.33,29.22,26.52,27,49,18c13.8-5.52,24.49-56.21,33.53-56.62S2811.19,1263.53,2811.19,1263.53Z" transform="translate(-278.22 -266.46)"/><path class="cls-10" d="M2934.14,869.34c46.46,1.32,88.59,85,103.27,157.6s30.13,175.81,30.13,175.81-77,60.77-153.08,78.53c-66.37,15.49-100.25,21.55-100.25,21.55l-13.46-37.89,158.8-93.27s-58.39-110-64.2-193S2898.83,868.34,2934.14,869.34Z" transform="translate(-278.22 -266.46)"/><rect class="cls-13" x="2377.65" y="838.34" width="118.13" height="75.02" transform="translate(-402.89 229.93) rotate(-11.34)"/><path class="cls-9" d="M2500.35,931.34c1.6-30.42-13.47-71.92-22.14-71.86s2.67,27.19-2,45.19C2473.68,914.43,2500.35,931.34,2500.35,931.34Z" transform="translate(-278.22 -266.46)"/><path class="cls-6" d="M2733,661.34c2.57,83.33,99.91,76.94,126.57,71.81S2827.07,909,2877.86,919.4c37.3,7.67,28.9-50.68,70.33-46.78,18.33,1.73,36.76,30.06,36.76,30.06s-2.76-17.46-16.76-30.06-50.7-89.94-60.35-145.27-75-91.12-94.31-92.23S2746.86,656,2746.86,656Z" transform="translate(-278.22 -266.46)"/><path class="cls-6" d="M2877,938.26a19.13,19.13,0,0,1-4-.43c-16.26-3.46-24.14-20.55-24.81-53.77-.57-28.48,4.13-65,9.12-103.72,2-15.63,4.1-31.8,5.81-47.45a2.44,2.44,0,1,1,4.85.53c-1.72,15.7-3.81,31.89-5.82,47.55-9.64,74.87-18.75,145.58,11.87,152.1a13.8,13.8,0,0,0,2.85.3c17.59,0,33.43-34.28,42.67-67.67a2.44,2.44,0,0,1,4.7,1.3C2918.12,889,2901.73,938.26,2877,938.26Z" transform="translate(-278.22 -266.46)"/><path class="cls-6" d="M2870.5,957.63a19.25,19.25,0,0,1-14.4-6.4c-33.18-35.07-.37-211.06,1-218.53a2.44,2.44,0,0,1,4.79.91c-.34,1.81-33.77,181-2.29,214.28a14.54,14.54,0,0,0,13.24,4.72c17.23-2.28,27.18-25.65,35.95-46.28,8.51-20,16.52-38.9,30.78-38.41a2.44,2.44,0,0,1,2.35,2.52,2.42,2.42,0,0,1-2.52,2.35h-.35c-10.69,0-18,17.23-25.78,35.45-9.29,21.83-19.81,46.56-39.8,49.2A23.65,23.65,0,0,1,2870.5,957.63Z" transform="translate(-278.22 -266.46)"/><path class="cls-9" d="M2863.15,749.16c-6.86,8.84-17.61,12-24,7s-6-16.16.83-25,17.61-12,24-7S2870,740.32,2863.15,749.16Z" transform="translate(-278.22 -266.46)"/><path class="cls-6" d="M2016.88,1057.74c23.76,47.52,4.09,102.24-42.64,121.57-47,19.46-98.48,8.41-122.24-39.11s-6.11-104.5,39.42-127.27S1993.11,1010.23,2016.88,1057.74Z" transform="translate(-278.22 -266.46)"/><path class="cls-6" d="M1888.78,1185c-5.25,0-15.58-1.85-28.73-13.52-10.78-9.57-18.53-24.24-21.8-41.3-4.13-21.54-1.44-46.31,8-73.62a2.44,2.44,0,1,1,4.61,1.59c-9.16,26.49-11.79,50.41-7.82,71.11,3.07,16,10.26,29.72,20.25,38.58,16.67,14.79,27.84,12.1,28,12.07a2.45,2.45,0,0,1,3,1.71,2.42,2.42,0,0,1-1.67,3A14.69,14.69,0,0,1,1888.78,1185Z" transform="translate(-278.22 -266.46)"/><path class="cls-14" d="M1961.45,1242.65c27,6.06,61.19,81.21,77.91,129.36,16.86,48.56,45.45,108.8,64.17,127.52s141.71,62.11,141.71,62.11-303.89.59-297.67,0S1961.45,1242.65,1961.45,1242.65Z" transform="translate(-278.22 -266.46)"/><path class="cls-15" d="M2122.78,1537.49c-16.64-2.38-76.65,5.35-51.1-5.35s22-24.36,22-24.36-36.25,30.3-42.78,3.8c-5.64-22.85-7.79-103.52-29.18-184.38-17.67-40.09-40.8-80.2-60.25-84.56,0,0-.68,28.47-1.81,68.39,7.46,88.34,20.13,218.12,23.34,250.83,40.28.06,107.69,0,164.09-.07l37.51-1.79S2139.42,1539.87,2122.78,1537.49Z" transform="translate(-278.22 -266.46)"/><path class="cls-14" d="M1862,1226s-86,48.07-106.08,58.29,56.18,310.27,73.14,323.13,166.22,2.21,183.22-14-13-65.92,1.67-165.47-44.86-185.5-52.51-185.31-57.59-16.65-57.59-16.65Z" transform="translate(-278.22 -266.46)"/><path class="cls-15" d="M1829.08,1607.42c17,12.86,123.77,13.15,169.23-1,5.13-1.6,28.43-10.88,29-19.61-5.49-1-27.27,1.59-36.12-.45-30.75-7.07-47.68-45.16-47.68-45.16s-16.93-6.09-54.81-22.13-22.28-64.62-23.17-86-37.43-91.36-106.06-144.39l-6.3,2.82C1748.24,1340.25,1813.39,1595.52,1829.08,1607.42Z" transform="translate(-278.22 -266.46)"/><path class="cls-16" d="M2420.11,1372H2213l-94.34,200.77h228.17l85.4-181.74A13.34,13.34,0,0,0,2420.11,1372Z" transform="translate(-278.22 -266.46)"/><path class="cls-8" d="M2131,1575.62H2006.32a14,14,0,1,1,0-28H2122l78.24-168.38a14,14,0,1,1,25.4,11.8l-82,176.48A14,14,0,0,1,2131,1575.62Z" transform="translate(-278.22 -266.46)"/><path class="cls-17" d="M1914.81,1532.74c54.07,10.1,67.37,22.52,96.84,27.27,33.41,5.39,29.44,12.77,4.62,12.77s-87.18,1-108.58-3.79S1914.81,1532.74,1914.81,1532.74Z" transform="translate(-278.22 -266.46)"/><path class="cls-14" d="M1749.18,1289.92c-41.44,132.5-100.19,282.85-90.83,282.85s247.32,9.62,256.68,1.61,6.69-38.76,5.35-42.77-135.29-27.78-135.29-27.78,17.64-34.38,24.32-101.56S1757,1264.79,1749.18,1289.92Z" transform="translate(-278.22 -266.46)"/><path class="cls-9" d="M1893.53,1110.86l-33.38,122s56.41,88.05,71.92,80.23-8.67-71.57-8.67-80.23,24.18-98,24.18-98Z" transform="translate(-278.22 -266.46)"/><path class="cls-12" d="M1924.55,1239.07a32.5,32.5,0,0,1-1.16-6.22c0-8.66,24.18-98,24.18-98l-54-24-11,40.37C1892.13,1192.93,1909.54,1220.7,1924.55,1239.07Z" transform="translate(-278.22 -266.46)"/><path class="cls-9" d="M2018.44,1108.84c6.36,35.37,2.17,82.36-29.24,94.3s-69.25-10.91-84.51-51-2.17-82.36,29.24-94.3S2010.84,1066.58,2018.44,1108.84Z" transform="translate(-278.22 -266.46)"/><path class="cls-9" d="M1912.13,1128.75c4.4,12.37.58,25-8.54,28.27s-20.08-4.15-24.49-16.51-.58-25,8.54-28.27S1907.73,1116.38,1912.13,1128.75Z" transform="translate(-278.22 -266.46)"/><path class="cls-6" d="M2018.81,1064.4c-10.69,83-111.55,72.32-111.55,72.32s-20.8-27.34-30.16-13,13-84.16,70.85-87.26C1967,1035.43,2018.81,1064.4,2018.81,1064.4Z" transform="translate(-278.22 -266.46)"/><ellipse class="cls-6" cx="1583.45" cy="762.84" rx="54.62" ry="51.25"/><polygon class="cls-18" points="1474.65 1909.48 1487.14 1909.48 1567.8 1535.77 1540.32 1535.77 1474.65 1909.48"/><polygon class="cls-18" points="1863 1909.48 1850.51 1909.48 1756.64 1522.56 1784.12 1522.56 1863 1909.48"/><path class="cls-18" d="M1895.39,1816.23c-50,0-81.74-9-102-28.69-25.08-24.43-30.27-62.27-30.34-111.57-.06-38.8-1-64.07-3.09-84.5a14,14,0,0,1,27.85-2.87c2.2,21.41,3.17,47.53,3.23,87.32.08,50,6.42,76.49,21.88,91.56,15.86,15.45,44.55,21.83,93,20.62,46.77-1.15,79-7.7,104.83-13,34-6.91,58.61-11.91,87.76,2a14,14,0,1,1-12.07,25.27c-20.69-9.89-38.24-6.32-70.11.16-26.95,5.48-60.48,12.29-109.72,13.51C1902.79,1816.18,1899,1816.23,1895.39,1816.23Z" transform="translate(-278.22 -266.46)"/><path class="cls-18" d="M1781.71,1574.38l76.59,3.19L1837.91,1789s-57.09-36.44-56.2-75.66S1781.71,1574.38,1781.71,1574.38Z" transform="translate(-278.22 -266.46)"/><path class="cls-9" d="M2159.81,1594.08c64.77-9.83,86.77-6.73,126.41,67s92.4,206.58,122.74,223.73c45.69,25.83,60.83,89.17,79.59,86.32s30.83,5.45,10.42,22.41-53.38,31.41-64.65,28.4-20-51.72-49.46-67.53-20.6-28.81-18.66-42.8-85.94-78.39-152.19-158.49c-40.48-48.94-61.32-81.25-64.41-110.53S2159.81,1594.08,2159.81,1594.08Z" transform="translate(-278.22 -266.46)"/><path class="cls-12" d="M2320.36,1861.56c-15-38.16-30.13-101.14-44.31-158.88-20.17-82.11-41.31-101.61-54.7-110.37-16.19-4.06-35.38-2.2-61.54,1.77,0,0-13.3,19.27-10.21,48.55s23.93,61.58,64.41,110.53c34.87,42.17,75.74,80,106.35,108.4Z" transform="translate(-278.22 -266.46)"/><path class="cls-18" d="M2179.53,1659s-17.23,130-33.28,143.23c-11.48,9.45-19.61,10.08-27.63-28.7S2131.1,1590,2131.1,1590Z" transform="translate(-278.22 -266.46)"/><polygon class="cls-9" points="1887.58 1462.9 1728.1 1489.7 1818.14 1360.59 1886.66 1346.64 1927.75 1356.09 1887.58 1462.9"/><path class="cls-18" d="M2366.19,1911.65c-5.17,20.84-4.55,36.24,4.44,44s42.93,65.07,42.93,65.07l10.57-1.6-24.48-52.48Z" transform="translate(-278.22 -266.46)"/><path class="cls-18" d="M2434.31,2022c11.27,3,44.24-11.43,64.65-28.4s8.34-25.26-10.42-22.41a8.1,8.1,0,0,1-3.14-.16c-9.37,20.93-40.19,36.63-50.13,14.52-9.85-21.91-52.08-65.52-69.09-74.85a4,4,0,0,1,0,1c-1.93,14-10.78,27,18.66,42.8S2423,2019,2434.31,2022Z" transform="translate(-278.22 -266.46)"/><path class="cls-12" d="M1834.3,1599.29c-56.58,101.54-17.93,166.08,50.84,172.65s177.33-6,240.62-58.57,115.23-108.19,108-116.49S1834.3,1599.29,1834.3,1599.29Z" transform="translate(-278.22 -266.46)"/><path class="cls-9" d="M2155.17,1675.05c11.59-34.76,24.94-61.43,50.8-61.91,27.19-.51,43.91,13.64,45.08,58.12,1.38,53,3.25,228.39.8,306.39-1.85,59,15.36,77.95,13.9,139.5-1.09,46.36,48.33,22.94,29.24,47-13.13,16.53-52.21,11.13-76.21,8.07-21.39-2.72,11.07-66.82-18.53-84-25.4-14.71-25.9-38.58-9.86-56.66s1.78-71.55-8.91-109-27.28-77.93-38.18-166.45C2140.19,1730.92,2148.09,1696.28,2155.17,1675.05Z" transform="translate(-278.22 -266.46)"/><path class="cls-18" d="M2278.08,2145.2c-8.19,2.5-18.28,5.25-27.08,5.54-17.83.59-23.17-19-24.36-45.65-1-23.26-17.93-59.88-35.25-74.74-.32.42-.65.84-1,1.23-16,18.07-15.54,42,9.86,56.66,29.6,17.14-2.86,81.24,18.53,84,24,3.05,63.08,8.46,76.21-8.07C2307.4,2148.5,2292,2147.26,2278.08,2145.2Z" transform="translate(-278.22 -266.46)"/><path class="cls-18" d="M2194.4,2025s-26,27.15-23.62,38.44,10.39,39.81,11.73,61.8,2.53,47.22,2.53,47.22,9.36,0,10.1-2.66,5.94-89.36,5.94-89.36Z" transform="translate(-278.22 -266.46)"/><path class="cls-16" d="M1807.05,1590s-33.56,142.43,8.84,181.91,218.48,4,260,1.6c28.08-1.6,55.26,32.67,55.26,32.67s-19.61-79.46-6.24-143.64,34.94-68.49,34.94-68.49l-28.71-4h-324Z" transform="translate(-278.22 -266.46)"/><path class="cls-14" d="M1799.45,1552.79c14.35,30.45-15.45,83-5,98.19s70.23,2.12,109.41-29.41,113.34-38.47,113.34-38.47Z" transform="translate(-278.22 -266.46)"/><path class="cls-18" d="M1860.15,1812.31c118.55,4.46,243.33,2.35,243.33-15.31s-5.35-30.14-97.15-23-154.19,16.94-181.82,10.7S1860.15,1812.31,1860.15,1812.31Z" transform="translate(-278.22 -266.46)"/><path class="cls-18" d="M2864.29,1605H1194.07a12.91,12.91,0,0,1-12.91-12.91v-6.45a12.91,12.91,0,0,1,12.91-12.91H2864.28a12.91,12.91,0,0,1,12.91,12.91v6.45A12.9,12.9,0,0,1,2864.29,1605Z" transform="translate(-278.22 -266.46)"/><path class="cls-15" d="M789.67,1285.62c-86.5,49.46-206.82,255.08-181.42,288.63S770,1519.57,770,1519.57Z" transform="translate(-278.22 -266.46)"/><path class="cls-6" d="M951.28,1047.18c-33-.9-20.77-25.45-58.76-15.65-20,5.15-5.23,13.37-31.17,10.7s-38.71-5.35-42,11.59-4.85,22.28-17.33,25-18.11,25,0,40.11,9.31,21.39,5.3,33.87,9.66,13.37,17.09,25-6.84,13.78,3.86,23.82,25.7,9.15,25.7,9.15l45-86.33Z" transform="translate(-278.22 -266.46)"/><path class="cls-18" d="M1624.26,2083.39s48.13,1.34,85.56-13.37,62.83-37.43,56.15-10.7-37.43,72.61-64.17,77.08-36.1,33.88-50.8,33.88-36.1-33.88-73.53-50.82C1543.35,2104,1624.26,2083.39,1624.26,2083.39Z" transform="translate(-278.22 -266.46)"/><path class="cls-18" d="M1245,2078.88s20.24,27.91,55.47,47.33c36.38,20.05,78.36,29.71,52.33,38.78s-64.08,16.12-101.2,5.34c-26-7.56-56.55-9.14-64.62-21.44s9.49-43.19,2.19-89.35C1183.31,2022.54,1245,2078.88,1245,2078.88Z" transform="translate(-278.22 -266.46)"/><path class="cls-8" d="M1019.62,1630.22s278.8,104.39,301.26,133.57,315.52,295,315.52,314.63-49.91,55.26-49.91,55.26-251.35-154.19-313.74-232.63-214.66-116.25-295.61-123.51S1019.62,1630.22,1019.62,1630.22Z" transform="translate(-278.22 -266.46)"/><path class="cls-7" d="M1030.31,1630.22s190.74-7.13,231.74,0,130.93,7,72.11,173.06c-46.1,130.12-61.32,294.86-61.32,294.86l-91.67,22.52s3.64-296.23,47.38-375.11c-31.86,5.25-90.33,15.5-171.36,38.67-150.33,43-232.76,21.46-232.76,21.46l-22.38-78.43Z" transform="translate(-278.22 -266.46)"/><polygon class="cls-9" points="592.81 871.3 546.21 1009 605.08 1047.77 638.45 928.79 592.81 871.3"/><path class="cls-12" d="M888.57,1295.45l28.1-100.21L871,1137.75l-17,50.37C859.87,1233.62,874.08,1271.25,888.57,1295.45Z" transform="translate(-278.22 -266.46)"/><path class="cls-9" d="M989.91,1161.07c1.51,41.88-19.06,78.13-51.76,81.35s-62.54-28-66.65-69.68,19.06-78.13,51.76-81.35S987.52,1095,989.91,1161.07Z" transform="translate(-278.22 -266.46)"/><path class="cls-14" d="M802,1271.45C659,1368.06,748,1524.18,779.37,1638.27c26.76,97.17,25.88,155.9,29.89,155.9s102.4-14.71,158.54-65.51,94.11-100,94.11-100-71.94-12.81-95.45-105.87c-11.94-47.25-6.51-72.9-33.72-147.76S802,1271.45,802,1271.45Z" transform="translate(-278.22 -266.46)"/><path class="cls-14" d="M802,1271.45,817.36,1234s48.58,32.09,68,47.24,31.34,18.72,31.34,18.72,7,53.74,2.46,48.86C861.79,1287.33,802,1271.45,802,1271.45Z" transform="translate(-278.22 -266.46)"/><polygon class="cls-18" points="460.42 1923.74 472.91 1923.74 562.48 1550.03 535 1550.03 460.42 1923.74"/><polygon class="cls-18" points="834.59 1923.74 822.1 1923.74 719.32 1536.82 746.8 1536.82 834.59 1923.74"/><path class="cls-18" d="M877.79,1830.49c-50,0-81.74-9-102-28.69-25.08-24.43-30.27-62.27-30.34-111.57-.16-103.65-5.89-125.08-35.07-188.37a14,14,0,1,1,25.43-11.73c30.84,66.9,37.48,91.49,37.64,200,.08,50,6.41,76.49,21.88,91.56,15.86,15.45,44.54,21.82,93,20.62,46.77-1.15,79-7.7,104.83-13,34-6.92,58.61-11.91,87.76,2a14,14,0,1,1-12.07,25.27c-20.69-9.89-38.24-6.32-70.11.16-27,5.48-60.48,12.29-109.72,13.51C885.19,1830.45,881.43,1830.49,877.79,1830.49Z" transform="translate(-278.22 -266.46)"/><path class="cls-8" d="M1495.92,1574H1293a14,14,0,0,1,0-28h194l78.24-168.38a14,14,0,0,1,25.4,11.8l-82,176.48A14,14,0,0,1,1495.92,1574Z" transform="translate(-278.22 -266.46)"/><path class="cls-15" d="M807.34,1412.11s35.65,108.74,79.77,153.75S1020,1626,1047.82,1624.22c-22.16-8.91-64.37-34.26-81.34-101.45-11.94-47.25-6.51-72.9-33.72-147.76-20.2-55.57-82.43-85.71-113.17-97.55,38.36,27.55,86.33,72.93,101.07,107.46C937,1423.26,807.34,1412.11,807.34,1412.11Z" transform="translate(-278.22 -266.46)"/><path class="cls-9" d="M1299.42,1507.54s61.5-28.07,68.18-25.4,74.87,43.84,74.87,50.66-60.16-25.42-60.16-25.42,6.68,17.82,2.67,26.37-50.26,8.55-92,5.87S1299.42,1507.54,1299.42,1507.54Z" transform="translate(-278.22 -266.46)"/><path class="cls-14" d="M809.31,1328.1c-56.69,116.19,137.77,234,253.13,244.44s252.43-27.28,252.43-27.28l-15.45-37.72s-231.12-30.17-237-34.39S830.07,1285.55,809.31,1328.1Z" transform="translate(-278.22 -266.46)"/><path class="cls-9" d="M883,1141.68c5.25,13.82,1.4,28.1-8.6,31.91s-22.38-4.31-27.63-18.13-1.4-28.1,8.61-31.91S877.76,1127.86,883,1141.68Z" transform="translate(-278.22 -266.46)"/><path class="cls-6" d="M990,1053.22c15.66-6.54,33.3-13.54,27.84,13.07-2.38,11.59,0,8.32,4.16,19s-10.48,19.09-15.24,25,6.92,12.4-2.59,19.53-22-2.64-30.9,0c-26.44,7.89-23.17-12.91-38-17.23s-22.14-3.66-25,5.85,10.4,40.79-.89,37.82-13.83,22.28-16.87,36.54-10.78-9.84-10.28-26.16c.77-25-5.44-35.53-14.66-42.53s-13.14-70.65,31.42-73,44.85-6.68,63.86-10.7S982.85,1056.2,990,1053.22Z" transform="translate(-278.22 -266.46)"/><path class="cls-19" d="M1062.08,922.44h67.35c0,36.94-30.41,67.35-67.35,67.35s-67.35-30.41-67.35-67.35a67.67,67.67,0,0,1,67.35-67.35Z" transform="translate(-278.22 -266.46)"/><path class="cls-10" d="M1135.31,914.81A67.35,67.35,0,0,0,1068,847.46v67.35Z" transform="translate(-278.22 -266.46)"/><path class="cls-20" d="M994.61,922.61A67.35,67.35,0,0,0,1062,990C1025,990,994.61,959.55,994.61,922.61Z" transform="translate(-278.22 -266.46)"/><path class="cls-20" d="M1062,855.26a67.35,67.35,0,0,0-67.35,67.35A67.67,67.67,0,0,1,1062,855.26Z" transform="translate(-278.22 -266.46)"/><path class="cls-20" d="M1062,990a67.36,67.36,0,0,0,67.35-67.35C1129.31,959.55,1098.9,990,1062,990Z" transform="translate(-278.22 -266.46)"/><rect class="cls-10" x="1006.31" y="515.97" width="18.09" height="177.86"/><rect class="cls-10" x="1238.21" y="573.84" width="18.09" height="119.98"/><rect class="cls-19" x="1082.99" y="277.7" width="18.09" height="416.12"/><rect class="cls-10" x="1121.33" y="506.79" width="18.09" height="187.03"/><rect class="cls-19" x="1159.67" y="453.86" width="18.09" height="239.99"/><rect class="cls-19" x="1044.65" y="398.54" width="18.09" height="295.28"/><rect class="cls-19" x="1198.13" y="330.14" width="18.09" height="363.69"/><g class="cls-21"><path class="cls-14" d="M1183.66,708.18,1065,635.59,1043.5,773.06A139.29,139.29,0,0,0,1183.66,708.18Z" transform="translate(-278.22 -266.46)"/></g><g class="cls-21"><path class="cls-22" d="M1183.78,708c.33-.53.74-1.25.72-1.22a139.16,139.16,0,0,0,3.09-137c-42,22-17,8.63-122.63,65.76C1183.86,708.3,1165.39,697.08,1183.78,708Z" transform="translate(-278.22 -266.46)"/></g><g class="cls-21"><path class="cls-19" d="M934.48,587.5,1065,635.58l122.4-66.18C1130.11,463.52,976,476.21,934.48,587.5Z" transform="translate(-278.22 -266.46)"/></g><g class="cls-21"><path class="cls-10" d="M1043.49,773.06,1065,635.59,934.47,587.51C903.45,670.69,958.52,759.66,1043.49,773.06Z" transform="translate(-278.22 -266.46)"/></g><g class="cls-21"><path class="cls-5" d="M925.94,610.26a13.3,13.3,0,0,1,6.59,1.71,133,133,0,0,1,4.74-18.51l70.85,26.1s0,0,0-.06a12.62,12.62,0,0,1,3.07-8.65l-7.09-2.61-63.61-23.43A136.4,136.4,0,0,1,961,550.34a13.72,13.72,0,0,1-7.07-5.94,145.68,145.68,0,0,0-22.08,37.21l-.07,0-1.61,4.32-1.62,4.34.08,0a142.39,142.39,0,0,0-5.19,20.26A13.49,13.49,0,0,1,925.94,610.26Z" transform="translate(-278.22 -266.46)"/></g><g class="cls-21"><path class="cls-2" d="M1193.54,571.31l.08,0-2.2-4.06c-.05-.08-.09-.17-.14-.24l-1.79-3.34-.07,0c-13.85-24.06-33.6-43.26-57.34-55.63a145.94,145.94,0,0,0-159.44,17.41,14.14,14.14,0,0,1,5.86,7.14,134.84,134.84,0,0,1,77.73-31c51.5-3.58,98.9,21.62,124.82,66l-36.15,19.54c-7.46,4-17.89,9.66-35.36,19.12l-43.31,23.42-1.12.6-3.63-2.22-.2,1.26-25.45-9.38a12.77,12.77,0,0,1-3.41,8.59l27.4,10.1-20.16,129.08A135.36,135.36,0,0,1,930.44,637.13,13.31,13.31,0,0,1,926,638a13.49,13.49,0,0,1-4.75-.87,144.62,144.62,0,0,0,117,139.72v.08l4.55.72,4.57.72v-.08a143.91,143.91,0,0,0,137.91-64l.09.06.91-1.48s1.46-2.41,1.46-2.41c.23-.37.5-.83.65-1.09l.1-.17a.74.74,0,0,0,.08-.13l1.46-2.39-.06,0A144.35,144.35,0,0,0,1193.54,571.31ZM1048.77,769.13l19.68-126,51.22,31.31c20.64,12.64,32.45,19.86,39.89,24.4l17.69,10.81A134,134,0,0,1,1048.77,769.13Zm133.38-67.46-.88-.52c-4.85-2.87-7-4.12-16.62-10l-90.43-55.3,75.07-40.59c11-5.93,15.54-8.29,26.74-14.14,2.73-1.44,5.86-3.07,9.59-5A135.07,135.07,0,0,1,1182.15,701.67Z" transform="translate(-278.22 -266.46)"/></g><path class="cls-10" d="M1789.91,573.27H1654.1V494.11h102.14c13.15,13.16,20.52,20.53,33.67,33.67Z" transform="translate(-278.22 -266.46)"/><polygon class="cls-20" points="1475.52 227.65 1475.52 269.9 1511.69 269.9 1511.69 261.78 1477.79 227.88 1475.52 227.65"/><polygon class="cls-23" points="1478.02 227.65 1478.02 261.78 1511.69 261.78 1478.02 227.65"/><path class="cls-5" d="M1729.94,523.81h-60.52a2.4,2.4,0,1,1,0-4.79h60.52a2.4,2.4,0,1,1,0,4.79Z" transform="translate(-278.22 -266.46)"/><path class="cls-5" d="M1729.94,536.09h-60.52a2.4,2.4,0,0,1,0-4.8h60.52a2.4,2.4,0,0,1,0,4.8Z" transform="translate(-278.22 -266.46)"/><path class="cls-5" d="M1729.94,549h-60.52a2.4,2.4,0,1,1,0-4.79h60.52a2.4,2.4,0,1,1,0,4.79Z" transform="translate(-278.22 -266.46)"/><circle class="cls-8" cx="1439.73" cy="233.73" r="4.06"/><rect class="cls-24" x="1640.64" y="841.19" width="141.24" height="117.14" transform="translate(224.98 2142.8) rotate(-79.06)"/><path class="cls-19" d="M1757.9,901.5l-61-11.78a3,3,0,0,1,1.13-5.9l61,11.78a3,3,0,1,1-1.13,5.9Z" transform="translate(-278.22 -266.46)"/><path class="cls-19" d="M1755,916.75,1694,905a3,3,0,1,1,1.13-5.9l61,11.78a3,3,0,0,1-1.14,5.9Z" transform="translate(-278.22 -266.46)"/><path class="cls-19" d="M1751.93,932.42l-61-11.78a3,3,0,0,1,1.13-5.9l61,11.78a3,3,0,0,1-1.13,5.9Z" transform="translate(-278.22 -266.46)"/><path class="cls-8" d="M1716.62,837.92a5,5,0,1,1-4-5.87A5,5,0,0,1,1716.62,837.92Z" transform="translate(-278.22 -266.46)"/><path class="cls-19" d="M1788,737.62H1656.06V655h104.56L1788,682.27Z" transform="translate(-278.22 -266.46)"/><polygon class="cls-5" points="1481.18 394.53 1383.02 394.52 1383.02 464.26 1505.05 464.28 1505.06 423.44 1481.18 423.43 1481.18 394.53"/><path class="cls-19" d="M1748.88,687.43h-63.59a2.65,2.65,0,1,1,0-5.3h63.59a2.65,2.65,0,0,1,0,5.3Z" transform="translate(-278.22 -266.46)"/><path class="cls-19" d="M1748.88,701.45h-63.59a2.65,2.65,0,1,1,0-5.3h63.58a2.65,2.65,0,0,1,0,5.3Z" transform="translate(-278.22 -266.46)"/><path class="cls-19" d="M1748.88,716.08h-63.59a2.65,2.65,0,0,1,0-5.3h63.59a2.65,2.65,0,1,1,0,5.3Z" transform="translate(-278.22 -266.46)"/><circle class="cls-8" cx="1428.65" cy="402.23" r="4.06"/><polygon class="cls-18" points="956.8 1900.81 969.29 1900.81 1049.95 1338.58 1022.48 1338.58 956.8 1900.81"/><polygon class="cls-18" points="2556.64 1900.81 2544.16 1900.81 2463.49 1338.58 2490.97 1338.58 2556.64 1900.81"/><path class="cls-25" d="M3324.2,1899.29s-39.86-46.5-2.46-76c0,0,27.32-16.54,49.61-15.2,0,0-31.57,52.93-21.36,58.2s30.92-61.52,30.92-61.52,62.18-6,82.18,3.58c0,0-53.15,43.49-42,46.08s68.6-40.1,68.6-40.1,57.86,9.85,54.77,45.15-23,46.2-31.78,45.27-60-20.51-61.15-13.33,29.75,30.65,51.36,31.74c0,0-40.8,45-67.91,32s-29.43-33.56-46.33-41.28-31.33-7.7-24.35.18,37.57,15.52,47.23,32.62,18.33,28.63-9.72,24.41-73.64-24.75-75.65-48.25Z" transform="translate(-278.22 -266.46)"/><path class="cls-25" d="M3516.07,1860.41s-157.16-6.06-191.87,38.88c0,0-7.67,23-31.3,43.93l-3.67,10s27.24-28.72,37-30.44C3326.2,1922.79,3311,1867.12,3516.07,1860.41Z" transform="translate(-278.22 -266.46)"/><path class="cls-25" d="M3292.9,1943.22s-33.73,25-36.07,69.52l6.12.55s10.78-46.09,30.25-64.11S3292.9,1943.22,3292.9,1943.22Z" transform="translate(-278.22 -266.46)"/><path class="cls-25" d="M3184.84,1840.8s63.41-35.51,33.82-83.69c0,0-23.67-29.59-49-37.19,0,0,13.53,71.86,0,73.55s-9.29-81.17-9.29-81.17-66.8-32.13-93-29.59c0,0,41.42,70.17,27.89,68.48s-60-72.71-60-72.71-68.48-12.68-79.48,27.9,6.77,60.87,16.91,63.41,75.25,1.69,73.56,10.14-45.66,22-70.17,14.37c0,0,27.05,66.79,62.56,63.41s46.5-25.35,68.48-27,38,4.23,27.05,10.14-48.19,1.94-66,17-32.13,24.4.85,31.16,92.15,2.53,104-22.82Z" transform="translate(-278.22 -266.46)"/><path class="cls-25" d="M2987,1719.07s177.53,57.49,197.83,121.75c0,0-.85,28.74,16.91,61.71v12.68s-18.6-43.11-28.74-49C3173,1866.18,3212.74,1810.38,2987,1719.07Z" transform="translate(-278.22 -266.46)"/><path class="cls-25" d="M3201.74,1902.52s27.38,41.58,11.77,92.19l-7-1.89s6.84-55.75-7.48-83.79S3201.74,1902.52,3201.74,1902.52Z" transform="translate(-278.22 -266.46)"/><path class="cls-26" d="M3285.71,1791.84s-83.58-46.81-44.57-110.34c0,0,31.2-39,64.63-49,0,0-17.82,94.73,0,97s12.26-107,12.26-107,88-42.35,122.59-39c0,0-54.61,92.49-36.78,90.27s79.12-95.84,79.12-95.84,90.27-16.72,104.75,36.78-8.92,80.24-22.29,83.59-99.18,2.23-97,13.37,60.18,29,92.49,18.94c0,0-35.66,88-82.47,83.59s-61.29-33.43-90.27-35.66-50.16,5.57-35.67,13.37,63.53,2.56,86.93,22.46,42.35,32.15-1.12,41.07-121.47,3.33-137.08-30.1Z" transform="translate(-278.22 -266.46)"/><path class="cls-26" d="M3546.49,1631.36s-234,75.78-260.78,160.48c0,0,1.12,37.88-22.29,81.35v16.72s24.51-56.84,37.89-64.63C3301.32,1825.27,3248.93,1751.72,3546.49,1631.36Z" transform="translate(-278.22 -266.46)"/><path class="cls-26" d="M3263.42,1873.19s-36.09,54.81-15.51,121.52l9.28-2.49s-9-73.48,9.87-110.44S3263.42,1873.19,3263.42,1873.19Z" transform="translate(-278.22 -266.46)"/><path class="cls-26" d="M3282.89,2139.39a163.72,163.72,0,0,0,163.72-163.73H3119.17A163.73,163.73,0,0,0,3282.89,2139.39Z" transform="translate(-278.22 -266.46)"/><path class="cls-26" d="M3448.88,2147.73h-332a20.2,20.2,0,0,1,20.21-20.2h291.57a20.2,20.2,0,0,1,20.2,20.2Z" transform="translate(-278.22 -266.46)"/><rect class="cls-27" x="2835.57" y="1709.2" width="336.56" height="5.02"/></svg>
