<svg id="_Layer_" data-name="&lt;Layer&gt;" xmlns="http://www.w3.org/2000/svg" viewBox="0 0 2575 1321.53"><defs><style>.cls-1{fill:#ebf2f9;}.cls-2{fill:#acd29a;}.cls-3{fill:#ffb07b;}.cls-4{fill:#365da4;}.cls-5{fill:#2b478b;}.cls-6{fill:#c65447;}.cls-7{fill:#ea8e50;}.cls-8{fill:#ed7d2b;}.cls-9{fill:#f99746;}.cls-10{fill:#80bdcc;}.cls-11{fill:#5f9aa8;}.cls-12{fill:#2c3a64;}.cls-13{fill:#35488b;}.cls-14{fill:#a16d3c;}.cls-15{fill:#4a75cb;}.cls-16{fill:#699dee;}.cls-17{fill:#c3e0f4;}.cls-18{fill:#1e3d70;}.cls-19{fill:#233862;}.cls-20{fill:#2a4e96;}.cls-21{fill:#82b378;}.cls-22{fill:#2e3552;}</style></defs><path class="cls-1" d="M541.91,1503.26S44.48,1005.4,353.39,707.72,906.45,796.48,1075.3,768C1289,732,1381.45,189.75,1701,189.23c363.53-.59,630.36,214.32,488.23,726.12-104.83,377.49,615.73,68.36,509.9,595.24Z" transform="translate(-200 -189.23)"/><path class="cls-2" d="M1626.84,1438.57c-67.62-10.88-118.67,12.81-167.76,6-39.15-5.43-59.55-45-112.16-56.26,12.51-7.38,27.09-16.61,34.06-23.32,13.54-13,33-39.12,0-40.15-23.73-.74-42.21,38.79-50.72,61a162.82,162.82,0,0,0-25.41,0c10.86-35,32-102.74,37.21-115.75,7-17.71-22.56-76.75-57.45-10.49-24.47,46.47-7.85,100.18,4.25,128.11a195.18,195.18,0,0,0-27.2,6.46c-28.84-65.78-120.56-253.34-220-230-108.4,25.41,123.84,151.49,182.41,245-47.85,22.18-89.89,49.12-162.57,29.45C868.36,1386.28,853,1503.93,853,1503.93l863.11.29S1694.46,1449.45,1626.84,1438.57Z" transform="translate(-200 -189.23)"/><path class="cls-3" d="M1392.05,1015.23c.89,8.31,12.64,8,25.92,6s9.85,1.5,28.53,1.14,24.91-6.75,25.72-9.44c.73-2.39-8.33-4.09-18-6.11l-3.67-.78c-10.94-2.4-18.39-10.28-27.91-17.06-9-6.42-15.09-35.85-15.09-35.85L1381,953s8.34,26.62,12.69,35.87c2.56,5.44-.17,12.43-1,17.68A32.39,32.39,0,0,0,1392.05,1015.23Z" transform="translate(-200 -189.23)"/><path class="cls-4" d="M1418,1021.24c13.28-2,9.85,1.5,28.53,1.14s24.91-6.75,25.72-9.44c.73-2.39-8.33-4.09-18-6.11l-.11.18a52.39,52.39,0,0,1-27.23,5.82c-12.57-.84-25.53-5.65-34.21-6.29a32.86,32.86,0,0,0-.6,8.69C1392.93,1023.53,1404.69,1023.23,1418,1021.24Z" transform="translate(-200 -189.23)"/><path class="cls-3" d="M1184.46,1013.91c.58,8.33,12.33,8.48,25.68,7s9.79,1.87,28.46,2.21,25.14-5.8,26.06-8.47c.82-2.37-8.17-4.4-17.79-6.79l-3.64-.92c-10.84-2.81-18-11-27.24-18.09-8.77-6.76-1.55-34.79-1.55-34.79l-20.15-9.51s-2.77,28.89-4.27,43.5c-.61,6-3.59,12-4.65,17.2A33.63,33.63,0,0,0,1184.46,1013.91Z" transform="translate(-200 -189.23)"/><path class="cls-4" d="M1210.14,1020.9c13.35-1.49,9.79,1.87,28.46,2.21s25.14-5.8,26.06-8.47c.82-2.37-8.17-4.4-17.79-6.79l-.12.18a52.4,52.4,0,0,1-27.43,4.79c-12.53-1.31-25.3-6.6-34-7.58a32.3,32.3,0,0,0-.92,8.66C1185,1022.24,1196.79,1022.39,1210.14,1020.9Z" transform="translate(-200 -189.23)"/><path class="cls-5" d="M1229.72,597.91s-5.58,27-11.17,164.06a440.86,440.86,0,0,0-17.88,56.4c-7.52,31-12.83,160.48-12.83,160.48s3,4.32,12.1,4.87a26.32,26.32,0,0,0,13.22-2.81s52.27-169.56,77.72-235.38,40.35-159.82,40.35-159.82Z" transform="translate(-200 -189.23)"/><path class="cls-5" d="M1292.59,609.48s4.12,27.28,46.32,157.78a442.07,442.07,0,0,0,2.75,59.1c3.69,31.71,46.4,156.56,46.4,156.56s5.67,2,14.18-.28a44.81,44.81,0,0,0,14.11-6.85s-16.38-178.44-15.3-249-17.48-163.91-17.48-163.91Z" transform="translate(-200 -189.23)"/><path class="cls-6" d="M1367.33,231.54c-6.62-4.21-14.75-5-20.48-5a9.72,9.72,0,0,1,4.46-1.85c-3.51-.7-11.59,2.41-11.59,2.41-48.27-21.43-59.63,50.66-59.44,67.55s-.66,36.28-26,50.15c-49.83,27.3-11.63,81.21-11.63,81.21-9,25.74,24.24,57.27,24.24,57.27-.56-13.67,62.18-100.75,96-120.62,8.56-11.34,12.43-31.94,12.73-33.56-2.2,16.37-5.47,25.46-8.25,30.52C1396.41,335.5,1384.86,242.69,1367.33,231.54Z" transform="translate(-200 -189.23)"/><path class="cls-3" d="M1356.81,353.34c.17.08-15.83,8.38-27.86,5.09-11.32-3.08-18.72-17.77-18.56-17.8,4.79-.95,6.18-7.54,6.08-35.84l2.17.43,35.13,7,1.31.25s-.83,11.47-.86,22.27c0,2.29,0,4.54.11,6.65C1354.56,347.62,1355.26,352.61,1356.81,353.34Z" transform="translate(-200 -189.23)"/><path class="cls-7" d="M1354.21,334.7c0,2.29,0,4.54.11,6.65-20.43-.82-32.21-24.19-36.66-34.44l36.1,5.27,1.31.25S1354.24,323.9,1354.21,334.7Z" transform="translate(-200 -189.23)"/><path class="cls-6" d="M1314.87,301.25s-10.69-16.88-13.25-31.32c-1.83-10.31,3.42-48.51,41.81-43a52.16,52.16,0,0,1,21.63,8.18c8.34,5.63,20.37,17.78,6.92,51.12l-3.49,11.26Z" transform="translate(-200 -189.23)"/><path class="cls-3" d="M1357.22,329.41s-47.83-6.32-43.44-36.05,1.18-50.57,31.91-47.79,35,15,35.92,25.28S1369.77,330.29,1357.22,329.41Z" transform="translate(-200 -189.23)"/><path class="cls-6" d="M1367.53,248.08s-18.26,32.92-39.08,35.09-28.72-4.5-28.72-4.5a57.43,57.43,0,0,0,23.57-30.78S1360.15,230,1367.53,248.08Z" transform="translate(-200 -189.23)"/><path class="cls-6" d="M1363.87,250.43s8.6,9.24,9.85,17.16,0,23.66,4.62,23.81c0,0,13.38-22.24,4.31-37.29C1373,238.15,1363.87,250.43,1363.87,250.43Z" transform="translate(-200 -189.23)"/><path class="cls-8" d="M1681.54,654.34c-10-21.26-37.93-38.85-61.44-38.85a69.84,69.84,0,0,0-44.52,15.57,11.72,11.72,0,0,1-18.83-6.66l-20.57-95.59A25.82,25.82,0,0,0,1505.51,509L1172.6,580.65a25.23,25.23,0,0,0-19.35,30l71.57,332.55a26.16,26.16,0,0,0,17.67,19.44l-4.37,1.24H1251l.11,0a27.1,27.1,0,0,0,4.78-.57l7.25-1.56h0l85.44-18.39a16.12,16.12,0,0,0,8.8-26.33,69.24,69.24,0,1,1,116-18.36,11,11,0,0,0,3.25,13l-5,2.43h11.55a11.22,11.22,0,0,0,2.67-.25l102-22a25.82,25.82,0,0,0,19.81-30.68l-20.45-95a12.09,12.09,0,0,1,14.84-14.26,68.86,68.86,0,0,0,31.74.6C1676.51,743.28,1701.47,696.55,1681.54,654.34Z" transform="translate(-200 -189.23)"/><path class="cls-9" d="M1608.34,615.48a69.84,69.84,0,0,0-44.52,15.57,11.72,11.72,0,0,1-18.83-6.66l-20.57-95.59A25.82,25.82,0,0,0,1493.75,509l-332.91,71.65a25.23,25.23,0,0,0-19.35,30l71.57,332.55a26.19,26.19,0,0,0,31.11,20.09l92.69-20a16.12,16.12,0,0,0,8.8-26.33,69.24,69.24,0,1,1,116-18.36,11,11,0,0,0,12.47,15.15l102-22a25.83,25.83,0,0,0,19.81-30.68l-20.45-95a12.1,12.1,0,0,1,14.84-14.26,68.86,68.86,0,0,0,31.74.6c42.69-9.19,67.64-55.91,47.71-98.13C1659.74,633.08,1631.85,615.49,1608.34,615.48Z" transform="translate(-200 -189.23)"/><path class="cls-3" d="M1486.53,489.06s20.76,3.4,26.21,16.91-2.16,22.65-5.08,22.62-8.53-2.19-11.15-9.2S1486.53,489.06,1486.53,489.06Z" transform="translate(-200 -189.23)"/><path class="cls-3" d="M1200.66,549.31s23.31,0,31.7,13.75,1.73,25.14-1.47,25.64-9.71-.86-13.85-8S1200.66,549.31,1200.66,549.31Z" transform="translate(-200 -189.23)"/><path class="cls-10" d="M1487.11,504.73c-2.07-.44-11.1-1.5-22.6-3.31-21.16-3.32-50.67-9.17-60.57-18.3-2.68-2.48-8.93-16.12-15.42-31.76-6.57,34.62-6.93,61.18-5.19,81.39l-143,30.79c12.27-24.8,31.25-55.54,27.69-80.42-1.32-9.22-6.37-21.88-8.26-36.1-.16-1.22-.29-2.45-.4-3.69-20.06,16.51-43.24,34.73-43.79,38.38-.92,6.11,14.7,73.73,14.7,73.73-3.88,8.93-20.72,7-20.72,7-15.79-11.27-39-75.15-37.14-89.3s59.42-94.8,73.35-114.07c13.76-19,64-18.57,65.21-18.56h0c40,24,43.55,4.05,43.55,4.05s36,6.86,42.24,17.5,33.36,91.4,35.28,94.25c4,5.95,69.69,29.74,70.87,36.63S1493,506,1487.11,504.73Z" transform="translate(-200 -189.23)"/><path class="cls-11" d="M1290.17,552.86l-49.88,10.69c12.42-24.73,28.74-55.52,25.17-80.25-1.33-9.23-4.33-20.16-5.77-34.44-.14-1.38-.38-5.52-.38-5.52s35.32,27.8,35.94,57.88C1295.59,516.82,1292.86,537.23,1290.17,552.86Z" transform="translate(-200 -189.23)"/><path class="cls-11" d="M1465.84,501.6c-21.42-3.33-51.29-9.17-61.31-18.31-2.72-2.48-9-16.14-15.61-31.8,0,0-2.3-25.17,4.28-24.23s16.26,45.58,23.17,48.4C1422.55,478.2,1456.73,491.32,1465.84,501.6Z" transform="translate(-200 -189.23)"/><g id="man"><path class="cls-12" d="M2521.1,1460.52c-3,10.17-17,17-18.84,29.39a27.07,27.07,0,0,1-6.05,14h-43.4c.43-2.39,2.34-5,8-6.2,12.05-2.64,16.6-17.25,15.85-30.81-.31-5.69-.17-12.17.11-17.78.38-7.77,1-13.87,1-13.87l25.62-6,2.69,3.46,2.58,3.32S2524.11,1450.35,2521.1,1460.52Z" transform="translate(-200 -189.23)"/><path class="cls-12" d="M2319,1503.94h-87.81c2-2.33,5.36-4.58,11.07-5.51,13.51-2.19,36.92-10,42.13-27.31.17-.55.32-1.12.45-1.7,4.14-18.46,34.29,5.65,34.29,5.65s.09.74.23,2C2319.89,1482.27,2321.06,1496.37,2319,1503.94Z" transform="translate(-200 -189.23)"/><path class="cls-13" d="M2245.85,1014.77s4.58,57.12,10,125.78c7.31,93.27,16.11,207.84,17,229.54,1.5,37.69,7.54,98,7.54,98s14.31,14.32,43,8.29c0,0,25.52-86.06,32.82-177.11.11-1.49.23-3,.34-4.5,6.78-92.69,17.33-287.88,17.33-287.88Z" transform="translate(-200 -189.23)"/><path class="cls-12" d="M2245.85,1014.77s4.58,57.12,10,125.78l100.29,158.69c.11-1.49.23-3,.34-4.5,6.78-92.69,17.33-287.88,17.33-287.88Z" transform="translate(-200 -189.23)"/><path class="cls-13" d="M2266.75,1021.55s82.52,206.87,136.78,304.08S2474.75,1450,2474.75,1450s31.09-12.43,33.91-20.91c0,0-20.75-187.68-57.09-233.43-20.53-25.85-44.65-103.43-45.78-130.56s-7.35-80.82-7.35-80.82Z" transform="translate(-200 -189.23)"/><path class="cls-3" d="M2309.08,702.23c-3.67-21.66-3.78-34.5-3.78-34.5L2347.17,634c-1.56,46.4,28.17,68.71,28.17,68.71s-55.79,27.46-88,17.29A76.92,76.92,0,0,1,2309.08,702.23Z" transform="translate(-200 -189.23)"/><path class="cls-3" d="M2295.43,667s53.26,8.85,58.26-24.41S2368.93,588,2335.14,581s-42.33,4.64-46.7,15.33S2281.71,663.81,2295.43,667Z" transform="translate(-200 -189.23)"/><path class="cls-14" d="M2108.36,735.52l-11.34-7s-14.14-20.87-38.29-7.9c0,0-9.57,6.1-3.15,11.21s4.69,2.22,13.59,9.62,20.4,10,27.82,6l9.52-.9Z" transform="translate(-200 -189.23)"/><path class="cls-8" d="M2094.9,737.71c2.92-9.14,4.31-9.94,4.31-9.94s91.71,10.84,100.35,11.48,128.71-24.1,128.71-24.1L2385,784s-167.15,6.3-189,4.25c-36.15-3.39-101.7-37-101.7-37A26.64,26.64,0,0,1,2094.9,737.71Z" transform="translate(-200 -189.23)"/><path class="cls-9" d="M2404.74,994.82c.16,3.55-7.16,7.45-10.34,8.88-23.94,10.73-46.23,18.19-71.42,20.61-29.88,3.06-65.19-3.66-77.3-3.5a5.18,5.18,0,0,1-3.39-1.29c-.81-.65-1.46-37.14-.81-83.16,0-1.78,0-3.72.16-5.5v-.64c.05-4.79.12-9.66.23-14.58.3-13.45.81-27.26,1.39-41,.88-20.23,2.08-40.11,3.74-57.72,1.74-18.39,3.95-34.33,6.76-45.62,6.46-26,21.32-43.12,34.88-55.72l11.14-9.84a52.82,52.82,0,0,0,34.72-4.2c12.75-6.3,26.65-13.08,28.9-11.47,17.22,12.87,28.81,42.08,34.75,79.21a409.18,409.18,0,0,1,4.67,65.5q-.06,13.38-.83,27.11c-2.88,49,.08,91.55,1.77,116.25C2404.24,985.28,2404.63,990.93,2404.74,994.82Z" transform="translate(-200 -189.23)"/><path class="cls-15" d="M2121.58,541.53,1784.73,488a26.25,26.25,0,0,0-30,21.81l-14.91,93.89c-.69,4.35.41,16.57.41,16.57l12.14,1.81a14.77,14.77,0,0,0,2.1.31h0a16.12,16.12,0,0,0,6.78-.92,69.43,69.43,0,1,1-24.83,115.08,11,11,0,0,0-6.57-3.1h0l-12.7-1.91L1701.28,846.1a25.91,25.91,0,0,0,21.51,29.64L1819,891a12.12,12.12,0,0,1,8,19,69,69,0,0,0-12,29.46c-6.87,43.24,27.78,83.49,74.47,80.14,23.51-1.69,50-21.4,58.57-43.38a69.94,69.94,0,0,0,1.56-47.26,11.75,11.75,0,0,1,13-15.19l96.83,15.38A25.88,25.88,0,0,0,2089,907.7l53.55-337.22A25.27,25.27,0,0,0,2121.58,541.53Z" transform="translate(-200 -189.23)"/><path class="cls-8" d="M2364.62,768.31S2338.8,888.8,2241.86,915.65c.3-13.45.81-27.26,1.39-41,.88-20.23,2.08-40.11,3.74-57.72a34.36,34.36,0,0,1,4.84-2.08C2284.73,804,2364.62,768.31,2364.62,768.31Z" transform="translate(-200 -189.23)"/><path class="cls-16" d="M1935.52,974.39a69.94,69.94,0,0,0,1.56-47.26,11.75,11.75,0,0,1,13.05-15.19L2047,927.32a25.88,25.88,0,0,0,29.62-21.5l53.55-337.22a25.29,25.29,0,0,0-21-28.94l-336.85-53.5a26.26,26.26,0,0,0-30,21.81l-14.91,93.89a16.17,16.17,0,0,0,21.44,17.77,69.42,69.42,0,1,1-24.84,115.08,11.07,11.07,0,0,0-18.68,6.18l-16.41,103.34a25.91,25.91,0,0,0,21.51,29.64l96.23,15.28a12.12,12.12,0,0,1,8,19,69,69,0,0,0-12,29.46c-6.87,43.24,27.78,83.49,74.47,80.14C1900.46,1016.08,1927,996.36,1935.52,974.39Z" transform="translate(-200 -189.23)"/><path class="cls-7" d="M2108.75,813.2l-13.85-2.29s-15.79-22.85-43.31-10c0,0-10.91,6.1-3.7,11.82s5.3,2.56,15.29,10.83,23,11.56,31.47,7.52l10.8-.56Z" transform="translate(-200 -189.23)"/><path class="cls-9" d="M2098.16,820.24c.45-10.19,5.88-11.28,5.88-11.28S2209,802,2218,800.27s92.61-71,92.61-71,32.31-29,54.95-19.24c19.67,8.52,25.83,25.32,26.82,40.77a44.88,44.88,0,0,1-25.92,43.43c-37.53,17.53-112.58,51.93-129.67,54.9-38,6.61-135.81-14.57-135.81-14.57A32.08,32.08,0,0,1,2098.16,820.24Z" transform="translate(-200 -189.23)"/><path class="cls-12" d="M2288.45,596.33s-21.62-16-7.52-40.94c0,0,17,5.64,41.17,0s45.78,2.35,48.6,10.81c0,0,9.4,3.76,10.34,17.86s-27.33,58.51-27.33,58.51-6-7.52-4.39-12.69,6.81-16.68.47-16.68-8.46,9.4-11,5.64,2.12-19.5-5.4-22.09S2296.91,601.08,2288.45,596.33Z" transform="translate(-200 -189.23)"/></g><path class="cls-7" d="M2306.26,680.34c.24,2.28.42,4.52.55,6.63,20.25-2.83,31.67-17.25,35.08-27.89l-35.4,8.81-1.28.38C2305.33,669,2306.26,680.34,2306.26,680.34Z" transform="translate(-200 -189.23)"/><path class="cls-17" d="M1553.67,1491.94l-95.22-432.33h26.21a11.32,11.32,0,0,0,11.29-11.29v-14.6a11.32,11.32,0,0,0-11.29-11.29H1152.17a11.33,11.33,0,0,0-11.3,11.29v14.6a11.32,11.32,0,0,0,11.3,11.29h33.74l-95.22,432.33a10.79,10.79,0,1,0,21.07,4.67l96.25-437h228.33l96.25,437a10.82,10.82,0,0,0,12.86,8.23h0A10.85,10.85,0,0,0,1553.67,1491.94Z" transform="translate(-200 -189.23)"/><path class="cls-2" d="M2185.11,1227.18c-35.24-33.83-162.12,179.64-162.12,179.64S2220.35,1261,2185.11,1227.18Z" transform="translate(-200 -189.23)"/><path class="cls-2" d="M2180.88,1325.87c-31.2-12.48-130.91,92.64-153.37,116.92a496.24,496.24,0,0,0-56.69-4.13c-157.89-2.82-229.51,68.7-229.51,68.7l440.46,1.5s-39-49.54-149.7-65.44c27-12.77,107-50,136.13-57.13C2203.44,1377.61,2216.12,1340,2180.88,1325.87Z" transform="translate(-200 -189.23)"/><path class="cls-8" d="M2056.65,1111.61h-95.06a16.17,16.17,0,0,0-14.18,24c5.74,10.4-14.47,100.48-57.05,102.83a69.43,69.43,0,0,1-60.5-109.31,11.07,11.07,0,0,0-9-17.48H1716.2a25.9,25.9,0,0,0-25.9,25.9s-9.48,112.31-17.55,108.28a69.18,69.18,0,0,0-27.36-7.19h-.09c-1.17-.06-2.34-.09-3.53-.09s-18.41-.29-18.41-.29L1620.75,1377l15,.16c14.22-.42,26.57-1.76,37.55-7.35a11.75,11.75,0,0,1,17,10.5v98a25.88,25.88,0,0,0,25.88,25.88h341.44a25.29,25.29,0,0,0,25.29-25.29V1137.88A26.28,26.28,0,0,0,2056.65,1111.61Z" transform="translate(-200 -189.23)"/><path class="cls-9" d="M1607.9,1375.37a70,70,0,0,0,46.92-5.87,11.75,11.75,0,0,1,17,10.5v98a25.88,25.88,0,0,0,25.88,25.88h341.44a25.29,25.29,0,0,0,25.29-25.29V1137.56a26.26,26.26,0,0,0-26.26-26.26h-95.06a16.17,16.17,0,0,0-14.18,24,69.42,69.42,0,1,1-117.55-6.48,11.07,11.07,0,0,0-9-17.48H1697.77a25.9,25.9,0,0,0-25.9,25.9v97.43a12.13,12.13,0,0,1-17.55,10.85,69.13,69.13,0,0,0-31-7.28c-43.78,0-78.1,40.53-67.47,86.12C1561.23,1347.28,1584.86,1370.41,1607.9,1375.37Z" transform="translate(-200 -189.23)"/><path class="cls-2" d="M619.29,1505.84l61.37.45s-2.13-14.85-43.44-18.68h0c-16-44.49-63.06-164.16-103.92-158.5-40.34,5.59,55.2,115.38,94.06,158.06a98,98,0,0,0-15.36,1.22c-9.36-18.64-27.93-45-57.72-43.79-31.71,1.28,11.49,30.23,41.23,48-15.06,5.4-23.2,12.88-23.2,12.88l46.28.34.84.46S619.39,1506.13,619.29,1505.84Z" transform="translate(-200 -189.23)"/><path class="cls-7" d="M838.55,1010l9.08,7.37s24.84-8.91,30.44,20.61c0,0,1.49,12.58-6.48,12.6s-4.68-1.38-16-1-20.63-5.62-22.29-14.77l-5.4-7.76Z" transform="translate(-200 -189.23)"/><path class="cls-18" d="M837.52,1025.78c7.24-7.56,6.66-13.15,6.66-13.15S760.3,944,751.79,938.36c-5.8-3.81-67.57-58.58-96.45-92C641,829.83,623.27,836.26,603,842.08l-16.72,4.8c-20.19,5.79-25.44,34-8.87,47.74,46.65,38.64,124.24,82.09,138.76,91.23,36,22.67,106.59,49.62,106.59,49.62A44.78,44.78,0,0,0,837.52,1025.78Z" transform="translate(-200 -189.23)"/><path class="cls-19" d="M935.69,1447s20.36,15.25,51.55,7.19c0,0,25.15-5.73,30.67,6.81,0,0-38.57,19.59-48.33,25-7.36,4-15,10.41-20.46,15.34a10.12,10.12,0,0,1-14.65-1.13c-1.7-2.09-3.64-4.57-5.77-7.45-6-8.06-19.8-34.09-19.8-34.09Z" transform="translate(-200 -189.23)"/><path class="cls-5" d="M945.2,1440s-12.4,28.58-41,23.33c0,0-58.39-48.22-98.44-98.31-13-16.27-24.08-32.73-30.59-47.8-26.56-61.49-98.24-153.2-143.82-199.68l114-41.25s36.52,73.47,85.12,163.72C865.51,1305,906.79,1378.73,945.2,1440Z" transform="translate(-200 -189.23)"/><path class="cls-19" d="M830.49,1240l-24.74,125c-13-16.27-24.08-32.73-30.59-47.8-26.56-61.49-98.24-153.2-143.82-199.68l114-41.25S781.89,1149.72,830.49,1240Z" transform="translate(-200 -189.23)"/><path class="cls-19" d="M737,1463.23s-1.24,22.81,26.41,25.85c0,0,15.8.08,15.84,14.6l-80.36.25s-2.33-5.86-2.9-18.4c-.43-9.63,9.34-34.81,9.34-34.81Z" transform="translate(-200 -189.23)"/><path class="cls-5" d="M708,1076.25s50.8,55.82,83,156.38c17.54,54.71-32.16,192.27-41.85,240.07,0,0-33.34,2.83-56.14-6,0,0-1.73-98.72,11.6-174.8,7.46-42.58-66.88-91.07-99.37-168-22.1-52.34,4.79-51.46,37.83-52.71Z" transform="translate(-200 -189.23)"/><path class="cls-3" d="M649.33,827.22c-28.26,16-86.12,1.24-86.12,1.24s23.5-26.86,12.82-70.13l22.19,11.27,23.84,12.11a197.71,197.71,0,0,1,2.61,21.36c.27,3.53.52,7.48.69,11.79A74.38,74.38,0,0,1,649.33,827.22Z" transform="translate(-200 -189.23)"/><path class="cls-20" d="M753,1073.37c0,5-5.72,7.35-6.94,7.59-11.4,2.08-43.23,14.46-71.9,17.3-24.14,2.53-46.56.13-71.18-4.82-3.26-.66-10.92-2.72-11.46-5.84-.68-3.41-95-192.26-21.67-273.37,1.72-1.9,16.19,1.52,29.43,4.67a54.35,54.35,0,0,0,33.44-2.73l12.41,6.53c15.24,8.49,44.08,38.67,47.46,62.34,1.71,12,8.6,21,10.59,31.55q1.11,5.88,2.27,11.47,2.25,11,4.64,20.9c4.31,17.91,8.86,33.32,13.33,46.64,4.76,14.14,9.42,25.9,13.59,35.74,5.41,12.76,10,22.29,12.83,29.6C751.81,1066.07,753,1070.1,753,1073.37Z" transform="translate(-200 -189.23)"/><path class="cls-18" d="M749.79,1060.93C616.66,998.2,570.56,877.77,570.56,877.77s108.16,39.9,134.84,50.29q2.25,11,4.64,20.9c4.31,17.91,8.86,33.32,13.33,46.64,4.76,14.14,9.42,25.9,13.59,35.74C742.37,1044.09,746.94,1053.62,749.79,1060.93Z" transform="translate(-200 -189.23)"/><path class="cls-15" d="M1125.83,927.53l-28.51-90.42a16.17,16.17,0,0,0-19.79-10.71h0c-.42.12-.84.26-1.25.42l-10,3.34s-15.65,16.12-26.89,19.37c-34.54,10-67.32-8.42-79.92-42.09-14-37.45,2.25-78.58,39.89-90.46,12.88-4.06,38.23,3.51,38.23,3.51l10.18-3.38a11,11,0,0,0,7.35-13.91l-31.39-99.52a25.83,25.83,0,0,0-32.4-16.86l-92.67,29.23a12.09,12.09,0,0,1-15.58-13.44A68.85,68.85,0,0,0,880.69,571c-13.13-41.64-62-62.13-102.16-38.34-20.23,12-35.13,41.39-32.95,64.8a69.81,69.81,0,0,0,19.66,42.87,11.72,11.72,0,0,1-4.88,19.37l-93.25,29.41a25.82,25.82,0,0,0-16.86,32.38l102.42,324.77a25.23,25.23,0,0,0,31.64,16.47l324.41-102.31A26.19,26.19,0,0,0,1125.83,927.53Z" transform="translate(-200 -189.23)"/><path class="cls-16" d="M735.71,600.71a69.81,69.81,0,0,0,19.66,42.87A11.72,11.72,0,0,1,750.49,663l-93.25,29.41a25.83,25.83,0,0,0-16.86,32.39L742.8,1049.52A25.22,25.22,0,0,0,774.44,1066l324.41-102.31a26.19,26.19,0,0,0,17.1-32.85l-28.52-90.42a16.12,16.12,0,0,0-27-6.3,69.24,69.24,0,1,1-29.1-113.74,11,11,0,0,0,13.92-13.84L1013.82,607a25.83,25.83,0,0,0-32.4-16.86l-92.68,29.23a12.09,12.09,0,0,1-15.58-13.44,68.9,68.9,0,0,0-2.37-31.66c-13.13-41.65-62-62.13-102.15-38.34C748.43,547.89,733.52,577.31,735.71,600.71Z" transform="translate(-200 -189.23)"/><path class="cls-3" d="M827.68,1024.58l11.5,4.22s23-16.29,37.38,10.2c0,0,5.19,11.57-3,14.08s-5.23.15-16.77,4-22.91,1.08-27.27-7.17l-7.82-5.74Z" transform="translate(-200 -189.23)"/><path class="cls-20" d="M837.15,1040.85c4.25-11.1,6.2-16.12,6.2-16.12s-86.93-70.85-95.78-76.93c-6-4.14-66.12-49-95.42-84.06a61.3,61.3,0,0,0-59.6-20.65l-18.25,3.83c-22,4.62-29.19,32.51-12.1,47.16,48.14,41.27,129.33,89.13,144.47,99.09,37.58,24.71,120.7,59.35,120.7,59.35S833.81,1049.56,837.15,1040.85Z" transform="translate(-200 -189.23)"/><path class="cls-7" d="M624.66,803.08c-27.79,1.56-45.87-21.39-45.87-21.39s12.57-7,19.42-12.08l23.84,12.11A196.75,196.75,0,0,1,624.66,803.08Z" transform="translate(-200 -189.23)"/><path class="cls-3" d="M636.51,774.54S594.4,804.76,576,778.25s-36.25-40.47-10.15-60.89,38.42-14,46.71-6.61S647,766,636.51,774.54Z" transform="translate(-200 -189.23)"/><path class="cls-19" d="M617,686.8a67.71,67.71,0,0,0-4.91-17.36s-2.64,10.95-22.65,9.44-51.71,2-62.28,24.76c-.67,1.45-1.27,3-1.8,4.47-1.91-5.05-2.37-12.63-2.37-12.63-3.8,9.81,0,22.09,0,22.09h0c-.06.36-.1.72-.16,1.08-4.41,3.73-8.12,15.34-8.12,15.34,1.33-3.23,4.58-5.35,7.48-6.65-.09,17.74,7.1,35.08,19.73,40.24,18.46,7.55,18.32,1.79,36.89,14.11,0,0,5-6.18,1.58-10.33s-16.23-10.19-9.06-16.23,9.81.75,12.46-3.4-10.57-16.23,6.42-27.55S618.51,697,617,686.8Z" transform="translate(-200 -189.23)"/><path class="cls-21" d="M1701.06,1504.09s-21.29-31.48-54.62-28.94c-10.13.77-26.59,3.24-45.71,5.87-14.42-50.31-54.16-169.92-107.77-176.65-54.75-6.88,52.39,126.14,96.19,178.21-8,1.05-16.29,2.08-24.66,3-23.19-24.77-63.61-61.46-97.36-58.64s29.51,37.81,75.23,60.69c-28,2.1-54.65,1.87-70.91-4.42-39.81-15.39-76.4,20.88-76.4,20.88h306Z" transform="translate(-200 -189.23)"/><path class="cls-22" d="M2772.08,1510.76H202.92a2.93,2.93,0,0,1-2.92-2.92v-1a2.93,2.93,0,0,1,2.92-2.92H2772.08a2.93,2.93,0,0,1,2.92,2.92v1A2.93,2.93,0,0,1,2772.08,1510.76Z" transform="translate(-200 -189.23)"/></svg>