<?xml version="1.0" encoding="utf-8"?>
<!-- Generator: Adobe Illustrator 25.2.0, SVG Export Plug-In . SVG Version: 6.00 Build 0)  -->
<svg version="1.1" id="Layer_1" xmlns="http://www.w3.org/2000/svg" x="0px" y="0px"
	 viewBox="0 0 512 512" style="enable-background:new 0 0 512 512;" xml:space="preserve">
<style type="text/css">
	.st0{fill:#EFEFEF;}
	.st1{fill:#63B87A;}
	.st2{fill:#38B5E8;}
	.st3{fill:#D5DBE1;}
	.st4{fill:#2F8EB6;}
	.st5{fill:#020203;}
	.st6{fill:#A4AFC1;}
</style>
<path class="st0" d="M109.8,59.3c98.4,0,165.9-51,213.3-51s147,27.2,147,245.3S336.2,503.7,284.1,503.7
	C39.9,503.7-64.4,59.3,109.8,59.3L109.8,59.3z"/>
<g>
	<circle class="st1" cx="255.6" cy="180.8" r="31.1"/>
</g>
<g>
	<path class="st2" d="M336.6,336.5V324c0-27.5-22.3-49.8-49.8-49.8h-62.3c-27.5,0-49.8,22.3-49.8,49.8v12.5H336.6z"/>
</g>
<g>
	<path class="st3" d="M156,255.5c0-76.4,55.1-139.8,127.7-153.1c-9.1-1.6-18.4-2.6-28-2.6c-86,0-155.7,69.7-155.7,155.7
		s69.7,155.7,155.7,155.7c9.6,0,18.9-1,28-2.6C211.1,395.3,156,331.9,156,255.5z"/>
</g>
<g>
	<path class="st2" d="M280.5,180.8c0-4.7,1.2-9.1,3.1-13.1c-5-10.6-15.6-18-28-18c-17.2,0-31.1,14-31.1,31.1s14,31.1,31.1,31.1
		c12.5,0,23-7.4,28-18C281.8,189.9,280.5,185.5,280.5,180.8z"/>
</g>
<g>
	<path class="st4" d="M280.5,274.2h-56.1c-27.5,0-49.8,22.3-49.8,49.8v12.5h56.1V324C230.7,296.5,253,274.2,280.5,274.2z"/>
</g>
<g>
	<path class="st5" d="M255.6,429.9c-96.1,0-174.4-78.2-174.4-174.4S159.5,81.1,255.6,81.1S430,159.3,430,255.5
		S351.8,429.9,255.6,429.9z M255.6,118.5c-75.5,0-137,61.5-137,137s61.5,137,137,137s137-61.5,137-137S331.2,118.5,255.6,118.5z"/>
</g>
<g>
	<path class="st5" d="M343.6,370l26.4-26.4l134.9,134.9c3.9,3.9,3.9,10.2,0,14.1l-12.3,12.3c-3.9,3.9-10.2,3.9-14.1,0L343.6,370z"/>
</g>
<g>
	<path class="st5" d="M255.6,230.6c-27.5,0-49.8-22.3-49.8-49.8s22.3-49.8,49.8-49.8s49.8,22.3,49.8,49.8S283.1,230.6,255.6,230.6z
		 M255.6,160.6c-14.2,0-20.2,7.8-20.2,20.2c0,12.8,8.7,20.2,20.2,20.2c14,0,20.5-9.1,20.2-20.2C275.4,168.6,270.2,160.6,255.6,160.6
		z"/>
</g>
<g>
	<path class="st5" d="M355.3,336.5h-37.4V324c0-17.2-14-31.1-31.1-31.1h-62.3c-17.2,0-31.1,14-31.1,31.1v12.5H156V324
		c0-37.8,30.7-68.5,68.5-68.5h62.3c37.8,0,68.5,30.7,68.5,68.5V336.5z"/>
</g>
<g>
	<path class="st6" d="M365.8,42.1L365.8,42.1c2.6-3,7.1-3.3,10-0.7l10.7,9.3c3,2.6,3.3,7.1,0.7,10v0c-2.6,3-7.1,3.3-10,0.7
		l-10.7-9.3C363.6,49.6,363.3,45.1,365.8,42.1z"/>
	<path class="st6" d="M427.5,95.9L427.5,95.9c2.6-3,7.1-3.3,10-0.7l10.7,9.3c3,2.6,3.3,7.1,0.7,10v0c-2.6,3-7.1,3.3-10,0.7
		l-10.7-9.3C425.2,103.3,424.9,98.8,427.5,95.9z"/>
	<path class="st6" d="M421.7,48.3l9.3-10.7c2.6-3,7.1-3.3,10-0.7l0,0c3,2.6,3.3,7.1,0.7,10l-9.3,10.7c-2.6,3-7.1,3.3-10,0.7v0
		C419.4,55.8,419.1,51.3,421.7,48.3z"/>
</g>
</svg>
