<?xml version="1.0" encoding="utf-8"?>
<!-- Generator: Adobe Illustrator 25.2.0, SVG Export Plug-In . SVG Version: 6.00 Build 0)  -->
<svg version="1.1" id="Layer_1" xmlns="http://www.w3.org/2000/svg" x="0px" y="0px"
	 viewBox="0 0 512 512" style="enable-background:new 0 0 512 512;" xml:space="preserve">
<style type="text/css">
	.st0{fill:#EFEFEF;}
	.st1{fill:#37B5E8;}
	.st2{fill:#2D94BD;}
	.st3{fill:#A4AFC1;}
</style>
<g>
	<path class="st0" d="M368.9,498.1c-94,0-236.6-13.8-272.4-38.8C59.3,433.3,30.6,431,30.6,222.7S217.3,13.9,267.1,13.9
		C500.3,13.9,535.3,498.1,368.9,498.1z"/>
</g>
<g>
	<path class="st1" d="M326.9,382.9H155.4c-1.6,6.4-12,11.4-13.6,17.9c-2.3,9.3,4,20,1.7,29.3c65.8,0,131.6,0,197.4,0
		c-2.8-9.5,5.9-21.8,3.1-31.3C342.1,392.6,328.8,389.1,326.9,382.9z"/>
	<path class="st2" d="M144.8,432.3l20,0.1c0-10.5,0-16,0-26.5c0-4.8,5.3-13.8,18.7-18.5c-9,0.5-26.2-0.8-35.2-0.3L144.8,432.3z"/>
	<path class="st1" d="M249.7,83.7h-16c-17.6,6.7-18.9,30.5-20.8,31.2c-40.3,15.3-57.5,42.8-57.5,54.1c0,30.5,1.7,37.2,1.7,67.7
		c0,18.7,20.1,42.6,20.1,61.3c0,9.7-12.6,41-12.6,50.7c0,14.4,13.1,29.7,13.1,34.2c62.6,0,70.6,0,133.2,0
		c10.9-16.8,10.6-39.2,10.6-58.4c0-21.3-58.8-71.1-65.5-91.2c-0.7-2.1,31-1.8,38.3-1.7c10.5,0.1,37.3,17,49.7,18
		c8.5,0.7,15.7,0,25.2-15c3.8-6-19.4-40.3-12.3-39.8c0.2,0,0.7,0.1,0.8-0.2c2.2-3.6-68.6-50.8-67.9-60.2c0.7-10-39.1-14.4-38.7-20.9
		C251.7,100.1,249.7,97.1,249.7,83.7z"/>
	<path class="st2" d="M272,231.7l-15,0.7l-5.6-22.5c1.9,0,3.7-0.7,5.6-0.7c1.7,0,3.6,0.3,5,2c2.4,5.1,1.9,8.7,4.3,13.4
		C268.2,228.5,268.8,228.5,272,231.7z"/>
	<path class="st2" d="M176.8,382.9h50c-34.7,0-41.9-18.6-42.2-27.4c-1-27.3,8.9-27.1,8.8-52.4c-0.1-34.5-24.7-79.2-25.2-112.7
		c-0.4-27.1,10.9-44.6,55.3-65.1c3.7-1.7,3.3-26.5,19.8-41.9c-9.7,1.8-28.7,15-30.5,31.4c-0.5,4.6-47.6,24.4-52.1,39.8
		c-6.3,21.7-10.6,41.7-8.5,64.2c2.2,23.7,30.6,63,24.2,85.1C167.7,334.1,162.9,357.9,176.8,382.9z"/>
	<g>
		<g>
			<g>
				<path d="M274.2,171.3h-12.1c-3.3,0-6.1,2.7-6.1,6.1c0,3.3,2.7,6.1,6.1,6.1h12.1c3.3,0,6.1-2.7,6.1-6.1
					C280.2,174,277.5,171.3,274.2,171.3z"/>
				<path d="M284.7,237.8h7.6c7.4,0,15.6,3.7,24.3,7.5c9.3,4.1,19.8,8.8,30.5,8.8c8.3,0,16.8-2.8,24.9-10.9
					c10.3-10.3,2.5-21.7-2.7-29.2c-2.1-3.1-5.7-8.3-4.9-9.9c5.6-11.2-15-31.8-61.3-61.4c-11.7-21.9-32.8-29.9-47-31.7V80.5
					c0-3.3-2.7-6.1-6.1-6.1c-30.2,0-40.4,22.5-42.1,37.6c-14.9,4.5-60.8,22.8-60.8,77.3c0,43.9,8.7,62.4,15.8,77.3
					c4.7,10,8.4,17.9,8.4,31.6c0,13.2-3.9,24.4-7.3,34.3c-2.6,7.6-4.8,14.1-4.8,20.1c0,7.4,3.6,16.8,9.4,24.2h-3.3
					c-15.6,0-30.3,14.7-30.3,30.3v24.2c0,3.3,2.7,6.1,6.1,6.1h205.7c3.3,0,6.1-2.7,6.1-6.1v-24.2c0-15.6-14.7-30.3-30.3-30.3h-0.8
					c4.2-5.2,6.8-11.6,6.8-18.2c0-50.8-21.6-73.5-40.6-93.5c-14-14.8-27.3-28.7-32.1-52.9c-0.6-3.3-3.8-5.4-7.1-4.7
					c-3.3,0.7-5.4,3.8-4.7,7.1c5.5,27.7,20.6,43.5,35.2,58.9c19.2,20.1,37.3,39.2,37.3,85.1c0,8.8-9.3,18.2-18.2,18.2h-84.7
					c-3.3,0-6.1,2.7-6.1,6.1c0,3.3,2.7,6.1,6.1,6.1h108.9c8.8,0,18.2,9.3,18.2,18.2v18.2H147.1v-18.2c0-8.8,9.3-18.2,18.2-18.2h24.2
					c3.3,0,6.1-2.7,6.1-6.1c0-3.3-2.7-6.1-6.1-6.1c-8.2,0-18.2-14.9-18.2-24.2c0-4,1.9-9.7,4.2-16.2c3.5-10.3,7.9-23.1,7.9-38.3
					c0-16.4-4.7-26.3-9.6-36.7c-6.9-14.5-14.6-31-14.6-72.2c0-54.7,53.4-66.2,55.7-66.7c2.8-0.6,4.9-3.1,4.9-5.9
					c0-1.1,0.3-26.2,24.2-29.8v41.9c0,3.3,2.7,6.1,6.1,6.1s6.1-2.7,6.1-6.1v-5.5c11.6,1.7,28,8.6,36.9,26.4c0.5,1,1.2,1.8,2.2,2.4
					c30.1,19.1,56.3,40.5,58,47.3c-3.4,7.8,1.9,15.4,6.1,21.5c5.9,8.6,6.7,11.1,4.1,13.7c-11.8,11.8-23.7,7.7-41.9-0.4
					c-9.5-4.2-19.2-8.6-29.2-8.6h-7.6c-3.3,0-6.1,2.7-6.1,6.1C278.7,235.1,281.4,237.8,284.7,237.8z"/>
			</g>
		</g>
	</g>
</g>
<g>
	<path class="st3" d="M81.1,142.3l-11-9l18-22l11,9L81.1,142.3z"/>
</g>
<g>
	<path class="st3" d="M132.9,79l-11-9l18-22l11,9L132.9,79z"/>
</g>
<g>
	<path class="st3" d="M85.6,86.3l-22-18l9-11l22,18L85.6,86.3z"/>
</g>
</svg>
