<?xml version="1.0" encoding="utf-8"?>
<!-- Generator: Adobe Illustrator 25.2.0, SVG Export Plug-In . SVG Version: 6.00 Build 0)  -->
<svg version="1.1" id="_x31__x2C_5" xmlns="http://www.w3.org/2000/svg" x="0px"
	 y="0px" viewBox="0 0 512 512" style="enable-background:new 0 0 512 512;" xml:space="preserve">
<style type="text/css">
	.st0{fill:transparent;}
	.st1{fill:#F3F3F1;}
	.st2{fill:#37B5E8;}
	.st3{fill:#D5DBE1;}
	.st4{fill:#2D94BD;}
</style>
<rect class="st0" width="512" height="512"/>
<g>
	<path class="st1" d="M86.3,60h182.9V452H86.3V60z"/>
	<path class="st2" d="M269.2,147.1H426V452H269.2V147.1z"/>
	<path class="st3" d="M86.3,60h39.2V452H86.3V60z"/>
	<path class="st4" d="M269.2,147.1h39.2V452h-39.2V147.1z"/>
	<path d="M282.3,452h-26.1V73.1H99.4V452H73.2V60c0-7.2,5.9-13.1,13.1-13.1h182.9c7.2,0,13.1,5.9,13.1,13.1V452z"/>
	<path d="M439,465h-26.1V160.2h-95.8v-26.1H426c7.2,0,13.1,5.9,13.1,13.1V465z"/>
	<path d="M125.5,186.3h26.1v52.3h-26.1V186.3z"/>
	<path d="M203.9,186.3H230v52.3h-26.1V186.3z"/>
	<path d="M125.5,99.2h26.1v52.3h-26.1V99.2z"/>
	<path d="M203.9,99.2H230v52.3h-26.1V99.2z"/>
	<path d="M125.5,273.4h26.1v52.3h-26.1V273.4z"/>
	<path d="M203.9,273.4H230v52.3h-26.1V273.4z"/>
	<path d="M125.5,360.5h26.1v52.3h-26.1V360.5z"/>
	<path d="M203.9,360.5H230v52.3h-26.1V360.5z"/>
	<path d="M308.4,273.4h26.1v52.3h-26.1V273.4z"/>
	<path d="M369.4,273.4h26.1v52.3h-26.1V273.4z"/>
	<path d="M308.4,186.3h26.1v52.3h-26.1V186.3z"/>
	<path d="M369.4,186.3h26.1v52.3h-26.1V186.3z"/>
	<path d="M308.4,360.5h26.1v56.6h-26.1V360.5z"/>
	<path d="M369.4,360.5h26.1v56.6h-26.1V360.5z"/>
	<path d="M72.8,438.9h366.4V465H72.8V438.9z"/>
</g>
</svg>
