<?xml version="1.0" encoding="utf-8"?>
<!-- Generator: Adobe Illustrator 25.2.0, SVG Export Plug-In . SVG Version: 6.00 Build 0)  -->
<svg version="1.1" id="Layer_1" xmlns="http://www.w3.org/2000/svg" x="0px" y="0px"
	 viewBox="0 0 512 512" style="enable-background:new 0 0 512 512;" xml:space="preserve">
<style type="text/css">
	.st0{fill:#EFEFEF;}
	.st1{fill:#37B5E8;}
	.st2{fill:#2D94BD;}
	.st3{fill:#A4AFC1;}
</style>
<g>
	<path class="st0" d="M402,452.7c-98.4,0-165.9,51-213.3,51s-147-27.2-147-245.3S175.6,8.3,227.7,8.3
		C471.9,8.3,576.2,452.7,402,452.7z"/>
</g>
<g>
	<polygon class="st1" points="338.7,416.3 176.2,416.3 176.2,392.6 188.9,368.9 322.4,371.1 336.2,392.6 	"/>
	<path class="st2" d="M175.1,414.2l15.4,0.6c0-9.5-0.1-11.7,0-21.2c0-5.9,4.8-11.3,23.9-19c-11.1-3.5-30.6,2.2-36.4,3.3L175.1,414.2
		z"/>
	<path class="st1" d="M303.1,371.1H197.9c0.3-7.5-4.2-20.6-2-27.8c9.6-32,28.8-38,26.1-70.1c-1.7-20.6,2.5-66.4-14.3-72
		c0,0-1.1-7.6-1.2-12.2c29.6,0,59.3,0,88.9,0c10,0,8.6,13.1,0.8,19.6c-3.1,16.7-6.4,32.7-5.7,49.4c1.3,31.7,15.5,60.1,24.9,90.7
		C317.7,355.6,302.8,363.9,303.1,371.1z"/>
	<path class="st2" d="M240.8,371.3h-29.3c0-5.7-15.6-11.4-15.6-17.1c0-13.3,23.9-62,25.7-75.2c4.1-31-2.9-57.9-4.8-67
		c-2-9.8-7.4-16.7-7.4-27c11.9,0,5.4,0,17.3,0c-1.8,6.9,1.7,18.5,2.6,21.5c4.5,14.9,6.8,25,7.6,38.8c1.4,23.5,0.2,36-2.4,47.7
		c-4.7,20.4-19.2,34.5-19.2,54.7C215.3,360.7,228.7,367.5,240.8,371.3z"/>
	<circle class="st1" cx="255.9" cy="140.5" r="44.5"/>
	<g>
		<path class="st2" d="M230.3,140.6c0-17.2,15.3-38.1,35.1-40.3c-1.7-0.2-3.4-0.3-5.2-0.3c-22.3,0-48.8,21.9-48.8,40.6
			c0,18.6,26.5,39.7,48.8,39.7c1.8,0,3.5-0.1,5.2-0.3C245.6,177.9,230.3,157.8,230.3,140.6z"/>
	</g>
	<g>
		<g>
			<g>
				<path d="M262.8,113.9c-2.9-0.8-5.9,1-6.7,4c-0.7,2.9,1,5.9,4,6.7c5.9,1.5,10.5,6.1,11.9,11.9c0.6,2.5,2.9,4.2,5.3,4.2
					c0.4,0,0.9-0.1,1.3-0.2c2.9-0.7,4.7-3.7,4-6.7C280.2,124,272.6,116.4,262.8,113.9z"/>
				<path d="M316.5,366h-0.7c3.8-4.7,6.2-10.5,6.2-16.5c0-10.7-5.3-21.7-11.5-34.3c-7.5-15.5-16-33-16-53.7
					c0-27.8,2.9-43.9,4.4-50.2c6.9-1.9,12.1-8.3,12.1-15.8c0-9.1-7.4-16.5-16.5-16.5H287c11.2-9.1,18.4-23,18.4-38.5
					c0-27.3-22.2-49.5-49.5-49.5s-49.5,22.2-49.5,49.5c0,15.5,7.2,29.4,18.4,38.5h-7.5c-9.1,0-16.5,7.4-16.5,16.5
					s7.4,16.5,16.5,16.5h55c3,0,5.5-2.5,5.5-5.5c0-3-2.5-5.5-5.5-5.5h-55c-3,0-5.5-2.5-5.5-5.5c0-3,2.5-5.5,5.5-5.5h77
					c3,0,5.5,2.5,5.5,5.5s-2.5,5.5-5.5,5.5c-0.1,0-0.1,0-0.2,0c-0.4,0-0.8,0.1-1.2,0.2c-0.3,0.1-0.6,0.1-0.9,0.3
					c-0.3,0.2-0.6,0.4-0.9,0.6c-0.3,0.2-0.6,0.4-0.8,0.6c-0.2,0.2-0.4,0.5-0.5,0.8c-0.2,0.3-0.4,0.6-0.6,1c0,0.1-0.1,0.1-0.1,0.2
					c-0.2,0.7-5.8,17.8-5.8,56.7c0,23.2,9.5,42.8,17.1,58.5c5.6,11.4,10.3,21.3,10.3,29.5c0,8-8.5,16.5-16.5,16.5h-55
					c-3,0-5.5,2.5-5.5,5.5c0,3,2.5,5.5,5.5,5.5h77c8,0,16.5,8.5,16.5,16.5V410H179v-16.5c0-8,8.5-16.5,16.5-16.5h22
					c3,0,5.5-2.5,5.5-5.5c0-3-2.5-5.5-5.5-5.5c-8,0-16.5-8.5-16.5-16.5c0-8.2,4.8-18.1,10.3-29.5c7.6-15.7,17.1-35.3,17.1-58.5
					c0-7.2-0.9-18.6-2.7-33.7c-0.4-3-3.1-5.2-6.1-4.8c-3,0.4-5.2,3.1-4.8,6.1c1.7,14.5,2.6,25.7,2.6,32.4c0,20.7-8.5,38.2-16,53.7
					c-6.1,12.7-11.5,23.6-11.5,34.3c0,5.9,2.4,11.8,6.2,16.5h-0.7c-14.1,0-27.5,13.4-27.5,27.5v22c0,3,2.5,5.5,5.5,5.5h165
					c3,0,5.5-2.5,5.5-5.5v-22C344,379.3,330.6,366,316.5,366z M256,179c-21.2,0-38.5-17.3-38.5-38.5S234.8,102,256,102
					s38.5,17.3,38.5,38.5S277.2,179,256,179z"/>
			</g>
		</g>
	</g>
</g>
<g>
	<path class="st3" d="M380.8,109.9c-11.8,0-21.3-9.6-21.3-21.3s9.6-21.3,21.3-21.3s21.3,9.6,21.3,21.3S392.6,109.9,380.8,109.9z
		 M380.8,81.5c-3.9,0-7.1,3.2-7.1,7.1c0,3.9,3.2,7.1,7.1,7.1s7.1-3.2,7.1-7.1C387.9,84.7,384.8,81.5,380.8,81.5z"/>
</g>
</svg>
