<?xml version="1.0" encoding="utf-8"?>
<!-- Generator: Adobe Illustrator 25.2.0, SVG Export Plug-In . SVG Version: 6.00 Build 0)  -->
<svg version="1.1" id="Layer_1" xmlns="http://www.w3.org/2000/svg" x="0px" y="0px"
	 viewBox="0 0 512 512" style="enable-background:new 0 0 512 512;" xml:space="preserve">
<style type="text/css">
	.st0{fill:#EFEFEF;}
	.st1{fill:#F3F3F1;}
	.st2{fill:#38B5E8;}
	.st3{fill:#D5DBE1;}
	.st4{fill:#2F8EB6;}
	.st5{fill:#A4AFC1;}
</style>
<path class="st0" d="M48.1,346.7c86.2,47.4,120.8,124.6,162.4,147.4C252,517,352.4,541,457.5,350s3.1-283.7-42.6-308.8
	C201-76.5-104.5,262.7,48.1,346.7L48.1,346.7z"/>
<g>
	<path class="st1" d="M255.9,427.9L84.1,336.2V172l171.8,87.8V427.9z"/>
	<path class="st1" d="M427.9,336.2l-171.8,91.7V259.8L427.9,172V336.2z"/>
	<path class="st2" d="M84.1,172l172-87.8L427.9,172l-171.8,87.8L84.1,172z"/>
	<path class="st3" d="M118.5,336.2V189.6L84.1,172v164.2l171.8,91.7v-18.3L118.5,336.2z"/>
	<path class="st3" d="M290.5,259.8l137.4-70.3V172l-171.8,87.8v168.1l34.4-18.3L290.5,259.8L290.5,259.8z"/>
	<path class="st4" d="M145.2,172l141.4-72.2l-30.5-15.6L84.1,172l172,87.8l30.5-15.6L145.2,172z"/>
	<path d="M255.9,439.3c-1.8,0-3.7-0.4-5.4-1.3L78.7,346.3c-3.7-2-6.1-5.9-6.1-10.1V172c0-4,2.1-7.7,5.5-9.8s7.7-2.2,11.2-0.4
		l171.8,87.8c3.8,2,6.2,5.9,6.2,10.2v168.1c0,4-2.1,7.8-5.6,9.8C260,438.8,257.9,439.3,255.9,439.3z M95.6,329.3l148.8,79.4V266.8
		L95.6,190.7V329.3z"/>
	<path d="M256.1,439.3c-2,0-4.1-0.5-5.9-1.6c-3.5-2.1-5.6-5.8-5.6-9.8V259.8c0-4.3,2.4-8.3,6.2-10.2l171.8-87.8
		c3.6-1.8,7.8-1.6,11.2,0.4c3.4,2.1,5.5,5.8,5.5,9.8v164.2c0,4.2-2.3,8.1-6.1,10.1L261.5,438C259.8,438.9,258,439.3,256.1,439.3z
		 M267.6,266.8v141.9l148.8-79.4V190.7L267.6,266.8z"/>
	<path d="M89.3,182.2l-10.4-20.4l172-87.8c3.3-1.7,7.2-1.7,10.4,0l171.8,87.8l-10.4,20.4L256.1,97L89.3,182.2z"/>
	<path d="M351.5,301.8l-21.8,11.8l-1.1-88.8l-168.3-84.2l10.3-20.5l174.6,87.4c3.9,1.9,6.3,5.9,6.3,10.3V301.8z"/>
</g>
<path class="st5" d="M420.8,112.6c-11.8,0-21.3-9.6-21.3-21.3S409,70,420.8,70s21.3,9.6,21.3,21.3S432.6,112.6,420.8,112.6z
	 M420.8,84.2c-3.9,0-7.1,3.2-7.1,7.1c0,3.9,3.2,7.1,7.1,7.1s7.1-3.2,7.1-7.1C427.9,87.4,424.7,84.2,420.8,84.2z"/>
<path class="st5" d="M53.7,27.8L53.7,27.8c2.8-2.8,7.3-2.8,10.1,0l10.1,10.1c2.8,2.8,2.8,7.3,0,10.1l0,0c-2.8,2.8-7.3,2.8-10.1,0
	L53.7,37.8C50.9,35,50.9,30.5,53.7,27.8z"/>
<path class="st5" d="M111.5,85.6L111.5,85.6c2.8-2.8,7.3-2.8,10.1,0l10.1,10.1c2.8,2.8,2.8,7.3,0,10.1v0c-2.8,2.8-7.3,2.8-10.1,0
	l-10.1-10.1C108.7,92.9,108.7,88.4,111.5,85.6z"/>
<path class="st5" d="M51.2,95.6l10.1-10.1c2.8-2.8,7.3-2.8,10.1,0l0,0c2.8,2.8,2.8,7.3,0,10.1l-10.1,10.1c-2.8,2.8-7.3,2.8-10.1,0
	l0,0C48.4,102.9,48.4,98.4,51.2,95.6z"/>
<path class="st5" d="M109,37.8l10.1-10.1c2.8-2.8,7.3-2.8,10.1,0v0c2.8,2.8,2.8,7.3,0,10.1l-10.1,10.1c-2.8,2.8-7.3,2.8-10.1,0l0,0
	C106.2,45.1,106.2,40.6,109,37.8z"/>
</svg>
