<?xml version="1.0" encoding="utf-8"?>
<!-- Generator: Adobe Illustrator 25.2.0, SVG Export Plug-In . SVG Version: 6.00 Build 0)  -->
<svg version="1.1" id="Layer_1" xmlns="http://www.w3.org/2000/svg" x="0px" y="0px"
	 viewBox="0 0 512 512" style="enable-background:new 0 0 512 512;" xml:space="preserve">
<style type="text/css">
	.st0{fill:#EFEFEF;}
	.st1{fill:#37B5E8;}
	.st2{fill:#2D94BD;}
	.st3{fill:#A4AFC1;}
</style>
<g>
	<path class="st0" d="M326.9,43.2c52,83.5,131,113.9,156,154.1s54.6,139.2-130.5,254.4S69.3,470.3,41.8,426.1
		C-87.3,218.8,234.8-104.7,326.9,43.2z"/>
</g>
<g>
	<path class="st1" d="M332,384.5l-150.9-0.2c-2.1,7.1-12.8,11.7-14.9,18.7c-2.9,9.5,2.9,21.4,0,30.9c60.2,0,120.5,0,180.7,0
		c-2.9-9.7,2.9-22.8,0-32.4C344.9,394.7,334.1,391.3,332,384.5z"/>
	<path class="st2" d="M166.9,430.4l18.2,0.1c0-9.6,0-14.6,0-24.1c0-4.4,4.8-12.6,17-16.9c-8.2,0.5-23.9-0.7-32.1-0.2L166.9,430.4z"
		/>
	<path class="st1" d="M310.9,384.3H198.4c-5.1-10.8-8-19.9-8-32.2c0-20.8,21.8-40.3,25.3-60.2c4.2-23.5,0-42.4,0-66.3
		c0-4.4-0.1-20.5-10.9-26.9c33.1,0,63.3,0,96.5,0c0,5.3-6,13.4-6,18.7c0,25.1,0,46.1,0,71.2c0,20.8,26.4,47,26.4,67.8
		C321.7,366.7,310.9,374,310.9,384.3z"/>
	<path class="st2" d="M234.6,385.2h-28.6c-8.8-6.3-18.7-17.4-18.7-29c0-17.2,29.9-54.3,29.9-71.6c0-23.7-1.9-33.4-1.7-57.1
		c0.1-8.8,0.1-12.5-3.9-21.1c9.5,0,7.3-0.8,16.8-0.8c3,7.6,7.6,45.3,7.6,53.9c0,51.5-24.5,71.7-24.5,95.1
		C211.4,364.7,223.1,378.5,234.6,385.2z"/>
	<path class="st1" d="M303.5,201.2h-95.8c-6.5-5.5-8-16.2,2.7-28.1c3.1-3.4-7-9-6.5-27.6c0.1-5.5-7.2-29.4-7.2-34.9
		c8.8,4.9,16.5,0,27.5,0c9.4,0,21.9-17.9,31.8-16.1c10,1.8,16.3,12.7,26.6,12.7c8.5,0,23.4,4.1,31.9,4.1c0,6.4-2.8,13.8-2.8,13.8
		c0,17.6-13.1,30.6-10.2,48C301.9,175.9,322,188.2,303.5,201.2z"/>
	<path class="st2" d="M227.4,197.7h-24.8c0-10.3,4.1-15.4,7.9-24.7c3.6-8.9-10-28.8-10-38.4c0-8.8-1.7-14.2-1.7-23
		c9.3,0,4.1,1.1,13.3,1.1l4.1,15.4c0,0,12.1,34.4,12.1,50.3c0,8-14.1,6.2-14,10.4C214.4,192.6,222.7,196.2,227.4,197.7z"/>
	<g>
		<g>
			<path d="M323.1,378h-0.8c4.2-5.3,6.9-11.7,6.9-18.3c0-11.9-5.9-24-12.7-38.1c-8.3-17.2-17.8-36.6-17.8-59.6
				c0-30.9,3.3-48.7,4.9-55.7c7.7-2.2,13.4-9.2,13.4-17.6c0-7.4-4.4-13.8-10.8-16.6l15.7-57.7c4.3-1.9,7.2-6.2,7.2-11.1
				c0-6.7-5.5-12.2-12.2-12.2c-6.7,0-12.2,5.5-12.2,12.2c0,0.7,0.1,1.3,0.2,1.9c-14.5,1.4-26.7-2.7-39-13.3c1.4-2,2.2-4.4,2.2-7
				c0-6.7-5.5-12.2-12.2-12.2c-6.7,0-12.2,5.5-12.2,12.2c0,2.6,0.8,5,2.2,7c-12.4,10.6-24.5,14.7-39,13.3c0.1-0.6,0.2-1.3,0.2-1.9
				c0-6.7-5.5-12.2-12.2-12.2c-6.7,0-12.2,5.5-12.2,12.2c0,5,3,9.2,7.2,11.1l15.7,57.6c-6.3,2.9-10.8,9.3-10.8,16.7
				c0,10.1,8.2,18.3,18.3,18.3h61c3.4,0,6.1-2.7,6.1-6.1s-2.7-6.1-6.1-6.1h-61c-3.4,0-6.1-2.7-6.1-6.1c0-3.4,2.7-6.1,6.1-6.1
				c1.9,0,3.7-0.9,4.9-2.4c1.2-1.5,1.5-3.5,1-5.3l-15.7-57.7c19.7,2.5,36.3-3.1,52.6-17.7c16.2,14.6,32.9,20.2,52.6,17.7l-14.5,53.2
				h-56.4c-3.4,0-6.1,2.7-6.1,6.1c0,3.4,2.7,6.1,6.1,6.1h61c3.4,0,6.1,2.7,6.1,6.1c0,3.4-2.7,6.1-6.1,6.1c-0.1,0-0.1,0-0.2,0
				c-0.5,0-0.9,0.1-1.3,0.3c-0.3,0.1-0.7,0.1-1,0.3c-0.4,0.2-0.7,0.4-1,0.7c-0.3,0.2-0.6,0.4-0.9,0.7c-0.3,0.3-0.4,0.6-0.6,0.9
				c-0.2,0.4-0.5,0.7-0.6,1.1c0,0.1-0.1,0.1-0.1,0.2c-0.3,0.8-6.4,19.7-6.4,62.9c0,25.7,10.6,47.4,19,64.9
				c6.2,12.7,11.5,23.6,11.5,32.7c0,8.9-9.4,18.3-18.3,18.3h-61c-3.4,0-6.1,2.7-6.1,6.1s2.7,6.1,6.1,6.1h85.4
				c8.9,0,18.3,9.4,18.3,18.3v18.3H170.6v-18.3c0-8.9,9.4-18.3,18.3-18.3h24.4c3.4,0,6.1-2.7,6.1-6.1s-2.7-6.1-6.1-6.1
				c-8.9,0-18.3-9.4-18.3-18.3c0-9.1,5.3-20.1,11.5-32.7c8.5-17.5,19-39.2,19-64.9c0-8-1-20.6-3-37.4c-0.4-3.4-3.4-5.8-6.8-5.3
				c-3.3,0.4-5.7,3.4-5.3,6.8c1.9,16.1,2.9,28.6,2.9,36c0,22.9-9.5,42.4-17.8,59.6c-6.8,14-12.7,26.2-12.7,38.1
				c0,6.6,2.6,13.1,6.8,18.3h-0.7c-15.7,0-30.5,14.8-30.5,30.5V433c0,3.4,2.7,6.1,6.1,6.1h183.1c3.4,0,6.1-2.7,6.1-6.1v-24.4
				C353.6,392.9,338.8,378,323.1,378z"/>
		</g>
	</g>
</g>
<g>
	<path class="st3" d="M380.2,82.5l12.1-7.5l15,24.1l-12.1,7.5L380.2,82.5z"/>
</g>
<g>
	<path class="st3" d="M423.4,151.9l12.1-7.5l15,24.1l-12.1,7.5L423.4,151.9z"/>
</g>
<g>
	<path class="st3" d="M431.8,104.8l24.1-15l7.5,12.1l-24.1,15L431.8,104.8z"/>
</g>
<g>
	<path class="st3" d="M74.3,362.1c-11.8,0-21.3-9.6-21.3-21.3c0-11.8,9.6-21.3,21.3-21.3s21.3,9.6,21.3,21.3
		C95.6,352.5,86,362.1,74.3,362.1z M74.3,333.7c-3.9,0-7.1,3.2-7.1,7.1c0,3.9,3.2,7.1,7.1,7.1s7.1-3.2,7.1-7.1
		C81.4,336.9,78.2,333.7,74.3,333.7z"/>
</g>
</svg>
