<?xml version="1.0"?>
<svg xmlns="http://www.w3.org/2000/svg"
	 version="1.1" width="512" height="512" x="0" y="0" viewBox="0 0 36 36" style="enable-background:new 0 0 512 512"
	 xml:space="preserve" class=""><g><g xmlns="http://www.w3.org/2000/svg"><path d="m27.623 4.167c-6.917 0-11.667-3.583-15-3.583s-10.333 1.916-10.333 17.249 9.417 17.583 13.083 17.583c17.167.001 24.5-31.249 12.25-31.249z" fill="#efefef" data-original="#efefef" style=""/></g><g
		xmlns="http://www.w3.org/2000/svg"><path d="m8 5.5c-.827 0-1.5-.673-1.5-1.5s.673-1.5 1.5-1.5 1.5.673 1.5 1.5-.673 1.5-1.5 1.5zm0-2c-.275 0-.5.225-.5.5s.225.5.5.5.5-.225.5-.5-.225-.5-.5-.5z" fill="#a4afc1" data-original="#a4afc1" style=""/></g><g
		xmlns="http://www.w3.org/2000/svg"><circle cx="10" cy="23" fill="#f3f3f1" r="1.25" data-original="#f3f3f1" style="" class=""/></g><g
		xmlns="http://www.w3.org/2000/svg"><path d="m13.25 30v-1.25c0-1.105-.895-2-2-2h-2.5c-1.105 0-2 .895-2 2v1.25z" fill="#f3f3f1" data-original="#f3f3f1" style="" class=""/></g><g
		xmlns="http://www.w3.org/2000/svg"><circle cx="26" cy="23" fill="#f3f3f1" r="1.25" data-original="#f3f3f1" style="" class=""/></g><g
		xmlns="http://www.w3.org/2000/svg"><path d="m29.25 30v-1.25c0-1.105-.895-2-2-2h-2.5c-1.105 0-2 .895-2 2v1.25z" fill="#f3f3f1" data-original="#f3f3f1" style="" class=""/></g><g
		xmlns="http://www.w3.org/2000/svg"><path d="m9.577 14.928-2.508-2.508c-.465-.465-.411-1.221.092-1.651 6.249-5.35 15.495-5.364 21.689-.008.493.426.542 1.174.082 1.641l-2.432 2.467c-.361.361-.921.432-1.357.172l-2.544-1.521c-.382-.228-.589-.665-.524-1.107l.319-2.183c-2.814-.94-5.867-.937-8.688-.025l.312 2.236c.062.442-.148.879-.532 1.111l-2.555 1.538c-.436.263-.995.197-1.354-.162z" fill="#37b5e8" data-original="#2fdf84" style="" class=""/></g><g
		xmlns="http://www.w3.org/2000/svg"><path d="m11 23c0-.19.049-.365.125-.526-.2-.425-.625-.724-1.125-.724-.69 0-1.25.56-1.25 1.25s.56 1.25 1.25 1.25c.5 0 .925-.299 1.125-.724-.076-.161-.125-.336-.125-.526z" fill="#d5dbe1" data-original="#d5dbe1" style="" class=""/></g><g
		xmlns="http://www.w3.org/2000/svg"><path d="m11 26.75h-2.25c-1.105 0-2 .895-2 2v1.25h2.25v-1.25c0-1.105.895-2 2-2z" fill="#d5dbe1" data-original="#d5dbe1" style="" class=""/></g><g
		xmlns="http://www.w3.org/2000/svg"><path d="m27 23c0-.19.049-.365.125-.526-.2-.425-.625-.724-1.125-.724-.69 0-1.25.56-1.25 1.25s.56 1.25 1.25 1.25c.5 0 .925-.299 1.125-.724-.076-.161-.125-.336-.125-.526z" fill="#d5dbe1" data-original="#d5dbe1" style="" class=""/></g><g
		xmlns="http://www.w3.org/2000/svg"><path d="m27 26.75h-2.25c-1.105 0-2 .895-2 2v1.25h2.25v-1.25c0-1.105.895-2 2-2z" fill="#d5dbe1" data-original="#d5dbe1" style="" class=""/></g><g
		xmlns="http://www.w3.org/2000/svg"><path d="m9.319 12.42c-.465-.465-.411-1.221.092-1.651 2.826-2.42 6.266-3.736 9.758-3.97-4.239-.287-8.576 1.031-12.008 3.97-.503.43-.556 1.186-.092 1.651l2.508 2.508c.359.359.918.426 1.355.162l.66-.397z" fill="#2d94bd" data-original="#00b871" style="" class=""/></g><g
		xmlns="http://www.w3.org/2000/svg"><path d="m24.849 13.52c-.382-.228-.589-.665-.524-1.107l.319-2.183c-1.773-.592-3.64-.808-5.485-.661 1.095.089 2.182.309 3.235.661l-.319 2.183c-.065.442.142.878.524 1.107l2.544 1.521c.436.26.995.19 1.357-.172l.225-.228z" fill="#2d94bd" data-original="#00b871" style="" class=""/></g><g
		xmlns="http://www.w3.org/2000/svg"><path d="m17.25 15h1.5v8h-1.5z" fill="#000000" data-original="#000000" style=""/></g><g
		xmlns="http://www.w3.org/2000/svg"><path d="m14 17h1.5v4h-1.5z" fill="#000000" data-original="#000000" style=""/></g><g
		xmlns="http://www.w3.org/2000/svg"><path d="m20.5 17h1.5v4h-1.5z" fill="#000000" data-original="#000000" style=""/></g><g
		xmlns="http://www.w3.org/2000/svg"><path d="m10.356 16.001c-.479 0-.952-.186-1.31-.543l-2.507-2.508c-.366-.366-.558-.854-.537-1.373.02-.527.264-1.029.67-1.378 6.497-5.561 16.243-5.561 22.668-.006.397.343.638.838.659 1.358.021.518-.169 1.006-.533 1.376l-2.432 2.467c-.609.61-1.546.727-2.275.289l-2.544-1.521c-.645-.385-.99-1.114-.882-1.858l.227-1.547c-2.271-.637-4.721-.643-7.021-.018l.223 1.597c.103.741-.246 1.47-.888 1.857l-2.555 1.538c-.299.182-.632.27-.963.27zm7.68-8.478c-3.705 0-7.418 1.271-10.389 3.814-.089.077-.143.186-.147.297-.002.068.013.168.1.255l2.508 2.508c.116.115.298.133.438.05l2.554-1.538c.127-.076.196-.22.176-.365l-.312-2.235c-.05-.36.166-.705.512-.817 2.975-.962 6.226-.954 9.156.027.345.114.558.46.505.819l-.319 2.184c-.021.143.045.281.167.354l2.544 1.521c.143.084.323.06.441-.059l2.428-2.463c.09-.091.105-.193.103-.263-.005-.108-.055-.21-.141-.284-2.934-2.536-6.625-3.805-10.324-3.805z" fill="#000000" data-original="#000000" style=""/></g><g
		xmlns="http://www.w3.org/2000/svg"><path d="m10 25c-1.103 0-2-.897-2-2s.897-2 2-2 2 .897 2 2-.897 2-2 2zm0-2.5c-.275 0-.5.225-.5.5s.225.5.5.5.5-.225.5-.5-.225-.5-.5-.5z" fill="#000000" data-original="#000000" style=""/></g><g
		xmlns="http://www.w3.org/2000/svg"><path d="m14 30h-1.5v-1.25c0-.689-.561-1.25-1.25-1.25h-2.5c-.689 0-1.25.561-1.25 1.25v1.25h-1.5v-1.25c0-1.517 1.233-2.75 2.75-2.75h2.5c1.517 0 2.75 1.233 2.75 2.75z" fill="#000000" data-original="#000000" style=""/></g><g
		xmlns="http://www.w3.org/2000/svg"><path d="m26 25c-1.103 0-2-.897-2-2s.897-2 2-2 2 .897 2 2-.897 2-2 2zm0-2.5c-.275 0-.5.225-.5.5s.225.5.5.5.5-.225.5-.5-.225-.5-.5-.5z" fill="#000000" data-original="#000000" style=""/></g><g
		xmlns="http://www.w3.org/2000/svg"><path d="m30 30h-1.5v-1.25c0-.689-.561-1.25-1.25-1.25h-2.5c-.689 0-1.25.561-1.25 1.25v1.25h-1.5v-1.25c0-1.517 1.233-2.75 2.75-2.75h2.5c1.517 0 2.75 1.233 2.75 2.75z" fill="#000000" data-original="#000000" style=""/></g><g
		xmlns="http://www.w3.org/2000/svg"><path d="m2 28.5h32v1.5h-32z" fill="#000000" data-original="#000000" style=""/></g></g></svg>
