<?xml version="1.0" encoding="utf-8"?>
<!-- Generator: Adobe Illustrator 25.2.0, SVG Export Plug-In . SVG Version: 6.00 Build 0)  -->
<svg version="1.1" id="Layer_1" xmlns="http://www.w3.org/2000/svg" x="0px" y="0px"
	 viewBox="0 0 512 512" style="enable-background:new 0 0 512 512;" xml:space="preserve">
<style type="text/css">
	.st0{fill:#F1F1F1;}
	.st1{fill:#37B5E8;}
	.st2{fill:#2D94BD;}
</style>
<rect y="0.5" class="st0" width="512" height="512"/>
<g>
	<circle class="st1" cx="256" cy="156.9" r="80.5"/>
	<path class="st1" d="M175.5,293.6h161c41.8,0,75.7,33.9,75.7,75.7v66.3H99.8v-66.3C99.8,327.5,133.7,293.6,175.5,293.6z"/>
	<path class="st2" d="M218.1,156.9c0-37,25.1-67.9,59.2-77.3c-6.8-1.9-13.9-3.2-21.3-3.2c-44.4,0-80.5,36-80.5,80.5
		s36,80.5,80.5,80.5c7.4,0,14.5-1.3,21.3-3.2C243.3,224.7,218.1,193.9,218.1,156.9z"/>
	<path class="st2" d="M218.1,293.6h-42.6c-41.8,0-75.7,33.9-75.7,75.7v66.3h42.6v-66.3C142.4,327.5,176.3,293.6,218.1,293.6z"/>
	<path d="M256,251.5c-52.2,0-94.7-42.5-94.7-94.7s42.5-94.7,94.7-94.7s94.7,42.5,94.7,94.7S308.2,251.5,256,251.5z M256,90.6
		c-36.5,0-66.3,29.7-66.3,66.3s29.7,66.3,66.3,66.3s66.3-29.7,66.3-66.3S292.5,90.6,256,90.6z"/>
	<path d="M412.2,449.8H99.8c-7.8,0-14.2-6.4-14.2-14.2v-66.3c0-49.6,40.4-89.9,89.9-89.9h161c49.6,0,89.9,40.4,89.9,89.9v66.3
		C426.4,443.5,420.1,449.8,412.2,449.8z M114,421.4h284v-52.1c0-33.9-27.6-61.5-61.5-61.5h-161c-33.9,0-61.5,27.6-61.5,61.5V421.4z"
		/>
</g>
</svg>
