<?xml version="1.0" encoding="utf-8"?>
<!-- Generator: Adobe Illustrator 25.2.0, SVG Export Plug-In . SVG Version: 6.00 Build 0)  -->
<svg version="1.1" id="Layer_1" xmlns="http://www.w3.org/2000/svg" xmlns:xlink="http://www.w3.org/1999/xlink" x="0px" y="0px"
	 viewBox="0 0 373 214.3" style="enable-background:new 0 0 373 214.3;" xml:space="preserve">
<style type="text/css">
	.st0{fill:url(#SVGID_1_);}
	.st1{fill:url(#SVGID_2_);}
	.st2{fill:#FFFFFF;}
</style>
<g>
	
		<image style="overflow:visible;" width="1605" height="947" xlink:href="CD3B1B02.png"  transform="matrix(0.24 0 0 0.24 -5.1361 -5.0959)">
	</image>
	<g>
		<g>
			
				<linearGradient id="SVGID_1_" gradientUnits="userSpaceOnUse" x1="308.7623" y1="171.0863" x2="344.3862" y2="171.0863" gradientTransform="matrix(1 0 0 1 16.4572 0)">
				<stop  offset="0" style="stop-color:#D2121C"/>
				<stop  offset="0.5697" style="stop-color:#2C0D0F"/>
				<stop  offset="1" style="stop-color:#A91916"/>
			</linearGradient>
			<path class="st0" d="M325.2,203.2c0,0,35.5,1.9,35.5-33c0,0,3.4-31.2-35.5-31.2V203.2z"/>
			
				<linearGradient id="SVGID_2_" gradientUnits="userSpaceOnUse" x1="-16.4572" y1="87.1777" x2="344.3112" y2="87.1777" gradientTransform="matrix(1 0 0 1 16.4572 0)">
				<stop  offset="0" style="stop-color:#BE1818"/>
				<stop  offset="0.92" style="stop-color:#E7364E"/>
				<stop  offset="1" style="stop-color:#AE2B1F"/>
			</linearGradient>
			<path class="st1" d="M360.8,31.2v143.1c0-34.8-35.5-31.1-35.5-31.1v-0.1H61.5L0,71.1L61.5,0h263.7v0.1
				C325.2,0.1,360.8-3.6,360.8,31.2L360.8,31.2z"/>
		</g>
	</g>
</g>
<g>
	<path class="st2" d="M118.6,29.3l22,69.6l22.1-69.6H179l-30.4,86.6h-15.9l-30.3-86.6H118.6z"/>
	<path class="st2" d="M215.4,29.3v86.6h-14.7V29.3H215.4z"/>
	<path class="st2" d="M259.7,84.2v31.7h-14.7V29.3h32c6.7,0,12.4,1.2,17.1,3.6s8.3,5.7,10.8,9.9c2.5,4.2,3.7,9.1,3.7,14.5
		c0,8.1-2.8,14.6-8.3,19.5c-5.5,4.9-13.3,7.3-23.3,7.3H259.7z M259.7,72.2h17.4c5.9,0,10.2-1.4,12.8-4.2c2.6-2.8,4-6.3,4-10.5
		c0-4.3-1.3-8.1-4-11.3c-2.6-3.2-6.9-4.8-12.8-4.8h-17.4V72.2z"/>
</g>
</svg>
